<svg xmlns="http://www.w3.org/2000/svg" viewBox="0 0 35 35"><defs><style>.cls-1{fill:#fff;}</style></defs><title>Asset 66</title><g id="Layer_2" data-name="Layer 2"><g id="Layer_1-2" data-name="Layer 1"><g id="U5XXKw"><path class="cls-1" d="M0,17.44A17.5,17.5,0,1,1,17.44,35,17.57,17.57,0,0,1,0,17.44ZM29.66,28A16,16,0,0,0,28.75,5.9a16.16,16.16,0,0,0-23.31.83C-.89,13.88.91,23.59,5.37,28a21.65,21.65,0,0,1,6.25-6.36,1,1,0,0,1,1.5.1,6.51,6.51,0,0,0,8.63.1,1.27,1.27,0,0,1,1.86,0A22,22,0,0,1,29.66,28Z"/><path class="cls-1" d="M11.15,14c0-4.89,3.91-8,8.37-6.58a5.85,5.85,0,0,1,3.78,3.53,8.76,8.76,0,0,1-2,9.29,5.45,5.45,0,0,1-7.53,0A8.45,8.45,0,0,1,11.15,14Z"/></g></g></g></svg>