<?xml version="1.0" encoding="utf-8"?>
<!-- Generator: Adobe Illustrator 23.0.3, SVG Export Plug-In . SVG Version: 6.00 Build 0)  -->
<svg version="1.1" id="Layer_1" xmlns="http://www.w3.org/2000/svg" xmlns:xlink="http://www.w3.org/1999/xlink" x="0px" y="0px"
	 viewBox="0 0 366.9 27.1" style="enable-background:new 0 0 366.9 27.1;" xml:space="preserve">
<style type="text/css">
	.st0{enable-background:new    ;}
	.st1{fill:#58595B;}
	.st2{fill:none;stroke:#A6A8AB;stroke-miterlimit:10;}
</style>
<title>Asset 35</title>
<g>
	<g id="Layer_1-2">
		<g class="st0">
			<path class="st1" d="M18,6.3h2.9l2.5,8.3l2.8-8.3h2.3l2.8,8.3l2.5-8.3h2.8l-4.2,12.4h-2.3l-2.8-8l-2.8,8h-2.3L18,6.3z"/>
		</g>
		<g class="st0">
			<path class="st1" d="M36,15.9L36,15.9c0-2.1,1.6-3,3.8-3c0.9,0,1.6,0.2,2.3,0.4v-0.2c0-1.1-0.7-1.7-2-1.7c-1,0-1.7,0.2-2.6,0.5
				l-0.7-2c1-0.5,2.1-0.8,3.6-0.8c1.5,0,2.5,0.4,3.2,1.1c0.7,0.7,1,1.7,1,3v5.5H42v-1c-0.6,0.7-1.5,1.2-2.8,1.2
				C37.4,18.8,36,17.7,36,15.9z M42.1,15.3v-0.5c-0.5-0.2-1.1-0.4-1.7-0.4c-1.1,0-1.8,0.5-1.8,1.3v0c0,0.7,0.6,1.1,1.5,1.1
				C41.3,16.9,42.1,16.2,42.1,15.3z"/>
		</g>
		<g class="st0">
			<path class="st1" d="M46.8,15.9v-4.5h-1.1V9.2h1.1V6.8h2.7v2.4h2.2v2.3h-2.2v4c0,0.6,0.3,0.9,0.9,0.9c0.5,0,0.9-0.1,1.3-0.3v2.1
				c-0.6,0.3-1.2,0.5-2.1,0.5C47.9,18.7,46.8,18.1,46.8,15.9z"/>
		</g>
		<g class="st0">
			<path class="st1" d="M52.3,13.9L52.3,13.9c0-2.7,2.1-4.9,4.9-4.9c1.8,0,2.9,0.6,3.8,1.6l-1.6,1.8c-0.6-0.6-1.2-1-2.1-1
				c-1.3,0-2.3,1.2-2.3,2.6v0c0,1.4,0.9,2.6,2.4,2.6c0.9,0,1.5-0.4,2.2-1l1.6,1.6c-0.9,1-2,1.7-3.8,1.7
				C54.4,18.8,52.3,16.6,52.3,13.9z"/>
			<path class="st1" d="M62.5,5.8h2.7v4.7C65.7,9.7,66.5,9,67.9,9c2,0,3.2,1.3,3.2,3.5v6.1h-2.7v-5.2c0-1.3-0.6-1.9-1.6-1.9
				c-1,0-1.7,0.6-1.7,1.9v5.2h-2.7V5.8z"/>
			<path class="st1" d="M77.9,15.3V9.2h2.7v5.2c0,1.3,0.6,1.9,1.6,1.9c1,0,1.7-0.6,1.7-1.9V9.2h2.7v9.4h-2.7v-1.3
				c-0.6,0.8-1.4,1.5-2.8,1.5C79,18.8,77.9,17.4,77.9,15.3z"/>
			<path class="st1" d="M88.5,9.2h2.7v1.4C91.8,9.7,92.7,9,94.1,9c2.2,0,4.3,1.7,4.3,4.9v0c0,3.1-2.1,4.9-4.3,4.9
				c-1.4,0-2.3-0.6-2.9-1.4v4h-2.7V9.2z M95.7,13.9L95.7,13.9c0-1.6-1.1-2.6-2.3-2.6c-1.2,0-2.3,1-2.3,2.6v0c0,1.6,1,2.6,2.3,2.6
				C94.7,16.5,95.7,15.5,95.7,13.9z"/>
		</g>
		<g class="st0">
			<path class="st1" d="M104.6,15.9v-4.5h-1.1V9.2h1.1V6.8h2.7v2.4h2.2v2.3h-2.2v4c0,0.6,0.3,0.9,0.9,0.9c0.5,0,0.9-0.1,1.3-0.3v2.1
				c-0.6,0.3-1.2,0.5-2.1,0.5C105.7,18.7,104.6,18.1,104.6,15.9z"/>
		</g>
		<g class="st0">
			<path class="st1" d="M110.2,13.9L110.2,13.9c0-2.7,2.2-4.9,5.1-4.9c2.9,0,5.1,2.2,5.1,4.9v0c0,2.7-2.2,4.9-5.1,4.9
				C112.4,18.8,110.2,16.6,110.2,13.9z M117.8,13.9L117.8,13.9c0-1.4-1-2.6-2.5-2.6c-1.5,0-2.4,1.2-2.4,2.6v0c0,1.4,1,2.6,2.5,2.6
				C116.8,16.5,117.8,15.3,117.8,13.9z"/>
			<path class="st1" d="M126,16.7l1.9-1.8c0.8,0.9,1.7,1.5,3,1.5c1,0,1.7-0.6,1.7-1.5v0c0-1-0.9-1.6-2.4-1.6H129l-0.4-1.7l2.9-2.9
				h-4.8V6.3h8.3v2l-3.1,3c1.7,0.3,3.3,1.2,3.3,3.4v0c0,2.3-1.7,4-4.4,4C128.6,18.8,127,17.9,126,16.7z"/>
			<path class="st1" d="M140.9,17.3l1.1-1.8c1,0.7,2.1,1.1,3,1.1c0.8,0,1.1-0.3,1.1-0.7v0c0-0.6-0.9-0.8-1.9-1.1
				c-1.3-0.4-2.8-1-2.8-2.8v0c0-1.9,1.5-3,3.4-3c1.2,0,2.5,0.4,3.5,1.1l-1,1.8c-0.9-0.5-1.9-0.9-2.5-0.9c-0.6,0-1,0.3-1,0.6v0
				c0,0.5,0.9,0.8,1.9,1.1c1.3,0.4,2.8,1.1,2.8,2.8v0c0,2.1-1.6,3-3.6,3C143.6,18.8,142.1,18.3,140.9,17.3z"/>
			<path class="st1" d="M149.4,13.9L149.4,13.9c0-2.7,2.1-4.9,4.9-4.9c1.8,0,2.9,0.6,3.8,1.6l-1.6,1.8c-0.6-0.6-1.2-1-2.1-1
				c-1.3,0-2.3,1.2-2.3,2.6v0c0,1.4,0.9,2.6,2.4,2.6c0.9,0,1.5-0.4,2.2-1l1.6,1.6c-0.9,1-2,1.7-3.8,1.7
				C151.5,18.8,149.4,16.6,149.4,13.9z"/>
		</g>
		<g class="st0">
			<path class="st1" d="M159.7,9.2h2.7v1.9c0.5-1.3,1.4-2.1,3-2.1v2.8h-0.1c-1.8,0-2.9,1.1-2.9,3.3v3.5h-2.7V9.2z"/>
		</g>
		<g class="st0">
			<path class="st1" d="M165.7,13.9L165.7,13.9c0-2.7,1.9-4.9,4.6-4.9c3.1,0,4.6,2.4,4.6,5.1c0,0.2,0,0.5,0,0.7h-6.5
				c0.3,1.2,1.1,1.8,2.3,1.8c0.9,0,1.5-0.3,2.3-1l1.5,1.3c-0.9,1.1-2.1,1.8-3.8,1.8C167.8,18.8,165.7,16.8,165.7,13.9z M172.4,13.2
				c-0.2-1.2-0.9-2-2-2c-1.1,0-1.8,0.8-2,2H172.4z"/>
			<path class="st1" d="M175.9,13.9L175.9,13.9c0-2.7,1.9-4.9,4.6-4.9c3.1,0,4.6,2.4,4.6,5.1c0,0.2,0,0.5,0,0.7h-6.5
				c0.3,1.2,1.1,1.8,2.3,1.8c0.9,0,1.5-0.3,2.3-1l1.5,1.3c-0.9,1.1-2.1,1.8-3.8,1.8C178,18.8,175.9,16.8,175.9,13.9z M182.6,13.2
				c-0.2-1.2-0.9-2-2-2c-1.1,0-1.8,0.8-2,2H182.6z"/>
			<path class="st1" d="M186.6,9.2h2.7v1.3c0.6-0.8,1.4-1.5,2.8-1.5c2,0,3.2,1.3,3.2,3.5v6.1h-2.7v-5.2c0-1.3-0.6-1.9-1.6-1.9
				s-1.7,0.6-1.7,1.9v5.2h-2.7V9.2z"/>
			<path class="st1" d="M196.3,17.3l1.1-1.8c1,0.7,2.1,1.1,3,1.1c0.8,0,1.1-0.3,1.1-0.7v0c0-0.6-0.9-0.8-1.9-1.1
				c-1.3-0.4-2.8-1-2.8-2.8v0c0-1.9,1.5-3,3.4-3c1.2,0,2.5,0.4,3.5,1.1l-1,1.8c-0.9-0.5-1.9-0.9-2.5-0.9c-0.6,0-1,0.3-1,0.6v0
				c0,0.5,0.9,0.8,1.9,1.1c1.3,0.4,2.8,1.1,2.8,2.8v0c0,2.1-1.6,3-3.6,3C199,18.8,197.5,18.3,196.3,17.3z"/>
		</g>
		<g class="st0">
			<path class="st1" d="M209.5,15.9L209.5,15.9c0-2.1,1.6-3,3.8-3c0.9,0,1.6,0.2,2.3,0.4v-0.2c0-1.1-0.7-1.7-2-1.7
				c-1,0-1.7,0.2-2.6,0.5l-0.7-2c1-0.5,2.1-0.8,3.6-0.8c1.5,0,2.5,0.4,3.2,1.1c0.7,0.7,1,1.7,1,3v5.5h-2.6v-1
				c-0.6,0.7-1.5,1.2-2.8,1.2C211,18.8,209.5,17.7,209.5,15.9z M215.6,15.3v-0.5c-0.5-0.2-1.1-0.4-1.7-0.4c-1.1,0-1.8,0.5-1.8,1.3v0
				c0,0.7,0.6,1.1,1.5,1.1C214.8,16.9,215.6,16.2,215.6,15.3z"/>
		</g>
		<g class="st0">
			<path class="st1" d="M220.3,15.9v-4.5h-1.1V9.2h1.1V6.8h2.7v2.4h2.2v2.3h-2.2v4c0,0.6,0.3,0.9,0.9,0.9c0.5,0,0.9-0.1,1.3-0.3v2.1
				c-0.6,0.3-1.2,0.5-2.1,0.5C221.4,18.7,220.3,18.1,220.3,15.9z"/>
			<path class="st1" d="M232.1,15.9v-4.5H231V9.2h1.1V6.8h2.7v2.4h2.2v2.3h-2.2v4c0,0.6,0.3,0.9,0.9,0.9c0.5,0,0.9-0.1,1.3-0.3v2.1
				c-0.6,0.3-1.2,0.5-2.1,0.5C233.2,18.7,232.1,18.1,232.1,15.9z"/>
			<path class="st1" d="M238.6,5.8h2.7v4.7c0.6-0.8,1.4-1.5,2.8-1.5c2,0,3.2,1.3,3.2,3.5v6.1h-2.7v-5.2c0-1.3-0.6-1.9-1.6-1.9
				s-1.7,0.6-1.7,1.9v5.2h-2.7V5.8z"/>
			<path class="st1" d="M248.7,13.9L248.7,13.9c0-2.7,1.9-4.9,4.6-4.9c3.1,0,4.6,2.4,4.6,5.1c0,0.2,0,0.5,0,0.7h-6.5
				c0.3,1.2,1.1,1.8,2.3,1.8c0.9,0,1.5-0.3,2.3-1l1.5,1.3c-0.9,1.1-2.1,1.8-3.8,1.8C250.8,18.8,248.7,16.8,248.7,13.9z M255.3,13.2
				c-0.2-1.2-0.9-2-2-2c-1.1,0-1.8,0.8-2,2H255.3z"/>
			<path class="st1" d="M263.7,17.3l1.1-1.8c1,0.7,2.1,1.1,3,1.1c0.8,0,1.1-0.3,1.1-0.7v0c0-0.6-0.9-0.8-1.9-1.1
				c-1.3-0.4-2.8-1-2.8-2.8v0c0-1.9,1.5-3,3.4-3c1.2,0,2.5,0.4,3.5,1.1l-1,1.8c-0.9-0.5-1.9-0.9-2.5-0.9c-0.6,0-1,0.3-1,0.6v0
				c0,0.5,0.9,0.8,1.9,1.1c1.3,0.4,2.8,1.1,2.8,2.8v0c0,2.1-1.6,3-3.6,3C266.5,18.8,265,18.3,263.7,17.3z"/>
			<path class="st1" d="M272.4,15.9L272.4,15.9c0-2.1,1.6-3,3.8-3c0.9,0,1.6,0.2,2.3,0.4v-0.2c0-1.1-0.7-1.7-2-1.7
				c-1,0-1.7,0.2-2.6,0.5l-0.7-2c1-0.5,2.1-0.8,3.6-0.8c1.5,0,2.5,0.4,3.2,1.1c0.7,0.7,1,1.7,1,3v5.5h-2.6v-1
				c-0.6,0.7-1.5,1.2-2.8,1.2C273.8,18.8,272.4,17.7,272.4,15.9z M278.5,15.3v-0.5c-0.5-0.2-1.1-0.4-1.7-0.4c-1.1,0-1.8,0.5-1.8,1.3
				v0c0,0.7,0.6,1.1,1.5,1.1C277.6,16.9,278.5,16.2,278.5,15.3z"/>
			<path class="st1" d="M282.9,9.2h2.7v1.3c0.6-0.8,1.4-1.5,2.8-1.5c1.2,0,2.2,0.5,2.6,1.5c0.8-1,1.8-1.5,3.1-1.5
				c2,0,3.2,1.2,3.2,3.5v6.1h-2.7v-5.2c0-1.3-0.6-1.9-1.6-1.9s-1.6,0.6-1.6,1.9v5.2h-2.7v-5.2c0-1.3-0.6-1.9-1.6-1.9
				c-1,0-1.6,0.6-1.6,1.9v5.2h-2.7V9.2z"/>
			<path class="st1" d="M298.8,13.9L298.8,13.9c0-2.7,1.9-4.9,4.6-4.9c3.1,0,4.6,2.4,4.6,5.1c0,0.2,0,0.5,0,0.7h-6.5
				c0.3,1.2,1.1,1.8,2.3,1.8c0.9,0,1.5-0.3,2.3-1l1.5,1.3c-0.9,1.1-2.1,1.8-3.8,1.8C300.9,18.8,298.8,16.8,298.8,13.9z M305.4,13.2
				c-0.2-1.2-0.9-2-2-2c-1.1,0-1.8,0.8-2,2H305.4z"/>
			<path class="st1" d="M315,15.9v-4.5h-1.1V9.2h1.1V6.8h2.7v2.4h2.2v2.3h-2.2v4c0,0.6,0.3,0.9,0.9,0.9c0.5,0,0.9-0.1,1.3-0.3v2.1
				c-0.6,0.3-1.2,0.5-2.1,0.5C316.1,18.7,315,18.1,315,15.9z"/>
			<path class="st1" d="M321.5,5.8h2.8v2.4h-2.8V5.8z M321.6,9.2h2.7v9.4h-2.7V9.2z"/>
			<path class="st1" d="M326.4,9.2h2.7v1.3c0.6-0.8,1.4-1.5,2.8-1.5c1.2,0,2.2,0.5,2.6,1.5c0.8-1,1.8-1.5,3.1-1.5
				c2,0,3.2,1.2,3.2,3.5v6.1h-2.7v-5.2c0-1.3-0.6-1.9-1.6-1.9s-1.6,0.6-1.6,1.9v5.2h-2.7v-5.2c0-1.3-0.6-1.9-1.6-1.9
				c-1,0-1.6,0.6-1.6,1.9v5.2h-2.7V9.2z"/>
			<path class="st1" d="M342.3,13.9L342.3,13.9c0-2.7,1.9-4.9,4.6-4.9c3.1,0,4.6,2.4,4.6,5.1c0,0.2,0,0.5,0,0.7h-6.5
				c0.3,1.2,1.1,1.8,2.3,1.8c0.9,0,1.5-0.3,2.3-1L351,17c-0.9,1.1-2.1,1.8-3.8,1.8C344.4,18.8,342.3,16.8,342.3,13.9z M348.9,13.2
				c-0.2-1.2-0.9-2-2-2c-1.1,0-1.8,0.8-2,2H348.9z"/>
		</g>
		<path class="st2" d="M10.1,0.5h346.7c5.3,0,9.6,4.3,9.6,9.6V17c0,5.3-4.3,9.6-9.6,9.6H10.1c-5.3,0-9.6-4.3-9.6-9.6v-6.9
			C0.5,4.8,4.8,0.5,10.1,0.5z"/>
	</g>
</g>
</svg>
