<?xml version="1.0" encoding="utf-8"?>
<!-- Generator: Adobe Illustrator 23.0.3, SVG Export Plug-In . SVG Version: 6.00 Build 0)  -->
<svg version="1.1" id="Layer_1" xmlns="http://www.w3.org/2000/svg" xmlns:xlink="http://www.w3.org/1999/xlink" x="0px" y="0px"
	 viewBox="0 0 341 47.8" style="enable-background:new 0 0 341 47.8;" xml:space="preserve">
<style type="text/css">
	.st0{fill:#A02C72;}
	.st1{enable-background:new    ;}
	.st2{fill:#FFFFFF;}
</style>
<title>Asset 63</title>
<g>
	<g id="Layer_1-2">
		<path class="st0" d="M17.9,0h305.3C333,0,341,8,341,17.9v12.1c0,9.9-8,17.9-17.9,17.9H17.9C8,47.8,0,39.8,0,29.9V17.9
			C0,8,8,0,17.9,0z"/>
		<g class="st1">
			<path class="st2" d="M67.1,14.1v12c0,5.3-2.9,6.7-5.8,6.7c-1.4,0-2.7-0.4-3.7-1c-0.3-0.2-0.6-0.5-0.6-1c0-0.6,0.4-1.1,1.1-1.1
				c0.1,0,0.3,0,0.5,0.1c0.8,0.4,1.6,0.6,2.6,0.6c1.7,0,3.4-0.6,3.4-4.1V14.1c0-0.7,0.6-1.3,1.3-1.3C66.5,12.8,67.1,13.4,67.1,14.1z
				"/>
			<path class="st2" d="M85.4,25.3c0,4.4-2.9,7.4-7.2,7.4c-4.3,0-7.2-3-7.2-7.4s2.8-7.4,7.2-7.4C82.6,17.9,85.4,20.9,85.4,25.3z
				 M82.9,25.3c0-3.7-2.5-5.1-4.6-5.1c-2.2,0-4.6,1.4-4.6,5.1c0,3.7,2.5,5.1,4.6,5.1C80.4,30.4,82.9,29,82.9,25.3z"/>
			<path class="st2" d="M91.9,13.8c0,0.8-0.6,1.4-1.4,1.4c0,0-0.1,0-0.2,0c-0.8,0-1.4-0.6-1.4-1.4c0,0,0,0,0-0.1
				c0-0.8,0.6-1.4,1.4-1.4c0.1,0,0.1,0,0.2,0c0.8,0,1.4,0.6,1.4,1.4C91.9,13.8,91.9,13.8,91.9,13.8z M91.6,19.3v12
				c0,0.7-0.6,1.3-1.3,1.3c-0.7,0-1.3-0.6-1.3-1.3v-12c0-0.7,0.6-1.3,1.3-1.3C91.1,18,91.6,18.6,91.6,19.3z"/>
			<path class="st2" d="M108.9,23.4v8c0,0.7-0.6,1.3-1.3,1.3s-1.3-0.6-1.3-1.3v-7.7c0-2.1-0.9-3.4-3.1-3.4c-2,0-3.5,1.3-4.6,2.7v8.4
				c0,0.7-0.6,1.3-1.3,1.3c-0.7,0-1.3-0.6-1.3-1.3v-12c0-0.7,0.6-1.3,1.3-1.3c0.7,0,1.3,0.6,1.3,1.3v1.1c1.2-1.3,2.7-2.6,5.2-2.6
				C107.1,17.9,108.9,20.4,108.9,23.4z"/>
			<path class="st2" d="M131.7,23.4v7.9c0,0.7-0.6,1.3-1.3,1.3c-0.7,0-1.3-0.6-1.3-1.3v-0.7c-1,1-2.6,2.1-5.3,2.1
				c-2.4,0-4.6-1.6-4.6-4.2s2.1-4.5,6.4-4.5h3.4v-0.2c0-2.5-1.2-3.5-3.8-3.5c-1.6,0-2.7,0.3-3.7,0.7c-0.1,0-0.3,0.1-0.4,0.1
				c-0.6,0-1-0.4-1-1.1c0-0.5,0.3-0.9,0.7-1.1c1.3-0.6,2.9-1,4.8-1C130,17.9,131.7,20.7,131.7,23.4z M129.2,28.4V26h-3.1
				c-2.6,0-4.2,0.6-4.2,2.2c0,1.2,0.7,2.2,3,2.2C126.6,30.5,128.2,29.5,129.2,28.4z"/>
			<path class="st2" d="M146.1,28.6c0,2.3-1.8,4.1-5.4,4.1c-2,0-3.7-0.5-5.1-1.3c-0.3-0.2-0.5-0.5-0.5-0.9c0-0.6,0.4-1.1,1.1-1.1
				c0.2,0,0.3,0,0.5,0.1c1,0.4,2.2,0.8,3.8,0.8c2.2,0,3.1-0.7,3.1-2c0-2.4-8.4-1-8.4-6.1c0-2.5,1.8-4.4,5.5-4.4
				c1.5,0,2.9,0.3,4.1,0.7c0.5,0.2,0.8,0.6,0.8,1.1c0,0.6-0.5,1.1-1.1,1.1c-0.1,0-0.3,0-0.4-0.1c-0.9-0.3-2-0.5-3.2-0.5
				c-2.1,0-3.2,0.8-3.2,2C137.7,25.1,146.1,23.1,146.1,28.6z"/>
			<path class="st2" d="M168,23.4v7.9c0,0.7-0.6,1.3-1.3,1.3c-0.7,0-1.3-0.6-1.3-1.3v-0.7c-1,1-2.6,2.1-5.3,2.1
				c-2.4,0-4.6-1.6-4.6-4.2s2.1-4.5,6.4-4.5h3.4v-0.2c0-2.5-1.2-3.5-3.8-3.5c-1.6,0-2.7,0.3-3.7,0.7c-0.1,0-0.3,0.1-0.4,0.1
				c-0.6,0-1-0.4-1-1.1c0-0.5,0.3-0.9,0.7-1.1c1.3-0.6,2.9-1,4.8-1C166.2,17.9,168,20.7,168,23.4z M165.4,28.4V26h-3.1
				c-2.6,0-4.2,0.6-4.2,2.2c0,1.2,0.7,2.2,3,2.2C162.9,30.5,164.5,29.5,165.4,28.4z"/>
			<path class="st2" d="M195.3,31.3c0,0.7-0.6,1.3-1.3,1.3c-0.8,0-1.3-0.5-1.3-1.3v-0.8c0-1.8-0.1-5.7-4.3-5.7h-5.8v6.5
				c0,0.7-0.6,1.3-1.3,1.3s-1.3-0.6-1.3-1.3V14.2c0-0.7,0.6-1.3,1.3-1.3h6.5c5.3,0,7.6,2.5,7.6,5.7c0,2.2-1.2,4.2-3.7,5.1
				c3.1,0.8,3.5,4.8,3.5,6.4V31.3z M192.9,18.8c0-2.1-1.2-3.5-5.4-3.5h-4.9v7.1h5.1C190.8,22.4,192.9,21.2,192.9,18.8z"/>
			<path class="st2" d="M211.6,30.5c0,0.4-0.3,0.8-0.7,1c-1.2,0.7-2.5,1.2-4.9,1.2c-4.6,0-7.3-2.7-7.3-7.4c0-3.8,2-7.4,6.7-7.4
				c4.3,0,6.7,3.3,6.7,7.1c0,0.7-0.5,1.3-1.3,1.3h-9.5c0.3,2.5,1.9,4.1,4.9,4.1c1.7,0,2.7-0.3,3.8-0.9c0.2-0.1,0.3-0.1,0.5-0.1
				C211,29.4,211.6,29.8,211.6,30.5z M201.3,24.1h8.3c-0.2-2.9-2.4-4.1-4.1-4.1S201.4,21.2,201.3,24.1z"/>
			<path class="st2" d="M225.6,28.6c0,2.3-1.8,4.1-5.4,4.1c-2,0-3.7-0.5-5.1-1.3c-0.3-0.2-0.5-0.5-0.5-0.9c0-0.6,0.4-1.1,1.1-1.1
				c0.2,0,0.3,0,0.5,0.1c1,0.4,2.2,0.8,3.8,0.8c2.2,0,3.1-0.7,3.1-2c0-2.4-8.4-1-8.4-6.1c0-2.5,1.8-4.4,5.5-4.4
				c1.5,0,2.9,0.3,4.1,0.7c0.5,0.2,0.8,0.6,0.8,1.1c0,0.6-0.5,1.1-1.1,1.1c-0.1,0-0.3,0-0.4-0.1c-0.9-0.3-2-0.5-3.2-0.5
				c-2.1,0-3.2,0.8-3.2,2C217.2,25.1,225.6,23.1,225.6,28.6z"/>
			<path class="st2" d="M241,30.5c0,0.4-0.3,0.8-0.7,1c-1.2,0.7-2.5,1.2-4.9,1.2c-4.6,0-7.3-2.7-7.3-7.4c0-3.8,2-7.4,6.7-7.4
				c4.3,0,6.7,3.3,6.7,7.1c0,0.7-0.5,1.3-1.3,1.3h-9.5c0.3,2.5,1.9,4.1,4.9,4.1c1.7,0,2.7-0.3,3.8-0.9c0.2-0.1,0.3-0.1,0.5-0.1
				C240.4,29.4,241,29.8,241,30.5z M230.7,24.1h8.3c-0.2-2.9-2.4-4.1-4.1-4.1S230.8,21.2,230.7,24.1z"/>
			<path class="st2" d="M247.6,13.2v18.2c0,0.7-0.6,1.3-1.3,1.3c-0.7,0-1.3-0.6-1.3-1.3V13.2c0-0.7,0.6-1.3,1.3-1.3
				C247.1,11.9,247.6,12.4,247.6,13.2z"/>
			<path class="st2" d="M255.1,13.2v18.2c0,0.7-0.6,1.3-1.3,1.3c-0.7,0-1.3-0.6-1.3-1.3V13.2c0-0.7,0.6-1.3,1.3-1.3
				C254.5,11.9,255.1,12.4,255.1,13.2z"/>
			<path class="st2" d="M271.8,30.5c0,0.4-0.3,0.8-0.7,1c-1.2,0.7-2.5,1.2-4.9,1.2c-4.6,0-7.3-2.7-7.3-7.4c0-3.8,2-7.4,6.7-7.4
				c4.3,0,6.7,3.3,6.7,7.1c0,0.7-0.5,1.3-1.3,1.3h-9.5c0.3,2.5,1.9,4.1,4.9,4.1c1.7,0,2.7-0.3,3.8-0.9c0.2-0.1,0.3-0.1,0.5-0.1
				C271.2,29.4,271.8,29.8,271.8,30.5z M261.5,24.1h8.3c-0.2-2.9-2.4-4.1-4.1-4.1C263.8,20.1,261.6,21.2,261.5,24.1z"/>
			<path class="st2" d="M284,19.2c0,0.7-0.6,1.2-1.3,1.2h-0.1c-1.8,0-3.4,1-4.3,2.5v8.5c0,0.7-0.6,1.3-1.3,1.3
				c-0.7,0-1.3-0.6-1.3-1.3v-12c0-0.7,0.6-1.3,1.3-1.3c0.7,0,1.3,0.6,1.3,1.3v1.2c1-1.3,2.5-2.6,4.4-2.6h0.1
				C283.5,17.9,284,18.5,284,19.2z"/>
		</g>
	</g>
</g>
</svg>
