<?xml version="1.0" encoding="utf-8"?>
<!-- Generator: Adobe Illustrator 23.0.3, SVG Export Plug-In . SVG Version: 6.00 Build 0)  -->
<svg version="1.1" id="Layer_1" xmlns="http://www.w3.org/2000/svg" xmlns:xlink="http://www.w3.org/1999/xlink" x="0px" y="0px"
	 viewBox="0 0 254.7 39" style="enable-background:new 0 0 254.7 39;" xml:space="preserve">
<style type="text/css">
	.st0{fill:#A02C72;}
	.st1{enable-background:new    ;}
	.st2{fill:#FFFFFF;}
</style>
<title>Asset 40</title>
<g>
	<g id="Layer_1-2">
		<path class="st0" d="M17.9,0h219c9.9,0,17.9,8,17.9,17.9v3.3c0,9.9-8,17.9-17.9,17.9h-219C8,39,0,31,0,21.2v-3.3C0,8,8,0,17.9,0z"
			/>
		<g class="st1">
			<path class="st2" d="M66.9,28.5c-0.8,0-1.4-0.6-1.4-1.4V14.3c0-0.8,0.6-1.4,1.4-1.4h6.3c3,0,4.6,2,4.6,4.3c0,1-0.3,2-1.2,2.8
				c1.8,0.7,2.6,2.1,2.6,3.7c0,2.6-1.8,4.7-5.1,4.7H66.9z M73.2,15.6h-4.8V19h4.8c1,0,1.6-0.6,1.6-1.8
				C74.8,16.4,74.2,15.6,73.2,15.6z M68.4,25.7h5.5c2.6,0,2.6-4,0-4c-1.7,0-3.7,0-5.5,0V25.7z"/>
			<path class="st2" d="M94.6,14.4c0-2,3-2.2,3,0v8.2c0,8.4-13.6,8.4-13.6,0v-8.2c0-2,3-2.1,3,0v8.2c0,4.4,7.7,4.7,7.7,0V14.4z"/>
			<path class="st2" d="M102,15c-1.1-1.4,1.4-3.3,2.5-1.5l3.9,5.9l4-5.9c1.2-1.6,3.7,0,2.5,1.5l-5.1,7.4v4.7c0,2-3,1.9-3,0v-4.6
				L102,15z"/>
			<path class="st2" d="M128.5,14.4c0-0.8,0.2-1.6,1.4-1.6c0.8,0,1,0.2,1.6,0.8l7.5,9.3v-8.7c0-0.7,0.7-1.6,1.4-1.6
				c0.8,0,1.6,0.8,1.6,1.6v12.7c0,1-0.6,1.4-1.2,1.6c-0.8,0-1.2-0.2-1.8-0.8l-7.5-9.5v8.7c0,1-0.6,1.6-1.4,1.6
				c-0.8,0-1.5-0.6-1.5-1.6V14.4z"/>
			<path class="st2" d="M155.2,28.7c-4.2,0.2-8.5-2.6-8.5-8.1c0-5.5,4.3-8.3,8.5-8.3c3.9,0.2,8.1,2.9,8.1,8.3
				C163.3,25.9,159.2,28.7,155.2,28.7z M155,15.2c-2.5,0-5.3,1.8-5.3,5.3c0,3.5,2.8,5.3,5.3,5.3c2.6,0,5.4-1.8,5.4-5.3
				C160.4,17,157.6,15.2,155,15.2z"/>
			<path class="st2" d="M184.1,23.1l3.4-9.3c0.7-1.8,3.4-1,2.7,1l-4.5,12.1c-0.4,1.3-0.8,1.7-1.6,1.7c-0.8,0-1.1-0.5-1.5-1.3
				l-3.9-8.9l-3.7,8.8c-0.4,0.9-0.8,1.5-1.6,1.5c-0.8,0-1.2-0.5-1.6-1.5l-4.4-12.3c-0.7-2,2.2-2.8,2.8-1l3.3,9.3l4-9.3
				c0.5-1.4,2-1.4,2.5-0.1L184.1,23.1z"/>
		</g>
	</g>
</g>
</svg>
