<?xml version="1.0" encoding="utf-8"?>
<!-- Generator: Adobe Illustrator 23.0.3, SVG Export Plug-In . SVG Version: 6.00 Build 0)  -->
<svg version="1.1" id="Layer_1" xmlns="http://www.w3.org/2000/svg" xmlns:xlink="http://www.w3.org/1999/xlink" x="0px" y="0px"
	 viewBox="0 0 1031.2 545.8" style="enable-background:new 0 0 1031.2 545.8;" xml:space="preserve">
<style type="text/css">
	.st0{fill:#F1F1F2;stroke:#F67E51;stroke-miterlimit:10;}
	.st1{enable-background:new    ;}
	.st2{fill:#58595B;}
	.st3{fill:#F67E51;}
	.st4{fill:none;stroke:#F67E51;stroke-miterlimit:10;}
	.st5{fill:#FFFFFF;stroke:#F67E51;stroke-miterlimit:10;}
</style>
<title>Asset 53</title>
<g>
	<g id="Layer_1-2">
		<path class="st0" d="M1030.7,33.6v435c0,18.3-14.8,33.2-33.1,33.2H463.4c-18.3,0-33.2-14.8-33.2-33.2v-435
			c0-18.3,14.8-33.1,33.2-33.1h534.1C1015.8,0.5,1030.7,15.3,1030.7,33.6z"/>
		<g class="st1">
			<path class="st2" d="M438,532l-7-10.1h2.3l5.7,8.4l5.7-8.4h2.2l-7,10.1v6.7H438V532z"/>
		</g>
		<g class="st1">
			<path class="st2" d="M446.2,532.5L446.2,532.5c0-3.5,2.7-6.5,6.5-6.5c3.7,0,6.4,2.9,6.4,6.4v0c0,3.5-2.8,6.5-6.5,6.5
				C448.9,538.9,446.2,536,446.2,532.5z M457.3,532.5L457.3,532.5c0-2.7-2-4.9-4.6-4.9c-2.7,0-4.5,2.2-4.5,4.8v0
				c0,2.7,2,4.8,4.6,4.8C455.4,537.3,457.3,535.1,457.3,532.5z"/>
			<path class="st2" d="M462.3,533.9v-7.7h1.8v7.2c0,2.3,1.2,3.7,3.4,3.7c2.1,0,3.7-1.6,3.7-3.9v-7.1h1.8v12.4h-1.8v-2.2
				c-0.8,1.3-2.1,2.4-4.2,2.4C464,538.9,462.3,536.9,462.3,533.9z"/>
			<path class="st2" d="M476.4,526.5c1.2-0.4,1.7-1.1,1.6-2.1h-0.9v-2.5h2.2v2.2c0,1.9-0.8,2.9-2.7,3.3L476.4,526.5z"/>
			<path class="st2" d="M483.3,521.1h1.8v17.5h-1.8V521.1z"/>
			<path class="st2" d="M489.6,521.1h1.8v17.5h-1.8V521.1z"/>
			<path class="st2" d="M504.8,536.3v2.4h-1.8v-17.5h1.8v7.6c1-1.5,2.5-2.8,4.7-2.8c3,0,5.9,2.3,5.9,6.4v0c0,4.1-2.9,6.4-5.9,6.4
				C507.2,538.9,505.7,537.7,504.8,536.3z M513.5,532.5L513.5,532.5c0-3-2-4.8-4.4-4.8c-2.3,0-4.5,1.9-4.5,4.8v0
				c0,2.9,2.2,4.8,4.5,4.8C511.6,537.2,513.5,535.5,513.5,532.5z"/>
			<path class="st2" d="M524.3,537.3c1.7,0,2.9-0.7,3.9-1.8l1.2,1c-1.2,1.4-2.8,2.3-5.1,2.3c-3.4,0-6.2-2.6-6.2-6.5
				c0-3.6,2.5-6.5,5.9-6.5c3.7,0,5.8,2.9,5.8,6.6c0,0.2,0,0.4,0,0.6h-9.8C520.2,535.8,522.1,537.3,524.3,537.3z M527.9,531.7
				c-0.2-2.3-1.5-4.2-4-4.2c-2.1,0-3.8,1.8-4,4.2H527.9z"/>
			<path class="st2" d="M539.3,535L539.3,535c0-2.7,2.2-4.1,5.3-4.1c1.6,0,2.7,0.2,3.8,0.5v-0.4c0-2.2-1.3-3.4-3.7-3.4
				c-1.5,0-2.6,0.4-3.8,0.9l-0.6-1.5c1.4-0.6,2.7-1.1,4.5-1.1c1.8,0,3.1,0.5,4,1.4c0.9,0.9,1.3,2.1,1.3,3.6v7.6h-1.8v-1.8
				c-0.9,1.1-2.3,2.1-4.5,2.1C541.6,538.9,539.3,537.6,539.3,535z M548.4,534.1v-1.2c-0.9-0.3-2.1-0.5-3.6-0.5c-2.3,0-3.6,1-3.6,2.5
				v0c0,1.6,1.4,2.5,3.1,2.5C546.5,537.4,548.4,536.1,548.4,534.1z"/>
			<path class="st2" d="M555.9,536.3v2.4h-1.8v-17.5h1.8v7.6c1-1.5,2.5-2.8,4.7-2.8c3,0,5.9,2.3,5.9,6.4v0c0,4.1-2.9,6.4-5.9,6.4
				C558.4,538.9,556.9,537.7,555.9,536.3z M564.7,532.5L564.7,532.5c0-3-2-4.8-4.4-4.8c-2.3,0-4.5,1.9-4.5,4.8v0
				c0,2.9,2.2,4.8,4.5,4.8C562.8,537.2,564.7,535.5,564.7,532.5z"/>
			<path class="st2" d="M570.2,521.1h1.8v17.5h-1.8V521.1z"/>
			<path class="st2" d="M581.8,537.3c1.7,0,2.9-0.7,3.9-1.8l1.2,1c-1.2,1.4-2.8,2.3-5.1,2.3c-3.4,0-6.2-2.6-6.2-6.5
				c0-3.6,2.5-6.5,5.9-6.5c3.7,0,5.8,2.9,5.8,6.6c0,0.2,0,0.4,0,0.6h-9.8C577.7,535.8,579.6,537.3,581.8,537.3z M585.4,531.7
				c-0.2-2.3-1.5-4.2-4-4.2c-2.1,0-3.8,1.8-4,4.2H585.4z"/>
		</g>
		<g class="st1">
			<path class="st2" d="M598.3,535.4v-7.5h-1.7v-1.6h1.7v-3.7h1.8v3.7h3.9v1.6h-3.9v7.2c0,1.5,0.8,2.1,2.1,2.1
				c0.6,0,1.2-0.1,1.8-0.4v1.6c-0.6,0.3-1.3,0.5-2.2,0.5C599.8,538.9,598.3,537.9,598.3,535.4z"/>
		</g>
		<g class="st1">
			<path class="st2" d="M606.3,532.5L606.3,532.5c0-3.5,2.7-6.5,6.5-6.5c3.7,0,6.4,2.9,6.4,6.4v0c0,3.5-2.8,6.5-6.5,6.5
				C609,538.9,606.3,536,606.3,532.5z M617.3,532.5L617.3,532.5c0-2.7-2-4.9-4.6-4.9c-2.7,0-4.5,2.2-4.5,4.8v0c0,2.7,2,4.8,4.6,4.8
				C615.4,537.3,617.3,535.1,617.3,532.5z"/>
		</g>
		<g class="st1">
			<path class="st3" d="M629.3,525.8h3.6v2.6c0.7-1.8,1.9-2.9,4.1-2.8v3.8h-0.2c-2.4,0-3.9,1.5-3.9,4.5v4.7h-3.6V525.8z"/>
		</g>
		<g class="st1">
			<path class="st3" d="M638.3,532.3L638.3,532.3c0-3.7,2.6-6.7,6.4-6.7c4.3,0,6.3,3.3,6.3,7c0,0.3,0,0.6,0,1h-8.9
				c0.4,1.7,1.5,2.5,3.1,2.5c1.2,0,2.1-0.4,3.1-1.3l2.1,1.8c-1.2,1.5-2.9,2.4-5.2,2.4C641.1,538.9,638.3,536.2,638.3,532.3z
				 M647.4,531.2c-0.2-1.6-1.2-2.7-2.7-2.7c-1.5,0-2.5,1.1-2.8,2.7H647.4z"/>
			<path class="st3" d="M653,532.2L653,532.2c0-4.3,2.8-6.7,5.8-6.7c1.9,0,3.1,0.9,4,1.9v-6.3h3.6v17.5h-3.6v-1.8
				c-0.9,1.2-2.1,2.1-4,2.1C655.9,538.9,653,536.5,653,532.2z M662.9,532.2L662.9,532.2c0-2.2-1.4-3.6-3.1-3.6
				c-1.7,0-3.1,1.4-3.1,3.5v0c0,2.1,1.4,3.5,3.1,3.5C661.5,535.8,662.9,534.4,662.9,532.2z"/>
			<path class="st3" d="M669.2,532.3L669.2,532.3c0-3.7,2.6-6.7,6.4-6.7c4.3,0,6.3,3.3,6.3,7c0,0.3,0,0.6,0,1h-8.9
				c0.4,1.7,1.5,2.5,3.1,2.5c1.2,0,2.1-0.4,3.1-1.3l2.1,1.8c-1.2,1.5-2.9,2.4-5.2,2.4C672,538.9,669.2,536.2,669.2,532.3z
				 M678.2,531.2c-0.2-1.6-1.2-2.7-2.7-2.7c-1.5,0-2.5,1.1-2.8,2.7H678.2z"/>
			<path class="st3" d="M683.9,532.3L683.9,532.3c0-3.7,2.6-6.7,6.4-6.7c4.3,0,6.3,3.3,6.3,7c0,0.3,0,0.6,0,1h-8.9
				c0.4,1.7,1.5,2.5,3.1,2.5c1.2,0,2.1-0.4,3.1-1.3l2.1,1.8c-1.2,1.5-2.9,2.4-5.2,2.4C686.7,538.9,683.9,536.2,683.9,532.3z
				 M692.9,531.2c-0.2-1.6-1.2-2.7-2.7-2.7c-1.5,0-2.5,1.1-2.8,2.7H692.9z"/>
			<path class="st3" d="M699.2,525.8h3.6v1.8c0.8-1.1,1.9-2.1,3.8-2.1c1.7,0,2.9,0.7,3.6,2c1.1-1.3,2.5-2,4.2-2
				c2.7,0,4.3,1.6,4.3,4.7v8.4h-3.6v-7.2c0-1.7-0.8-2.6-2.1-2.6c-1.4,0-2.2,0.9-2.2,2.6v7.2h-3.6v-7.2c0-1.7-0.8-2.6-2.1-2.6
				c-1.4,0-2.2,0.9-2.2,2.6v7.2h-3.6V525.8z"/>
		</g>
		<g class="st1">
			<path class="st3" d="M729.8,528.9h-1.5v-3h1.5v-0.8c0-1.4,0.4-2.4,1-3.1s1.7-1,2.9-1c1.2,0,1.9,0.1,2.6,0.4v3
				c-0.5-0.2-1-0.3-1.7-0.3c-0.8,0-1.3,0.4-1.3,1.4v0.5h2.9v3h-2.9v9.7h-3.6V528.9z"/>
		</g>
		<g class="st1">
			<path class="st3" d="M737.4,532.3L737.4,532.3c0-3.7,3-6.7,7-6.7c4,0,6.9,2.9,6.9,6.6v0c0,3.7-3,6.7-7,6.7
				C740.4,538.9,737.4,536,737.4,532.3z M747.7,532.3L747.7,532.3c0-1.9-1.4-3.6-3.4-3.6c-2.1,0-3.3,1.6-3.3,3.5v0
				c0,1.9,1.4,3.5,3.4,3.5C746.5,535.8,747.7,534.2,747.7,532.3z"/>
			<path class="st3" d="M754,525.8h3.6v2.6c0.7-1.8,1.9-2.9,4.1-2.8v3.8h-0.2c-2.4,0-3.9,1.5-3.9,4.5v4.7H754V525.8z"/>
			<path class="st3" d="M773.8,525.5l-2.9,0.7l-0.8-3l4.8-1.4h2.5v16.9h-3.6V525.5z"/>
			<path class="st3" d="M788.5,525.8h3.6v1.8c0.8-1.1,1.9-2.1,3.8-2.1c1.7,0,2.9,0.7,3.6,2c1.1-1.3,2.5-2,4.2-2
				c2.7,0,4.3,1.6,4.3,4.7v8.4h-3.6v-7.2c0-1.7-0.8-2.6-2.1-2.6s-2.2,0.9-2.2,2.6v7.2h-3.6v-7.2c0-1.7-0.8-2.6-2.1-2.6
				s-2.2,0.9-2.2,2.6v7.2h-3.6V525.8z"/>
			<path class="st3" d="M810.6,532.3L810.6,532.3c0-3.7,3-6.7,7-6.7c4,0,6.9,2.9,6.9,6.6v0c0,3.7-3,6.7-7,6.7
				C813.6,538.9,810.6,536,810.6,532.3z M820.9,532.3L820.9,532.3c0-1.9-1.4-3.6-3.4-3.6c-2.1,0-3.3,1.6-3.3,3.5v0
				c0,1.9,1.4,3.5,3.4,3.5C819.7,535.8,820.9,534.2,820.9,532.3z"/>
			<path class="st3" d="M827.2,525.8h3.6v1.8c0.8-1.1,1.9-2.1,3.8-2.1c2.8,0,4.4,1.8,4.4,4.8v8.3h-3.6v-7.2c0-1.7-0.8-2.6-2.2-2.6
				c-1.4,0-2.3,0.9-2.3,2.6v7.2h-3.6V525.8z"/>
			<path class="st3" d="M842.7,535v-6.1h-1.5v-3.1h1.5v-3.3h3.6v3.3h3v3.1h-3v5.5c0,0.8,0.4,1.2,1.2,1.2c0.7,0,1.3-0.2,1.8-0.5v2.9
				c-0.8,0.5-1.7,0.7-2.9,0.7C844.2,538.9,842.7,538,842.7,535z"/>
			<path class="st3" d="M852.1,521.1h3.6v6.5c0.8-1.1,1.9-2.1,3.8-2.1c2.8,0,4.4,1.8,4.4,4.8v8.3h-3.6v-7.2c0-1.7-0.8-2.6-2.2-2.6
				s-2.3,0.9-2.3,2.6v7.2h-3.6V521.1z"/>
			<path class="st3" d="M873.2,536.9l1.6-2.4c1.4,1,2.9,1.5,4.1,1.5c1.1,0,1.5-0.4,1.5-1v0c0-0.8-1.2-1.1-2.7-1.5
				c-1.8-0.5-3.8-1.4-3.8-3.9v0c0-2.6,2.1-4.1,4.7-4.1c1.6,0,3.4,0.6,4.8,1.5l-1.4,2.5c-1.3-0.7-2.5-1.2-3.5-1.2
				c-0.9,0-1.3,0.4-1.3,0.9v0c0,0.7,1.2,1.1,2.6,1.5c1.8,0.6,3.9,1.5,3.9,3.8v0c0,2.9-2.1,4.1-4.9,4.1
				C876.9,538.9,874.9,538.3,873.2,536.9z"/>
			<path class="st3" d="M886.1,534.1v-8.3h3.6v7.2c0,1.7,0.8,2.6,2.2,2.6s2.3-0.9,2.3-2.6v-7.2h3.6v12.8h-3.6v-1.8
				c-0.8,1.1-1.9,2.1-3.8,2.1C887.7,538.9,886.1,537.1,886.1,534.1z"/>
			<path class="st3" d="M904.8,537v1.7h-3.6v-17.5h3.6v6.5c0.9-1.2,2.1-2.1,4-2.1c3,0,5.8,2.3,5.8,6.6v0c0,4.3-2.8,6.6-5.8,6.6
				C906.9,538.9,905.7,538,904.8,537z M911,532.2L911,532.2c0-2.2-1.4-3.6-3.1-3.6c-1.7,0-3.1,1.4-3.1,3.5v0c0,2.1,1.4,3.5,3.1,3.5
				C909.6,535.8,911,534.4,911,532.2z"/>
			<path class="st3" d="M916.3,536.9l1.6-2.4c1.4,1,2.9,1.5,4.1,1.5c1.1,0,1.5-0.4,1.5-1v0c0-0.8-1.2-1.1-2.7-1.5
				c-1.8-0.5-3.8-1.4-3.8-3.9v0c0-2.6,2.1-4.1,4.7-4.1c1.6,0,3.4,0.6,4.8,1.5l-1.4,2.5c-1.3-0.7-2.5-1.2-3.5-1.2
				c-0.9,0-1.3,0.4-1.3,0.9v0c0,0.7,1.2,1.1,2.6,1.5c1.8,0.6,3.9,1.5,3.9,3.8v0c0,2.9-2.1,4.1-4.9,4.1
				C920,538.9,918,538.3,916.3,536.9z"/>
			<path class="st3" d="M928.7,532.3L928.7,532.3c0-3.7,2.8-6.7,6.7-6.7c2.4,0,3.9,0.8,5.1,2.2l-2.2,2.4c-0.8-0.9-1.6-1.4-2.9-1.4
				c-1.8,0-3.1,1.6-3.1,3.5v0c0,2,1.3,3.5,3.3,3.5c1.2,0,2.1-0.5,2.9-1.4l2.1,2.2c-1.2,1.4-2.7,2.3-5.2,2.3
				C931.6,538.9,928.7,536,928.7,532.3z"/>
			<path class="st3" d="M943,525.8h3.6v2.6c0.7-1.8,1.9-2.9,4.1-2.8v3.8h-0.2c-2.4,0-3.9,1.5-3.9,4.5v4.7H943V525.8z"/>
			<path class="st3" d="M953.1,521.1h3.8v3.2h-3.8V521.1z M953.2,525.8h3.6v12.8h-3.6V525.8z"/>
			<path class="st3" d="M960.3,525.8h3.6v1.8c0.9-1.2,2.1-2.1,4-2.1c3,0,5.8,2.3,5.8,6.6v0c0,4.3-2.8,6.6-5.8,6.6
				c-1.9,0-3.1-0.9-4-1.9v5.5h-3.6V525.8z M970.2,532.2L970.2,532.2c0-2.2-1.4-3.6-3.1-3.6s-3.1,1.4-3.1,3.5v0
				c0,2.1,1.4,3.5,3.1,3.5S970.2,534.4,970.2,532.2z"/>
			<path class="st3" d="M977.1,535v-6.1h-1.5v-3.1h1.5v-3.3h3.6v3.3h3v3.1h-3v5.5c0,0.8,0.4,1.2,1.2,1.2c0.7,0,1.3-0.2,1.8-0.5v2.9
				c-0.8,0.5-1.7,0.7-2.9,0.7C978.6,538.9,977.1,538,977.1,535z"/>
			<path class="st3" d="M986.5,521.1h3.8v3.2h-3.8V521.1z M986.6,525.8h3.6v12.8h-3.6V525.8z"/>
			<path class="st3" d="M993,532.3L993,532.3c0-3.7,3-6.7,7-6.7c4,0,6.9,2.9,6.9,6.6v0c0,3.7-3,6.7-7,6.7
				C996,538.9,993,536,993,532.3z M1003.4,532.3L1003.4,532.3c0-1.9-1.4-3.6-3.4-3.6c-2.1,0-3.3,1.6-3.3,3.5v0
				c0,1.9,1.4,3.5,3.4,3.5C1002.1,535.8,1003.4,534.2,1003.4,532.3z"/>
			<path class="st3" d="M1009.6,525.8h3.6v1.8c0.8-1.1,1.9-2.1,3.8-2.1c2.8,0,4.4,1.8,4.4,4.8v8.3h-3.6v-7.2c0-1.7-0.8-2.6-2.2-2.6
				c-1.4,0-2.3,0.9-2.3,2.6v7.2h-3.6V525.8z"/>
			<path class="st3" d="M1024.6,522.3v-0.5h4.3v0.5l-1.1,10.6h-2L1024.6,522.3z M1024.8,534.8h3.9v3.8h-3.9V534.8z"/>
		</g>
		<g class="st1">
			<path class="st2" d="M500.3,32.7h9c2.5,0,4.4,0.7,5.7,2c1.1,1.1,1.7,2.6,1.7,4.5v0.1c0,3.2-1.7,5.2-4.2,6.1l4.8,7h-5L508,46h-3.4
				v6.3h-4.3V32.7z M509,42.2c2.1,0,3.3-1.1,3.3-2.8v-0.1c0-1.8-1.3-2.8-3.4-2.8h-4.3v5.6H509z"/>
		</g>
		<g class="st1">
			<path class="st2" d="M519.1,44.9L519.1,44.9c0-4.3,3.1-7.9,7.4-7.9c5,0,7.3,3.9,7.3,8.1c0,0.3,0,0.7-0.1,1.1h-10.4
				c0.4,1.9,1.8,2.9,3.7,2.9c1.4,0,2.5-0.4,3.6-1.5l2.4,2.2c-1.4,1.7-3.4,2.8-6.1,2.8C522.4,52.6,519.1,49.5,519.1,44.9z
				 M529.7,43.6c-0.3-1.9-1.4-3.2-3.2-3.2c-1.8,0-2.9,1.3-3.2,3.2H529.7z"/>
		</g>
		<g class="st1">
			<path class="st2" d="M537.5,40.9h-1.8v-3.5h1.8v-1c0-1.7,0.4-2.9,1.2-3.6s1.9-1.2,3.4-1.2c1.3,0,2.2,0.2,3,0.4v3.5
				c-0.6-0.2-1.2-0.4-1.9-0.4c-1,0-1.5,0.5-1.5,1.6v0.6h3.4v3.5h-3.4v11.4h-4.3V40.9z"/>
		</g>
		<g class="st1">
			<path class="st2" d="M546.3,44.9L546.3,44.9c0-4.3,3.1-7.9,7.4-7.9c5,0,7.3,3.9,7.3,8.1c0,0.3,0,0.7-0.1,1.1h-10.4
				c0.4,1.9,1.8,2.9,3.7,2.9c1.4,0,2.5-0.4,3.6-1.5l2.4,2.2c-1.4,1.7-3.4,2.8-6.1,2.8C549.6,52.6,546.3,49.5,546.3,44.9z
				 M556.9,43.6c-0.3-1.9-1.4-3.2-3.2-3.2c-1.8,0-2.9,1.3-3.2,3.2H556.9z"/>
			<path class="st2" d="M564.2,37.3h4.3v3c0.9-2.1,2.3-3.4,4.8-3.3v4.5H573c-2.8,0-4.6,1.7-4.6,5.3v5.5h-4.3V37.3z"/>
		</g>
		<g class="st1">
			<path class="st2" d="M575.5,37.3h4.3v3c0.9-2.1,2.3-3.4,4.8-3.3v4.5h-0.2c-2.8,0-4.6,1.7-4.6,5.3v5.5h-4.3V37.3z"/>
		</g>
		<g class="st1">
			<path class="st2" d="M585.4,48L585.4,48c0-3.3,2.5-4.8,6-4.8c1.5,0,2.6,0.3,3.7,0.6v-0.3c0-1.8-1.1-2.7-3.2-2.7
				c-1.6,0-2.8,0.3-4.1,0.8l-1.1-3.2c1.7-0.7,3.3-1.2,5.8-1.2c2.3,0,4,0.6,5.1,1.7c1.1,1.1,1.6,2.8,1.6,4.8v8.7h-4.1v-1.6
				c-1,1.1-2.5,1.9-4.5,1.9C587.8,52.6,585.4,51,585.4,48z M595.2,47v-0.8c-0.7-0.3-1.7-0.6-2.7-0.6c-1.8,0-2.9,0.7-2.9,2.1v0.1
				c0,1.1,1,1.8,2.3,1.8C593.9,49.6,595.2,48.5,595.2,47z"/>
			<path class="st2" d="M603.1,31.9h4.3v20.4h-4.3V31.9z"/>
			<path class="st2" d="M620.2,32.7h9.1c2.2,0,4,0.6,5.1,1.7c0.9,0.9,1.3,2,1.3,3.3v0.1c0,2.2-1.2,3.4-2.6,4.2
				c2.3,0.9,3.7,2.2,3.7,4.8v0.1c0,3.6-2.9,5.4-7.3,5.4h-9.3V32.7z M628.4,40.6c1.9,0,3.1-0.6,3.1-2.1v-0.1c0-1.3-1-2-2.8-2h-4.3
				v4.1H628.4z M629.5,48.5c1.9,0,3.1-0.7,3.1-2.1v-0.1c0-1.3-1-2.1-3.2-2.1h-5v4.3H629.5z"/>
			<path class="st2" d="M639.3,44.9L639.3,44.9c0-4.4,3.5-7.9,8.1-7.9c4.6,0,8.1,3.4,8.1,7.8v0.1c0,4.3-3.5,7.8-8.1,7.8
				C642.7,52.6,639.3,49.2,639.3,44.9z M651.3,44.9L651.3,44.9c0-2.3-1.6-4.2-3.9-4.2c-2.4,0-3.9,1.9-3.9,4.1v0.1
				c0,2.2,1.6,4.1,3.9,4.1C649.8,49,651.3,47.1,651.3,44.9z"/>
			<path class="st2" d="M658.6,37.3h4.3v2.1c1-1.3,2.2-2.4,4.4-2.4c3.2,0,5.1,2.1,5.1,5.6v9.7h-4.3v-8.4c0-2-1-3.1-2.6-3.1
				s-2.7,1-2.7,3.1v8.4h-4.3V37.3z"/>
			<path class="st2" d="M675.9,47v-9.7h4.3v8.4c0,2,1,3.1,2.6,3.1s2.7-1,2.7-3.1v-8.4h4.3v15h-4.3v-2.1c-1,1.3-2.2,2.4-4.4,2.4
				C677.8,52.6,675.9,50.5,675.9,47z"/>
			<path class="st2" d="M692.3,50.3l1.8-2.8c1.6,1.2,3.3,1.8,4.7,1.8c1.2,0,1.8-0.4,1.8-1.1v-0.1c0-0.9-1.5-1.2-3.1-1.7
				c-2.1-0.6-4.5-1.6-4.5-4.5v-0.1c0-3.1,2.5-4.8,5.5-4.8c1.9,0,4,0.6,5.6,1.7l-1.6,2.9c-1.5-0.9-3-1.4-4.1-1.4c-1,0-1.6,0.4-1.6,1
				v0.1c0,0.8,1.4,1.2,3.1,1.8c2.1,0.7,4.5,1.7,4.5,4.5v0.1c0,3.3-2.5,4.8-5.7,4.8C696.6,52.6,694.3,51.9,692.3,50.3z"/>
		</g>
		<g class="st1">
			<path class="st2" d="M890.1,32.7h9.1c2.2,0,4,0.6,5.1,1.7c0.9,0.9,1.3,2,1.3,3.3v0.1c0,2.2-1.2,3.4-2.6,4.2
				c2.3,0.9,3.7,2.2,3.7,4.8v0.1c0,3.6-2.9,5.4-7.3,5.4h-9.3V32.7z M898.2,40.6c1.9,0,3.1-0.6,3.1-2.1v-0.1c0-1.3-1-2-2.8-2h-4.3
				v4.1H898.2z M899.4,48.5c1.9,0,3.1-0.7,3.1-2.1v-0.1c0-1.3-1-2.1-3.2-2.1h-5v4.3H899.4z"/>
			<path class="st2" d="M908.9,48L908.9,48c0-3.3,2.5-4.8,6-4.8c1.5,0,2.6,0.3,3.7,0.6v-0.3c0-1.8-1.1-2.7-3.2-2.7
				c-1.6,0-2.8,0.3-4.1,0.8l-1.1-3.2c1.7-0.7,3.3-1.2,5.8-1.2c2.3,0,4,0.6,5.1,1.7c1.1,1.1,1.6,2.8,1.6,4.8v8.7h-4.1v-1.6
				c-1,1.1-2.5,1.9-4.5,1.9C911.2,52.6,908.9,51,908.9,48z M918.7,47v-0.8c-0.7-0.3-1.7-0.6-2.7-0.6c-1.8,0-2.9,0.7-2.9,2.1v0.1
				c0,1.1,1,1.8,2.3,1.8C917.4,49.6,918.7,48.5,918.7,47z"/>
			<path class="st2" d="M926.6,31.9h4.3v20.4h-4.3V31.9z"/>
			<path class="st2" d="M934,48L934,48c0-3.3,2.5-4.8,6-4.8c1.5,0,2.6,0.3,3.7,0.6v-0.3c0-1.8-1.1-2.7-3.2-2.7
				c-1.6,0-2.8,0.3-4.1,0.8l-1.1-3.2c1.7-0.7,3.3-1.2,5.8-1.2c2.3,0,4,0.6,5.1,1.7c1.1,1.1,1.6,2.8,1.6,4.8v8.7h-4.1v-1.6
				c-1,1.1-2.5,1.9-4.5,1.9C936.3,52.6,934,51,934,48z M943.7,47v-0.8c-0.7-0.3-1.7-0.6-2.7-0.6c-1.8,0-2.9,0.7-2.9,2.1v0.1
				c0,1.1,1,1.8,2.3,1.8C942.4,49.6,943.7,48.5,943.7,47z"/>
			<path class="st2" d="M951.4,37.3h4.3v2.1c1-1.3,2.2-2.4,4.4-2.4c3.2,0,5.1,2.1,5.1,5.6v9.7h-4.3v-8.4c0-2-1-3.1-2.6-3.1
				s-2.7,1-2.7,3.1v8.4h-4.3V37.3z"/>
		</g>
		<g class="st1">
			<path class="st2" d="M967.3,44.9L967.3,44.9c0-4.3,3.3-7.9,7.9-7.9c2.8,0,4.6,1,6,2.5l-2.6,2.8c-1-1-1.9-1.7-3.4-1.7
				c-2.1,0-3.6,1.9-3.6,4.1v0.1c0,2.3,1.5,4.1,3.8,4.1c1.4,0,2.4-0.6,3.4-1.6l2.5,2.5c-1.5,1.6-3.1,2.7-6.1,2.7
				C970.6,52.6,967.3,49.2,967.3,44.9z"/>
		</g>
		<g class="st1">
			<path class="st2" d="M982.9,44.9L982.9,44.9c0-4.3,3.1-7.9,7.4-7.9c5,0,7.3,3.9,7.3,8.1c0,0.3,0,0.7-0.1,1.1h-10.4
				c0.4,1.9,1.8,2.9,3.7,2.9c1.4,0,2.5-0.4,3.6-1.5l2.4,2.2c-1.4,1.7-3.4,2.8-6.1,2.8C986.2,52.6,982.9,49.5,982.9,44.9z
				 M993.5,43.6c-0.3-1.9-1.4-3.2-3.2-3.2c-1.8,0-2.9,1.3-3.2,3.2H993.5z"/>
		</g>
		<g class="st1">
			<path class="st2" d="M642.3,456.5h-6v-4h16.2v4h-6v15.6h-4.3V456.5z"/>
		</g>
		<g class="st1">
			<path class="st2" d="M651.5,464.7L651.5,464.7c0-4.4,3.5-7.9,8.1-7.9c4.6,0,8.1,3.4,8.1,7.8v0.1c0,4.3-3.5,7.8-8.1,7.8
				C654.9,472.4,651.5,469,651.5,464.7z M663.5,464.7L663.5,464.7c0-2.3-1.6-4.2-3.9-4.2c-2.4,0-3.9,1.9-3.9,4.1v0.1
				c0,2.2,1.6,4.1,3.9,4.1C662.1,468.7,663.5,466.9,663.5,464.7z"/>
			<path class="st2" d="M671.5,467.8v-7.1h-1.8v-3.6h1.8v-3.8h4.3v3.8h3.5v3.6h-3.5v6.4c0,1,0.4,1.5,1.4,1.5c0.8,0,1.5-0.2,2.1-0.5
				v3.4c-0.9,0.5-1.9,0.9-3.4,0.9C673.3,472.3,671.5,471.3,671.5,467.8z"/>
			<path class="st2" d="M681.5,467.8L681.5,467.8c0-3.3,2.5-4.8,6-4.8c1.5,0,2.6,0.3,3.7,0.6v-0.3c0-1.8-1.1-2.7-3.2-2.7
				c-1.6,0-2.8,0.3-4.1,0.8l-1.1-3.2c1.7-0.7,3.3-1.2,5.8-1.2c2.3,0,4,0.6,5.1,1.7c1.1,1.1,1.6,2.8,1.6,4.8v8.7h-4.1v-1.6
				c-1,1.1-2.5,1.9-4.5,1.9C683.8,472.4,681.5,470.7,681.5,467.8z M691.3,466.8V466c-0.7-0.3-1.7-0.6-2.7-0.6
				c-1.8,0-2.9,0.7-2.9,2.1v0.1c0,1.1,1,1.8,2.3,1.8C689.9,469.4,691.3,468.3,691.3,466.8z"/>
			<path class="st2" d="M699.2,451.6h4.3v20.4h-4.3V451.6z"/>
		</g>
		<g class="st1">
			<path class="st3" d="M886.9,474c-2.8-0.4-5.4-1.4-7.6-3l2.5-3.6c1.7,1.3,3.3,2.2,5.2,2.6v-5.1c-4.6-1.2-6.9-3-6.9-6.8V458
				c0-3.5,2.7-5.9,6.7-6.3v-1.9h3.3v2c2.3,0.3,4.2,1.1,6,2.3l-2.1,3.7c-1.3-0.9-2.7-1.5-4-1.9v4.9c4.9,1.3,6.9,3.3,6.9,6.8v0.1
				c0,3.6-2.8,5.9-6.8,6.3v3.2h-3.3V474z M887.1,460v-4.4c-1.6,0.2-2.2,1-2.2,2v0.1C884.9,458.8,885.3,459.4,887.1,460z
				 M890.1,465.6v4.5c1.5-0.2,2.3-0.9,2.3-2v-0.1C892.4,466.9,891.8,466.2,890.1,465.6z"/>
			<path class="st3" d="M911.4,469.2h-10.9l-0.8-3.5l12.3-14.2h4.2v13.7h3v4h-3v4.8h-4.7V469.2z M911.4,465.2v-7l-6,7H911.4z"/>
		</g>
		<g class="st1">
			<path class="st3" d="M922.4,462.9L922.4,462.9c0-6.6,4-11.6,10-11.6c5.9,0,9.9,5,9.9,11.5v0.1c0,6.5-4,11.6-10,11.6
				S922.4,469.4,922.4,462.9z M937.3,462.9L937.3,462.9c0-4.1-2-7.2-4.9-7.2c-2.9,0-4.9,3-4.9,7.1v0.1c0,4.1,2,7.1,4.9,7.1
				C935.4,470,937.3,467,937.3,462.9z"/>
			<path class="st3" d="M944.7,469h5.2v5.1h-5.2V469z"/>
		</g>
		<g class="st1">
			<path class="st3" d="M953.6,462.9L953.6,462.9c0-6.6,4-11.6,10-11.6c5.9,0,9.9,5,9.9,11.5v0.1c0,6.5-4,11.6-10,11.6
				C957.6,474.5,953.6,469.4,953.6,462.9z M968.5,462.9L968.5,462.9c0-4.1-2-7.2-4.9-7.2c-2.9,0-4.9,3-4.9,7.1v0.1
				c0,4.1,2,7.1,4.9,7.1S968.5,467,968.5,462.9z"/>
			<path class="st3" d="M977,462.9L977,462.9c0-6.6,4-11.6,10-11.6c5.9,0,9.9,5,9.9,11.5v0.1c0,6.5-4,11.6-10,11.6
				S977,469.4,977,462.9z M991.8,462.9L991.8,462.9c0-4.1-2-7.2-4.9-7.2s-4.9,3-4.9,7.1v0.1c0,4.1,2,7.1,4.9,7.1
				C990,470,991.8,467,991.8,462.9z"/>
		</g>
		<line class="st4" x1="730.5" y1="0.5" x2="730.5" y2="501.8"/>
		<path class="st5" d="M23.5,78.6h1007.1l0,0v347.5l0,0H28.2c-15.3,0-27.7-12.4-27.7-27.6V101.7C0.5,88.9,10.8,78.7,23.5,78.6
			L23.5,78.6L23.5,78.6z"/>
		<g class="st1">
			<path class="st3" d="M75.2,127.2h7.1c2.9,0,4.9,0.6,6.2,2c1,1,1.5,2.4,1.5,3.9c0,1.9-0.6,3.5-1.8,4.6c-1.1,1.1-2.6,1.9-4.5,2.4
				l3.3,6.7h-4.9l-3-6.3H76l-1.7,6.3H70L75.2,127.2z M80.8,136.7c1.7,0,3.1-0.4,3.9-1.3c0.5-0.5,0.8-1.2,0.8-2
				c0-0.7-0.2-1.1-0.6-1.6c-0.5-0.5-1.5-0.8-2.9-0.8h-3.6l-1.5,5.6H80.8z"/>
			<path class="st3" d="M95.1,140.8c0.1,1.8,1.2,2.9,3.4,2.9c1.1,0,2.1-0.3,3.3-1.2l2,2.6c-1.3,1.1-3.2,2-5.8,2
				c-4.3,0-6.9-2.5-6.9-6.7c0-4.3,3.5-9,8.9-9c3.9,0,6.1,2.5,6.1,5.9c0,1.1-0.3,2.3-0.8,3.4H95.1z M95.5,138.1h6.5
				c0.1-0.3,0.1-0.6,0.1-1c0-1.2-0.7-2.2-2.5-2.2C97.8,134.9,96.2,136.2,95.5,138.1z"/>
		</g>
		<g class="st1">
			<path class="st3" d="M109.9,135.4h-1.8l1-3.6h1.8l0.2-0.8c0.9-3.3,2.9-4.8,6.1-4.8c1.2,0,2.2,0.2,2.9,0.4l-0.9,3.5
				c-0.6-0.2-1.3-0.4-1.8-0.4c-1.1,0-1.8,0.5-2.1,1.6l-0.1,0.4h3.6l-1,3.6h-3.5l-3.1,11.4h-4.3L109.9,135.4z"/>
		</g>
		<g class="st1">
			<path class="st3" d="M121.6,140.8c0.1,1.8,1.2,2.9,3.4,2.9c1.1,0,2.1-0.3,3.3-1.2l2,2.6c-1.3,1.1-3.2,2-5.8,2
				c-4.3,0-6.9-2.5-6.9-6.7c0-4.3,3.5-9,8.9-9c3.9,0,6.1,2.5,6.1,5.9c0,1.1-0.3,2.3-0.8,3.4H121.6z M121.9,138.1h6.5
				c0.1-0.3,0.1-0.6,0.1-1c0-1.2-0.7-2.2-2.5-2.2C124.2,134.9,122.6,136.2,121.9,138.1z"/>
			<path class="st3" d="M137.3,131.8h4.3l-0.8,3c1.5-2.2,3.2-3.5,5.7-3.3l-1.2,4.5h-0.2c-2.8,0-5,1.6-6,5.5l-1.4,5.3h-4.3
				L137.3,131.8z"/>
		</g>
		<g class="st1">
			<path class="st3" d="M148.1,131.8h4.3l-0.8,3c1.5-2.2,3.2-3.5,5.7-3.3l-1.2,4.5h-0.2c-2.8,0-5,1.6-6,5.5l-1.4,5.3h-4.3
				L148.1,131.8z"/>
		</g>
		<g class="st1">
			<path class="st3" d="M160.4,140.8c0.1,1.8,1.2,2.9,3.4,2.9c1.1,0,2.1-0.3,3.3-1.2l2,2.6c-1.3,1.1-3.2,2-5.8,2
				c-4.3,0-6.9-2.5-6.9-6.7c0-4.3,3.5-9,8.9-9c3.9,0,6.1,2.5,6.1,5.9c0,1.1-0.3,2.3-0.8,3.4H160.4z M160.8,138.1h6.5
				c0.1-0.3,0.1-0.6,0.1-1c0-1.2-0.7-2.2-2.5-2.2C163.1,134.9,161.5,136.2,160.8,138.1z"/>
			<path class="st3" d="M173.4,140.6c0-5.3,4.1-9.1,8.3-9.1c2.4,0,3.7,1,4.7,2.5l2-7.6h4.3l-5.5,20.4H183l0.4-1.6
				c-1.3,1.2-2.5,1.9-4.2,1.9C175.9,147.1,173.4,144.7,173.4,140.6z M185.5,138.3c0-1.9-1.3-3.2-3.2-3.2c-2.3,0-4.5,2.2-4.5,5.3
				c0,2,1.2,3.1,3.1,3.1C183.3,143.5,185.5,141.1,185.5,138.3z"/>
			<path class="st3" d="M206.3,131.6l-3.6,0.8l-0.1-3.7l6.2-1.7h2.9l-5.3,19.7h-4.3L206.3,131.6z"/>
		</g>
		<g class="st1">
			<path class="st3" d="M208.1,144.4l2.5-2.5c1.6,1.6,3.2,2,4.6,2c1.1,0,1.8-0.5,1.8-1.3c0-0.6-0.7-1-1.7-1.4c-2.4-1-4.4-2-4.4-4.4
				c0-3,2.3-5.3,6-5.3c2.4,0,4.7,1.1,5.9,2.2l-2.3,2.7c-1.5-1.1-2.7-1.6-3.9-1.6c-1,0-1.7,0.5-1.7,1.3c0,0.6,0.7,1,2,1.6
				c2,0.9,4.1,1.9,4.1,4.3c0,3.3-2.6,5.3-6.2,5.3C212.5,147.1,209.8,146.3,208.1,144.4z"/>
		</g>
		<g class="st1">
			<path class="st3" d="M223.9,144.1c0-0.6,0.1-1.2,0.3-1.9l1.8-6.8h-1.8l1-3.6h1.8l1-3.8h4.3l-1,3.8h3.5l-1,3.6h-3.5l-1.7,6.3
				c-0.1,0.2-0.1,0.5-0.1,0.7c0,0.6,0.4,0.9,1.1,0.9c0.7,0,1.5-0.2,2.2-0.5l-1,3.6c-0.8,0.4-1.9,0.6-3.1,0.6
				C225.1,147,223.9,145.8,223.9,144.1z"/>
			<path class="st3" d="M246.1,135.4h-1.8l1-3.6h1.8l0.2-0.8c0.9-3.3,2.9-4.8,6.1-4.8c1.2,0,2.2,0.2,2.9,0.4l-0.9,3.5
				c-0.6-0.2-1.3-0.4-1.8-0.4c-1.1,0-1.8,0.5-2.1,1.6l-0.1,0.4h3.6l-1,3.6h-3.5l-3.1,11.4H243L246.1,135.4z"/>
			<path class="st3" d="M257.8,131.8h4.3l-0.8,3c1.5-2.2,3.2-3.5,5.7-3.3l-1.2,4.5h-0.2c-2.8,0-5,1.6-6,5.5l-1.4,5.3h-4.3
				L257.8,131.8z"/>
			<path class="st3" d="M269.7,131.8h4.3l-4,15h-4.3L269.7,131.8z M271.1,126.4h4.5l-1,3.8h-4.5L271.1,126.4z"/>
			<path class="st3" d="M279.2,140.8c0.1,1.8,1.2,2.9,3.4,2.9c1.1,0,2.1-0.3,3.3-1.2l2,2.6c-1.3,1.1-3.2,2-5.8,2
				c-4.3,0-6.9-2.5-6.9-6.7c0-4.3,3.5-9,8.9-9c3.9,0,6.1,2.5,6.1,5.9c0,1.1-0.3,2.3-0.8,3.4H279.2z M279.6,138.1h6.5
				c0.1-0.3,0.1-0.6,0.1-1c0-1.2-0.7-2.2-2.5-2.2C281.8,134.9,280.3,136.2,279.6,138.1z"/>
			<path class="st3" d="M295,131.8h4.3l-0.4,1.6c1.1-1,2.4-1.8,4.1-1.8c2.7,0,4.4,1.7,4.4,4.4c0,0.8-0.3,1.9-0.5,2.9l-2.2,8.1h-4.3
				l2.2-8.2c0.1-0.4,0.2-1,0.2-1.3c0-1.2-0.8-1.8-2.1-1.8c-1.7,0-2.8,1.2-3.2,3l-2.3,8.4H291L295,131.8z"/>
			<path class="st3" d="M309.5,140.6c0-5.3,4.1-9.1,8.3-9.1c2.4,0,3.7,1,4.7,2.5l2-7.6h4.3l-5.5,20.4h-4.3l0.4-1.6
				c-1.3,1.2-2.5,1.9-4.2,1.9C312,147.1,309.5,144.7,309.5,140.6z M321.6,138.3c0-1.9-1.3-3.2-3.2-3.2c-2.3,0-4.5,2.2-4.5,5.3
				c0,2,1.2,3.1,3.1,3.1C319.4,143.5,321.6,141.1,321.6,138.3z"/>
		</g>
		<g class="st1">
			<path class="st3" d="M75.2,204.8h7.1c2.9,0,4.9,0.6,6.2,2c1,1,1.5,2.4,1.5,3.9c0,1.9-0.6,3.5-1.8,4.6c-1.1,1.1-2.6,1.9-4.5,2.4
				l3.3,6.7h-4.9l-3-6.3H76l-1.7,6.3H70L75.2,204.8z M80.8,214.4c1.7,0,3.1-0.4,3.9-1.3c0.5-0.5,0.8-1.2,0.8-2
				c0-0.7-0.2-1.1-0.6-1.6c-0.5-0.5-1.5-0.8-2.9-0.8h-3.6l-1.5,5.6H80.8z"/>
			<path class="st3" d="M95.1,218.4c0.1,1.8,1.2,2.9,3.4,2.9c1.1,0,2.1-0.3,3.3-1.2l2,2.6c-1.3,1.1-3.2,2-5.8,2
				c-4.3,0-6.9-2.5-6.9-6.7c0-4.3,3.5-9,8.9-9c3.9,0,6.1,2.5,6.1,5.9c0,1.1-0.3,2.3-0.8,3.4H95.1z M95.5,215.8h6.5
				c0.1-0.3,0.1-0.6,0.1-1c0-1.2-0.7-2.2-2.5-2.2C97.8,212.6,96.2,213.8,95.5,215.8z"/>
		</g>
		<g class="st1">
			<path class="st3" d="M109.9,213.1h-1.8l1-3.6h1.8l0.2-0.8c0.9-3.3,2.9-4.8,6.1-4.8c1.2,0,2.2,0.2,2.9,0.4l-0.9,3.5
				c-0.6-0.2-1.3-0.4-1.8-0.4c-1.1,0-1.8,0.5-2.1,1.6l-0.1,0.4h3.6l-1,3.6h-3.5l-3.1,11.4h-4.3L109.9,213.1z"/>
		</g>
		<g class="st1">
			<path class="st3" d="M121.6,218.4c0.1,1.8,1.2,2.9,3.4,2.9c1.1,0,2.1-0.3,3.3-1.2l2,2.6c-1.3,1.1-3.2,2-5.8,2
				c-4.3,0-6.9-2.5-6.9-6.7c0-4.3,3.5-9,8.9-9c3.9,0,6.1,2.5,6.1,5.9c0,1.1-0.3,2.3-0.8,3.4H121.6z M121.9,215.8h6.5
				c0.1-0.3,0.1-0.6,0.1-1c0-1.2-0.7-2.2-2.5-2.2C124.2,212.6,122.6,213.8,121.9,215.8z"/>
			<path class="st3" d="M137.3,209.4h4.3l-0.8,3c1.5-2.2,3.2-3.5,5.7-3.3l-1.2,4.5h-0.2c-2.8,0-5,1.6-6,5.5l-1.4,5.3h-4.3
				L137.3,209.4z"/>
		</g>
		<g class="st1">
			<path class="st3" d="M148.1,209.4h4.3l-0.8,3c1.5-2.2,3.2-3.5,5.7-3.3l-1.2,4.5h-0.2c-2.8,0-5,1.6-6,5.5l-1.4,5.3h-4.3
				L148.1,209.4z"/>
		</g>
		<g class="st1">
			<path class="st3" d="M160.4,218.4c0.1,1.8,1.2,2.9,3.4,2.9c1.1,0,2.1-0.3,3.3-1.2l2,2.6c-1.3,1.1-3.2,2-5.8,2
				c-4.3,0-6.9-2.5-6.9-6.7c0-4.3,3.5-9,8.9-9c3.9,0,6.1,2.5,6.1,5.9c0,1.1-0.3,2.3-0.8,3.4H160.4z M160.8,215.8h6.5
				c0.1-0.3,0.1-0.6,0.1-1c0-1.2-0.7-2.2-2.5-2.2C163.1,212.6,161.5,213.8,160.8,215.8z"/>
			<path class="st3" d="M173.4,218.3c0-5.3,4.1-9.1,8.3-9.1c2.4,0,3.7,1,4.7,2.5l2-7.6h4.3l-5.5,20.4H183l0.4-1.6
				c-1.3,1.2-2.5,1.9-4.2,1.9C175.9,224.7,173.4,222.3,173.4,218.3z M185.5,215.9c0-1.9-1.3-3.2-3.2-3.2c-2.3,0-4.5,2.2-4.5,5.3
				c0,2,1.2,3.1,3.1,3.1C183.3,221.1,185.5,218.8,185.5,215.9z"/>
			<path class="st3" d="M199.7,220.9l9.9-6.8c1.9-1.3,2.9-2.4,2.9-3.6c0-1.3-1-2-2.5-2c-1.7,0-3.1,1-4.7,2.4l-2.6-2.7
				c1.9-2.2,4.4-3.6,7.5-3.6c4.1,0,6.7,2.2,6.7,5.4c0,2.4-1.1,4.2-4.6,6.6l-6,4.1h8.2l-1,3.7h-14.7L199.7,220.9z"/>
			<path class="st3" d="M220.7,209.4h4.3l-0.4,1.6c1.1-1,2.4-1.8,4.1-1.8c2.7,0,4.4,1.7,4.4,4.4c0,0.8-0.3,1.9-0.5,2.9l-2.2,8.1
				h-4.3l2.2-8.2c0.1-0.4,0.2-1,0.2-1.3c0-1.2-0.8-1.8-2.1-1.8c-1.7,0-2.8,1.2-3.2,3l-2.3,8.4h-4.3L220.7,209.4z"/>
			<path class="st3" d="M235.2,218.3c0-5.3,4.1-9.1,8.3-9.1c2.4,0,3.7,1,4.7,2.5l2-7.6h4.3l-5.5,20.4h-4.3l0.4-1.6
				c-1.3,1.2-2.5,1.9-4.2,1.9C237.7,224.7,235.2,222.3,235.2,218.3z M247.3,215.9c0-1.9-1.3-3.2-3.2-3.2c-2.3,0-4.5,2.2-4.5,5.3
				c0,2,1.2,3.1,3.1,3.1C245.1,221.1,247.3,218.8,247.3,215.9z"/>
			<path class="st3" d="M265.1,213.1h-1.8l1-3.6h1.8l0.2-0.8c0.9-3.3,2.9-4.8,6.1-4.8c1.2,0,2.2,0.2,2.9,0.4l-0.9,3.5
				c-0.6-0.2-1.3-0.4-1.8-0.4c-1.1,0-1.8,0.5-2.1,1.6l-0.1,0.4h3.6l-1,3.6h-3.5l-3.1,11.4H262L265.1,213.1z"/>
			<path class="st3" d="M276.8,209.4h4.3l-0.8,3c1.5-2.2,3.2-3.5,5.7-3.3l-1.2,4.5h-0.2c-2.8,0-5,1.6-6,5.5l-1.4,5.3h-4.3
				L276.8,209.4z"/>
			<path class="st3" d="M288.7,209.4h4.3l-4,15h-4.3L288.7,209.4z M290.1,204h4.5l-1,3.8H289L290.1,204z"/>
			<path class="st3" d="M298.2,218.4c0.1,1.8,1.2,2.9,3.4,2.9c1.1,0,2.1-0.3,3.3-1.2l2,2.6c-1.3,1.1-3.2,2-5.8,2
				c-4.3,0-6.9-2.5-6.9-6.7c0-4.3,3.5-9,8.9-9c3.9,0,6.1,2.5,6.1,5.9c0,1.1-0.3,2.3-0.8,3.4H298.2z M298.6,215.8h6.5
				c0.1-0.3,0.1-0.6,0.1-1c0-1.2-0.7-2.2-2.5-2.2C300.8,212.6,299.3,213.8,298.6,215.8z"/>
			<path class="st3" d="M314,209.4h4.3l-0.4,1.6c1.1-1,2.4-1.8,4.1-1.8c2.7,0,4.4,1.7,4.4,4.4c0,0.8-0.3,1.9-0.5,2.9l-2.2,8.1h-4.3
				l2.2-8.2c0.1-0.4,0.2-1,0.2-1.3c0-1.2-0.8-1.8-2.1-1.8c-1.7,0-2.8,1.2-3.2,3l-2.3,8.4H310L314,209.4z"/>
			<path class="st3" d="M328.5,218.3c0-5.3,4.1-9.1,8.3-9.1c2.4,0,3.7,1,4.7,2.5l2-7.6h4.3l-5.5,20.4H338l0.4-1.6
				c-1.3,1.2-2.5,1.9-4.2,1.9C331,224.7,328.5,222.3,328.5,218.3z M340.6,215.9c0-1.9-1.3-3.2-3.2-3.2c-2.3,0-4.5,2.2-4.5,5.3
				c0,2,1.2,3.1,3.1,3.1C338.4,221.1,340.6,218.8,340.6,215.9z"/>
		</g>
		<g class="st1">
			<path class="st3" d="M75.2,281.7h7.1c2.9,0,4.9,0.6,6.2,2c1,1,1.5,2.4,1.5,3.9c0,1.9-0.6,3.5-1.8,4.6c-1.1,1.1-2.6,1.9-4.5,2.4
				l3.3,6.7h-4.9l-3-6.3H76l-1.7,6.3H70L75.2,281.7z M80.8,291.2c1.7,0,3.1-0.4,3.9-1.3c0.5-0.5,0.8-1.2,0.8-2
				c0-0.7-0.2-1.1-0.6-1.6c-0.5-0.5-1.5-0.8-2.9-0.8h-3.6l-1.5,5.6H80.8z"/>
			<path class="st3" d="M95.1,295.2c0.1,1.8,1.2,2.9,3.4,2.9c1.1,0,2.1-0.3,3.3-1.2l2,2.6c-1.3,1.1-3.2,2-5.8,2
				c-4.3,0-6.9-2.5-6.9-6.7c0-4.3,3.5-9,8.9-9c3.9,0,6.1,2.5,6.1,5.9c0,1.1-0.3,2.3-0.8,3.4H95.1z M95.5,292.6h6.5
				c0.1-0.3,0.1-0.6,0.1-1c0-1.2-0.7-2.2-2.5-2.2C97.8,289.4,96.2,290.7,95.5,292.6z"/>
		</g>
		<g class="st1">
			<path class="st3" d="M109.9,289.9h-1.8l1-3.6h1.8l0.2-0.8c0.9-3.3,2.9-4.8,6.1-4.8c1.2,0,2.2,0.2,2.9,0.4l-0.9,3.5
				c-0.6-0.2-1.3-0.4-1.8-0.4c-1.1,0-1.8,0.5-2.1,1.6l-0.1,0.4h3.6l-1,3.6h-3.5l-3.1,11.4h-4.3L109.9,289.9z"/>
		</g>
		<g class="st1">
			<path class="st3" d="M121.6,295.2c0.1,1.8,1.2,2.9,3.4,2.9c1.1,0,2.1-0.3,3.3-1.2l2,2.6c-1.3,1.1-3.2,2-5.8,2
				c-4.3,0-6.9-2.5-6.9-6.7c0-4.3,3.5-9,8.9-9c3.9,0,6.1,2.5,6.1,5.9c0,1.1-0.3,2.3-0.8,3.4H121.6z M121.9,292.6h6.5
				c0.1-0.3,0.1-0.6,0.1-1c0-1.2-0.7-2.2-2.5-2.2C124.2,289.4,122.6,290.7,121.9,292.6z"/>
			<path class="st3" d="M137.3,286.3h4.3l-0.8,3c1.5-2.2,3.2-3.5,5.7-3.3l-1.2,4.5h-0.2c-2.8,0-5,1.6-6,5.5l-1.4,5.3h-4.3
				L137.3,286.3z"/>
		</g>
		<g class="st1">
			<path class="st3" d="M148.1,286.3h4.3l-0.8,3c1.5-2.2,3.2-3.5,5.7-3.3l-1.2,4.5h-0.2c-2.8,0-5,1.6-6,5.5l-1.4,5.3h-4.3
				L148.1,286.3z"/>
		</g>
		<g class="st1">
			<path class="st3" d="M160.4,295.2c0.1,1.8,1.2,2.9,3.4,2.9c1.1,0,2.1-0.3,3.3-1.2l2,2.6c-1.3,1.1-3.2,2-5.8,2
				c-4.3,0-6.9-2.5-6.9-6.7c0-4.3,3.5-9,8.9-9c3.9,0,6.1,2.5,6.1,5.9c0,1.1-0.3,2.3-0.8,3.4H160.4z M160.8,292.6h6.5
				c0.1-0.3,0.1-0.6,0.1-1c0-1.2-0.7-2.2-2.5-2.2C163.1,289.4,161.5,290.7,160.8,292.6z"/>
			<path class="st3" d="M173.4,295.1c0-5.3,4.1-9.1,8.3-9.1c2.4,0,3.7,1,4.7,2.5l2-7.6h4.3l-5.5,20.4H183l0.4-1.6
				c-1.3,1.2-2.5,1.9-4.2,1.9C175.9,301.5,173.4,299.2,173.4,295.1z M185.5,292.7c0-1.9-1.3-3.2-3.2-3.2c-2.3,0-4.5,2.2-4.5,5.3
				c0,2,1.2,3.1,3.1,3.1C183.3,298,185.5,295.6,185.5,292.7z"/>
			<path class="st3" d="M199.1,297.9l3.2-2.4c1,1.4,2.2,2.2,4.3,2.2c2.1,0,3.7-1.3,3.7-2.7c0-1.5-1.5-2.3-3.8-2.3h-1.2L205,290
				l5.8-4.6h-7.4l1-3.7h13.2l-0.9,3.2l-6.3,4.8c2.5,0.6,4.2,2,4.2,4.9c0,3.9-3.6,7-8.2,7C202.7,301.6,200.4,300.1,199.1,297.9z"/>
		</g>
		<g class="st1">
			<path class="st3" d="M219.5,286.3h4.3l-0.8,3c1.5-2.2,3.2-3.5,5.7-3.3l-1.2,4.5h-0.2c-2.8,0-5,1.6-6,5.5l-1.4,5.3h-4.3
				L219.5,286.3z"/>
		</g>
		<g class="st1">
			<path class="st3" d="M227.8,295.1c0-5.3,4.1-9.1,8.3-9.1c2.4,0,3.7,1,4.7,2.5l2-7.6h4.3l-5.5,20.4h-4.3l0.4-1.6
				c-1.3,1.2-2.5,1.9-4.2,1.9C230.3,301.5,227.8,299.2,227.8,295.1z M239.9,292.7c0-1.9-1.3-3.2-3.2-3.2c-2.3,0-4.5,2.2-4.5,5.3
				c0,2,1.2,3.1,3.1,3.1C237.7,298,239.9,295.6,239.9,292.7z"/>
			<path class="st3" d="M257.7,289.9h-1.8l1-3.6h1.8l0.2-0.8c0.9-3.3,2.9-4.8,6.1-4.8c1.2,0,2.2,0.2,2.9,0.4l-0.9,3.5
				c-0.6-0.2-1.3-0.4-1.8-0.4c-1.1,0-1.8,0.5-2.1,1.6l-0.1,0.4h3.6l-1,3.6h-3.5l-3.1,11.4h-4.3L257.7,289.9z"/>
			<path class="st3" d="M269.4,286.3h4.3l-0.8,3c1.5-2.2,3.2-3.5,5.7-3.3l-1.2,4.5h-0.2c-2.8,0-5,1.6-6,5.5l-1.4,5.3h-4.3
				L269.4,286.3z"/>
			<path class="st3" d="M281.3,286.3h4.3l-4,15h-4.3L281.3,286.3z M282.7,280.8h4.5l-1,3.8h-4.5L282.7,280.8z"/>
			<path class="st3" d="M290.8,295.2c0.1,1.8,1.2,2.9,3.4,2.9c1.1,0,2.1-0.3,3.3-1.2l2,2.6c-1.3,1.1-3.2,2-5.8,2
				c-4.3,0-6.9-2.5-6.9-6.7c0-4.3,3.5-9,8.9-9c3.9,0,6.1,2.5,6.1,5.9c0,1.1-0.3,2.3-0.8,3.4H290.8z M291.2,292.6h6.5
				c0.1-0.3,0.1-0.6,0.1-1c0-1.2-0.7-2.2-2.5-2.2C293.4,289.4,291.9,290.7,291.2,292.6z"/>
			<path class="st3" d="M306.6,286.3h4.3l-0.4,1.6c1.1-1,2.4-1.8,4.1-1.8c2.7,0,4.4,1.7,4.4,4.4c0,0.8-0.3,1.9-0.5,2.9l-2.2,8.1H312
				l2.2-8.2c0.1-0.4,0.2-1,0.2-1.3c0-1.2-0.8-1.8-2.1-1.8c-1.7,0-2.8,1.2-3.2,3l-2.3,8.4h-4.3L306.6,286.3z"/>
			<path class="st3" d="M321.1,295.1c0-5.3,4.1-9.1,8.3-9.1c2.4,0,3.7,1,4.7,2.5l2-7.6h4.3l-5.5,20.4h-4.3l0.4-1.6
				c-1.3,1.2-2.5,1.9-4.2,1.9C323.6,301.5,321.1,299.2,321.1,295.1z M333.2,292.7c0-1.9-1.3-3.2-3.2-3.2c-2.3,0-4.5,2.2-4.5,5.3
				c0,2,1.2,3.1,3.1,3.1C331,298,333.2,295.6,333.2,292.7z"/>
		</g>
		<g class="st1">
			<path class="st3" d="M75.2,358.1h7.1c2.9,0,4.9,0.6,6.2,2c1,1,1.5,2.4,1.5,3.9c0,1.9-0.6,3.5-1.8,4.6c-1.1,1.1-2.6,1.9-4.5,2.4
				l3.3,6.7h-4.9l-3-6.3H76l-1.7,6.3H70L75.2,358.1z M80.8,367.6c1.7,0,3.1-0.4,3.9-1.3c0.5-0.5,0.8-1.2,0.8-2
				c0-0.7-0.2-1.1-0.6-1.6c-0.5-0.5-1.5-0.8-2.9-0.8h-3.6l-1.5,5.6H80.8z"/>
			<path class="st3" d="M95.1,371.6c0.1,1.8,1.2,2.9,3.4,2.9c1.1,0,2.1-0.3,3.3-1.2l2,2.6c-1.3,1.1-3.2,2-5.8,2
				c-4.3,0-6.9-2.5-6.9-6.7c0-4.3,3.5-9,8.9-9c3.9,0,6.1,2.5,6.1,5.9c0,1.1-0.3,2.3-0.8,3.4H95.1z M95.5,369h6.5
				c0.1-0.3,0.1-0.6,0.1-1c0-1.2-0.7-2.2-2.5-2.2C97.8,365.8,96.2,367.1,95.5,369z"/>
		</g>
		<g class="st1">
			<path class="st3" d="M109.9,366.3h-1.8l1-3.6h1.8l0.2-0.8c0.9-3.3,2.9-4.8,6.1-4.8c1.2,0,2.2,0.2,2.9,0.4l-0.9,3.5
				c-0.6-0.2-1.3-0.4-1.8-0.4c-1.1,0-1.8,0.5-2.1,1.6l-0.1,0.4h3.6l-1,3.6h-3.5l-3.1,11.4h-4.3L109.9,366.3z"/>
		</g>
		<g class="st1">
			<path class="st3" d="M121.6,371.6c0.1,1.8,1.2,2.9,3.4,2.9c1.1,0,2.1-0.3,3.3-1.2l2,2.6c-1.3,1.1-3.2,2-5.8,2
				c-4.3,0-6.9-2.5-6.9-6.7c0-4.3,3.5-9,8.9-9c3.9,0,6.1,2.5,6.1,5.9c0,1.1-0.3,2.3-0.8,3.4H121.6z M121.9,369h6.5
				c0.1-0.3,0.1-0.6,0.1-1c0-1.2-0.7-2.2-2.5-2.2C124.2,365.8,122.6,367.1,121.9,369z"/>
			<path class="st3" d="M137.3,362.6h4.3l-0.8,3c1.5-2.2,3.2-3.5,5.7-3.3l-1.2,4.5h-0.2c-2.8,0-5,1.6-6,5.5l-1.4,5.3h-4.3
				L137.3,362.6z"/>
		</g>
		<g class="st1">
			<path class="st3" d="M148.1,362.6h4.3l-0.8,3c1.5-2.2,3.2-3.5,5.7-3.3l-1.2,4.5h-0.2c-2.8,0-5,1.6-6,5.5l-1.4,5.3h-4.3
				L148.1,362.6z"/>
		</g>
		<g class="st1">
			<path class="st3" d="M160.4,371.6c0.1,1.8,1.2,2.9,3.4,2.9c1.1,0,2.1-0.3,3.3-1.2l2,2.6c-1.3,1.1-3.2,2-5.8,2
				c-4.3,0-6.9-2.5-6.9-6.7c0-4.3,3.5-9,8.9-9c3.9,0,6.1,2.5,6.1,5.9c0,1.1-0.3,2.3-0.8,3.4H160.4z M160.8,369h6.5
				c0.1-0.3,0.1-0.6,0.1-1c0-1.2-0.7-2.2-2.5-2.2C163.1,365.8,161.5,367.1,160.8,369z"/>
			<path class="st3" d="M173.4,371.5c0-5.3,4.1-9.1,8.3-9.1c2.4,0,3.7,1,4.7,2.5l2-7.6h4.3l-5.5,20.4H183l0.4-1.6
				c-1.3,1.2-2.5,1.9-4.2,1.9C175.9,377.9,173.4,375.6,173.4,371.5z M185.5,369.1c0-1.9-1.3-3.2-3.2-3.2c-2.3,0-4.5,2.2-4.5,5.3
				c0,2,1.2,3.1,3.1,3.1C183.3,374.3,185.5,372,185.5,369.1z"/>
			<path class="st3" d="M209.5,373.4h-9.1l-0.4-3.2l13.5-12.3h4.2l-3.2,12h2.6l-1,3.5h-2.6l-1.1,4.2h-4.1L209.5,373.4z M210.4,369.9
				l1.7-6.3l-6.7,6.3H210.4z"/>
			<path class="st3" d="M219.5,375c0-0.6,0.1-1.2,0.3-1.9l1.8-6.8h-1.8l1-3.6h1.8l1-3.8h4.3l-1,3.8h3.5l-1,3.6h-3.5l-1.7,6.3
				c-0.1,0.2-0.1,0.5-0.1,0.7c0,0.6,0.4,0.9,1.1,0.9c0.7,0,1.5-0.2,2.2-0.5l-1,3.6c-0.8,0.4-1.9,0.6-3.1,0.6
				C220.8,377.9,219.5,376.6,219.5,375z"/>
			<path class="st3" d="M235,357.2h4.3l-1.8,7c1.1-1,2.4-1.8,4.1-1.8c2.7,0,4.4,1.7,4.4,4.4c0,0.8-0.3,1.9-0.5,2.9l-2.2,8.1H239
				l2.2-8.2c0.1-0.4,0.2-1,0.2-1.3c0-1.2-0.8-1.8-2.1-1.8c-1.7,0-2.8,1.2-3.2,3l-2.3,8.4h-4.3L235,357.2z"/>
			<path class="st3" d="M259.2,366.3h-1.8l1-3.6h1.8l0.2-0.8c0.9-3.3,2.9-4.8,6.1-4.8c1.2,0,2.2,0.2,2.9,0.4l-0.9,3.5
				c-0.6-0.2-1.3-0.4-1.8-0.4c-1.1,0-1.8,0.5-2.1,1.6l-0.1,0.4h3.6l-1,3.6h-3.5l-3.1,11.4h-4.3L259.2,366.3z"/>
			<path class="st3" d="M270.9,362.6h4.3l-0.8,3c1.5-2.2,3.2-3.5,5.7-3.3l-1.2,4.5h-0.2c-2.8,0-5,1.6-6,5.5l-1.4,5.3h-4.3
				L270.9,362.6z"/>
			<path class="st3" d="M282.8,362.6h4.3l-4,15h-4.3L282.8,362.6z M284.2,357.2h4.5l-1,3.8h-4.5L284.2,357.2z"/>
			<path class="st3" d="M292.3,371.6c0.1,1.8,1.2,2.9,3.4,2.9c1.1,0,2.1-0.3,3.3-1.2l2,2.6c-1.3,1.1-3.2,2-5.8,2
				c-4.3,0-6.9-2.5-6.9-6.7c0-4.3,3.5-9,8.9-9c3.9,0,6.1,2.5,6.1,5.9c0,1.1-0.3,2.3-0.8,3.4H292.3z M292.7,369h6.5
				c0.1-0.3,0.1-0.6,0.1-1c0-1.2-0.7-2.2-2.5-2.2C294.9,365.8,293.4,367.1,292.7,369z"/>
			<path class="st3" d="M308.1,362.6h4.3l-0.4,1.6c1.1-1,2.4-1.8,4.1-1.8c2.7,0,4.4,1.7,4.4,4.4c0,0.8-0.3,1.9-0.5,2.9l-2.2,8.1
				h-4.3l2.2-8.2c0.1-0.4,0.2-1,0.2-1.3c0-1.2-0.8-1.8-2.1-1.8c-1.7,0-2.8,1.2-3.2,3l-2.3,8.4h-4.3L308.1,362.6z"/>
			<path class="st3" d="M322.6,371.5c0-5.3,4.1-9.1,8.3-9.1c2.4,0,3.7,1,4.7,2.5l2-7.6h4.3l-5.5,20.4h-4.3l0.4-1.6
				c-1.3,1.2-2.5,1.9-4.2,1.9C325.1,377.9,322.6,375.6,322.6,371.5z M334.7,369.1c0-1.9-1.3-3.2-3.2-3.2c-2.3,0-4.5,2.2-4.5,5.3
				c0,2,1.2,3.1,3.1,3.1C332.5,374.3,334.7,372,334.7,369.1z"/>
		</g>
		<g class="st1">
			<path class="st3" d="M610.4,146.7c-2.4-0.3-4.8-1.3-6.6-2.7l2.2-3.2c1.5,1.1,2.9,1.9,4.6,2.3v-4.5c-4-1.1-6-2.6-6-5.9v-0.1
				c0-3.1,2.4-5.1,5.9-5.5v-1.6h2.9v1.7c2,0.3,3.7,1,5.2,2l-1.9,3.3c-1.1-0.8-2.3-1.3-3.5-1.7v4.3c4.3,1.1,6.1,2.9,6.1,6v0.1
				c0,3.1-2.4,5.2-5.9,5.5v2.8h-2.9V146.7z M610.5,134.5v-3.8c-1.4,0.2-1.9,0.8-1.9,1.7v0.1C608.6,133.4,609,133.9,610.5,134.5z
				 M613.2,139.3v3.9c1.3-0.2,2-0.8,2-1.8v-0.1C615.2,140.5,614.7,139.9,613.2,139.3z"/>
			<path class="st3" d="M625.6,131.4l-3.4,0.8l-0.9-3.5l5.6-1.7h2.9v19.7h-4.3V131.4z"/>
		</g>
		<g class="st1">
			<path class="st3" d="M633.1,137L633.1,137c0-5.7,3.5-10.2,8.7-10.2c5.2,0,8.7,4.4,8.7,10.1v0.1c0,5.7-3.5,10.1-8.7,10.1
				C636.6,147.1,633.1,142.7,633.1,137z M646.1,137L646.1,137c0-3.6-1.7-6.3-4.3-6.3s-4.3,2.6-4.3,6.2v0.1c0,3.6,1.7,6.2,4.3,6.2
				C644.5,143.2,646.1,140.6,646.1,137z"/>
			<path class="st3" d="M652.7,142.3h4.5v4.5h-4.5V142.3z"/>
		</g>
		<g class="st1">
			<path class="st3" d="M659.8,137L659.8,137c0-5.7,3.5-10.2,8.7-10.2c5.2,0,8.7,4.4,8.7,10.1v0.1c0,5.7-3.5,10.1-8.7,10.1
				C663.3,147.1,659.8,142.7,659.8,137z M672.8,137L672.8,137c0-3.6-1.7-6.3-4.3-6.3c-2.6,0-4.3,2.6-4.3,6.2v0.1
				c0,3.6,1.7,6.2,4.3,6.2C671.2,143.2,672.8,140.6,672.8,137z"/>
			<path class="st3" d="M680.3,137L680.3,137c0-5.7,3.5-10.2,8.7-10.2c5.2,0,8.7,4.4,8.7,10.1v0.1c0,5.7-3.5,10.1-8.7,10.1
				C683.7,147.1,680.3,142.7,680.3,137z M693.3,137L693.3,137c0-3.6-1.7-6.3-4.3-6.3s-4.3,2.6-4.3,6.2v0.1c0,3.6,1.7,6.2,4.3,6.2
				C691.6,143.2,693.3,140.6,693.3,137z"/>
		</g>
		<g class="st1">
			<path class="st3" d="M610.4,224.3c-2.4-0.3-4.8-1.3-6.6-2.7l2.2-3.2c1.5,1.1,2.9,1.9,4.6,2.3v-4.5c-4-1.1-6-2.6-6-5.9v-0.1
				c0-3.1,2.4-5.1,5.9-5.5v-1.6h2.9v1.7c2,0.3,3.7,1,5.2,2l-1.9,3.3c-1.1-0.8-2.3-1.3-3.5-1.7v4.3c4.3,1.1,6.1,2.9,6.1,6v0.1
				c0,3.1-2.4,5.2-5.9,5.5v2.8h-2.9V224.3z M610.5,212.1v-3.8c-1.4,0.2-1.9,0.8-1.9,1.7v0.1C608.6,211,609,211.6,610.5,212.1z
				 M613.2,217v3.9c1.3-0.2,2-0.8,2-1.8v-0.1C615.2,218.1,614.7,217.5,613.2,217z"/>
			<path class="st3" d="M625.6,209.1l-3.4,0.8l-0.9-3.5l5.6-1.7h2.9v19.7h-4.3V209.1z"/>
		</g>
		<g class="st1">
			<path class="st3" d="M633.1,214.7L633.1,214.7c0-5.7,3.5-10.2,8.7-10.2c5.2,0,8.7,4.4,8.7,10.1v0.1c0,5.7-3.5,10.1-8.7,10.1
				C636.6,224.8,633.1,220.4,633.1,214.7z M646.1,214.7L646.1,214.7c0-3.6-1.7-6.3-4.3-6.3s-4.3,2.6-4.3,6.2v0.1
				c0,3.6,1.7,6.2,4.3,6.2C644.5,220.9,646.1,218.2,646.1,214.7z"/>
			<path class="st3" d="M652.7,219.9h4.5v4.5h-4.5V219.9z"/>
		</g>
		<g class="st1">
			<path class="st3" d="M659.8,214.7L659.8,214.7c0-5.7,3.5-10.2,8.7-10.2c5.2,0,8.7,4.4,8.7,10.1v0.1c0,5.7-3.5,10.1-8.7,10.1
				C663.3,224.8,659.8,220.4,659.8,214.7z M672.8,214.7L672.8,214.7c0-3.6-1.7-6.3-4.3-6.3c-2.6,0-4.3,2.6-4.3,6.2v0.1
				c0,3.6,1.7,6.2,4.3,6.2C671.2,220.9,672.8,218.2,672.8,214.7z"/>
			<path class="st3" d="M680.3,214.7L680.3,214.7c0-5.7,3.5-10.2,8.7-10.2c5.2,0,8.7,4.4,8.7,10.1v0.1c0,5.7-3.5,10.1-8.7,10.1
				C683.7,224.8,680.3,220.4,680.3,214.7z M693.3,214.7L693.3,214.7c0-3.6-1.7-6.3-4.3-6.3s-4.3,2.6-4.3,6.2v0.1
				c0,3.6,1.7,6.2,4.3,6.2C691.6,220.9,693.3,218.2,693.3,214.7z"/>
		</g>
		<g class="st1">
			<path class="st3" d="M610.4,301.2c-2.4-0.3-4.8-1.3-6.6-2.7l2.2-3.2c1.5,1.1,2.9,1.9,4.6,2.3v-4.5c-4-1.1-6-2.6-6-5.9v-0.1
				c0-3.1,2.4-5.1,5.9-5.5V280h2.9v1.7c2,0.3,3.7,1,5.2,2l-1.9,3.3c-1.1-0.8-2.3-1.3-3.5-1.7v4.3c4.3,1.1,6.1,2.9,6.1,6v0.1
				c0,3.1-2.4,5.2-5.9,5.5v2.8h-2.9V301.2z M610.5,289v-3.8c-1.4,0.2-1.9,0.8-1.9,1.7v0.1C608.6,287.8,609,288.4,610.5,289z
				 M613.2,293.8v3.9c1.3-0.2,2-0.8,2-1.8v-0.1C615.2,295,614.7,294.4,613.2,293.8z"/>
			<path class="st3" d="M625.6,285.9l-3.4,0.8l-0.9-3.5l5.6-1.7h2.9v19.7h-4.3V285.9z"/>
		</g>
		<g class="st1">
			<path class="st3" d="M633.1,291.5L633.1,291.5c0-5.7,3.5-10.2,8.7-10.2c5.2,0,8.7,4.4,8.7,10.1v0.1c0,5.7-3.5,10.1-8.7,10.1
				C636.6,301.6,633.1,297.2,633.1,291.5z M646.1,291.5L646.1,291.5c0-3.6-1.7-6.3-4.3-6.3s-4.3,2.6-4.3,6.2v0.1
				c0,3.6,1.7,6.2,4.3,6.2C644.5,297.7,646.1,295.1,646.1,291.5z"/>
			<path class="st3" d="M652.7,296.8h4.5v4.5h-4.5V296.8z"/>
		</g>
		<g class="st1">
			<path class="st3" d="M659.8,291.5L659.8,291.5c0-5.7,3.5-10.2,8.7-10.2c5.2,0,8.7,4.4,8.7,10.1v0.1c0,5.7-3.5,10.1-8.7,10.1
				C663.3,301.6,659.8,297.2,659.8,291.5z M672.8,291.5L672.8,291.5c0-3.6-1.7-6.3-4.3-6.3c-2.6,0-4.3,2.6-4.3,6.2v0.1
				c0,3.6,1.7,6.2,4.3,6.2C671.2,297.7,672.8,295.1,672.8,291.5z"/>
			<path class="st3" d="M680.3,291.5L680.3,291.5c0-5.7,3.5-10.2,8.7-10.2c5.2,0,8.7,4.4,8.7,10.1v0.1c0,5.7-3.5,10.1-8.7,10.1
				C683.7,301.6,680.3,297.2,680.3,291.5z M693.3,291.5L693.3,291.5c0-3.6-1.7-6.3-4.3-6.3s-4.3,2.6-4.3,6.2v0.1
				c0,3.6,1.7,6.2,4.3,6.2C691.6,297.7,693.3,295.1,693.3,291.5z"/>
		</g>
		<g class="st1">
			<path class="st3" d="M610.4,377.6c-2.4-0.3-4.8-1.3-6.6-2.7l2.2-3.2c1.5,1.1,2.9,1.9,4.6,2.3v-4.5c-4-1.1-6-2.6-6-5.9v-0.1
				c0-3.1,2.4-5.1,5.9-5.5v-1.6h2.9v1.7c2,0.3,3.7,1,5.2,2l-1.9,3.3c-1.1-0.8-2.3-1.3-3.5-1.7v4.3c4.3,1.1,6.1,2.9,6.1,6v0.1
				c0,3.1-2.4,5.2-5.9,5.5v2.8h-2.9V377.6z M610.5,365.4v-3.8c-1.4,0.2-1.9,0.8-1.9,1.7v0.1C608.6,364.2,609,364.8,610.5,365.4z
				 M613.2,370.2v3.9c1.3-0.2,2-0.8,2-1.8v-0.1C615.2,371.4,614.7,370.8,613.2,370.2z"/>
			<path class="st3" d="M625.6,362.3l-3.4,0.8l-0.9-3.5l5.6-1.7h2.9v19.7h-4.3V362.3z"/>
		</g>
		<g class="st1">
			<path class="st3" d="M633.1,367.9L633.1,367.9c0-5.7,3.5-10.2,8.7-10.2c5.2,0,8.7,4.4,8.7,10.1v0.1c0,5.7-3.5,10.1-8.7,10.1
				C636.6,378,633.1,373.6,633.1,367.9z M646.1,367.9L646.1,367.9c0-3.6-1.7-6.3-4.3-6.3s-4.3,2.6-4.3,6.2v0.1
				c0,3.6,1.7,6.2,4.3,6.2C644.5,374.1,646.1,371.5,646.1,367.9z"/>
			<path class="st3" d="M652.7,373.2h4.5v4.5h-4.5V373.2z"/>
		</g>
		<g class="st1">
			<path class="st3" d="M659.8,367.9L659.8,367.9c0-5.7,3.5-10.2,8.7-10.2c5.2,0,8.7,4.4,8.7,10.1v0.1c0,5.7-3.5,10.1-8.7,10.1
				C663.3,378,659.8,373.6,659.8,367.9z M672.8,367.9L672.8,367.9c0-3.6-1.7-6.3-4.3-6.3c-2.6,0-4.3,2.6-4.3,6.2v0.1
				c0,3.6,1.7,6.2,4.3,6.2C671.2,374.1,672.8,371.5,672.8,367.9z"/>
			<path class="st3" d="M680.3,367.9L680.3,367.9c0-5.7,3.5-10.2,8.7-10.2c5.2,0,8.7,4.4,8.7,10.1v0.1c0,5.7-3.5,10.1-8.7,10.1
				C683.7,378,680.3,373.6,680.3,367.9z M693.3,367.9L693.3,367.9c0-3.6-1.7-6.3-4.3-6.3s-4.3,2.6-4.3,6.2v0.1
				c0,3.6,1.7,6.2,4.3,6.2C691.6,374.1,693.3,371.5,693.3,367.9z"/>
		</g>
		<g class="st1">
			<path class="st3" d="M910.2,146.7c-2.4-0.3-4.8-1.3-6.6-2.7l2.2-3.2c1.5,1.1,2.9,1.9,4.6,2.3v-4.5c-4-1.1-6-2.6-6-5.9v-0.1
				c0-3.1,2.4-5.1,5.9-5.5v-1.6h2.9v1.7c2,0.3,3.7,1,5.2,2l-1.9,3.3c-1.1-0.8-2.3-1.3-3.5-1.7v4.3c4.3,1.1,6.1,2.9,6.1,6v0.1
				c0,3.1-2.4,5.2-5.9,5.5v2.8h-2.9V146.7z M910.3,134.5v-3.8c-1.4,0.2-1.9,0.8-1.9,1.7v0.1C908.4,133.4,908.8,133.9,910.3,134.5z
				 M913,139.3v3.9c1.3-0.2,2-0.8,2-1.8v-0.1C914.9,140.5,914.5,139.9,913,139.3z"/>
			<path class="st3" d="M925.4,131.4l-3.4,0.8l-0.9-3.5l5.6-1.7h2.9v19.7h-4.3V131.4z"/>
		</g>
		<g class="st1">
			<path class="st3" d="M932.9,137L932.9,137c0-5.7,3.5-10.2,8.7-10.2c5.2,0,8.7,4.4,8.7,10.1v0.1c0,5.7-3.5,10.1-8.7,10.1
				C936.4,147.1,932.9,142.7,932.9,137z M945.9,137L945.9,137c0-3.6-1.7-6.3-4.3-6.3c-2.6,0-4.3,2.6-4.3,6.2v0.1
				c0,3.6,1.7,6.2,4.3,6.2C944.3,143.2,945.9,140.6,945.9,137z"/>
			<path class="st3" d="M952.5,142.3h4.5v4.5h-4.5V142.3z"/>
		</g>
		<g class="st1">
			<path class="st3" d="M959.6,137L959.6,137c0-5.7,3.5-10.2,8.7-10.2c5.2,0,8.7,4.4,8.7,10.1v0.1c0,5.7-3.5,10.1-8.7,10.1
				C963,147.1,959.6,142.7,959.6,137z M972.6,137L972.6,137c0-3.6-1.7-6.3-4.3-6.3s-4.3,2.6-4.3,6.2v0.1c0,3.6,1.7,6.2,4.3,6.2
				C970.9,143.2,972.6,140.6,972.6,137z"/>
			<path class="st3" d="M980,137L980,137c0-5.7,3.5-10.2,8.7-10.2c5.2,0,8.7,4.4,8.7,10.1v0.1c0,5.7-3.5,10.1-8.7,10.1
				C983.5,147.1,980,142.7,980,137z M993,137L993,137c0-3.6-1.7-6.3-4.3-6.3s-4.3,2.6-4.3,6.2v0.1c0,3.6,1.7,6.2,4.3,6.2
				C991.4,143.2,993,140.6,993,137z"/>
		</g>
		<g class="st1">
			<path class="st3" d="M904.1,224.3c-2.4-0.3-4.8-1.3-6.6-2.7l2.2-3.2c1.5,1.1,2.9,1.9,4.6,2.3v-4.5c-4-1.1-6-2.6-6-5.9v-0.1
				c0-3.1,2.4-5.1,5.9-5.5v-1.6h2.9v1.7c2,0.3,3.7,1,5.2,2l-1.9,3.3c-1.1-0.8-2.3-1.3-3.5-1.7v4.3c4.3,1.1,6.1,2.9,6.1,6v0.1
				c0,3.1-2.4,5.2-5.9,5.5v2.8h-2.9V224.3z M904.2,212.1v-3.8c-1.4,0.2-1.9,0.8-1.9,1.7v0.1C902.3,211,902.7,211.6,904.2,212.1z
				 M906.9,217v3.9c1.3-0.2,2-0.8,2-1.8v-0.1C908.9,218.1,908.4,217.5,906.9,217z"/>
			<path class="st3" d="M915.7,221l6.5-5.3c2.4-2,3.4-3.1,3.4-4.7c0-1.7-1.1-2.5-2.6-2.5c-1.5,0-2.5,0.8-4,2.6l-3-2.4
				c1.9-2.6,3.8-4.1,7.3-4.1c4.1,0,6.7,2.4,6.7,6v0.1c0,3.3-1.7,4.9-5.2,7.6l-3.2,2.5h8.5v3.7h-14.5V221z"/>
		</g>
		<g class="st1">
			<path class="st3" d="M932.9,214.7L932.9,214.7c0-5.7,3.5-10.2,8.7-10.2c5.2,0,8.7,4.4,8.7,10.1v0.1c0,5.7-3.5,10.1-8.7,10.1
				C936.4,224.8,932.9,220.4,932.9,214.7z M945.9,214.7L945.9,214.7c0-3.6-1.7-6.3-4.3-6.3c-2.6,0-4.3,2.6-4.3,6.2v0.1
				c0,3.6,1.7,6.2,4.3,6.2C944.3,220.9,945.9,218.2,945.9,214.7z"/>
			<path class="st3" d="M952.5,219.9h4.5v4.5h-4.5V219.9z"/>
		</g>
		<g class="st1">
			<path class="st3" d="M959.6,214.7L959.6,214.7c0-5.7,3.5-10.2,8.7-10.2c5.2,0,8.7,4.4,8.7,10.1v0.1c0,5.7-3.5,10.1-8.7,10.1
				C963,224.8,959.6,220.4,959.6,214.7z M972.6,214.7L972.6,214.7c0-3.6-1.7-6.3-4.3-6.3c-2.6,0-4.3,2.6-4.3,6.2v0.1
				c0,3.6,1.7,6.2,4.3,6.2C970.9,220.9,972.6,218.2,972.6,214.7z"/>
			<path class="st3" d="M980,214.7L980,214.7c0-5.7,3.5-10.2,8.7-10.2c5.2,0,8.7,4.4,8.7,10.1v0.1c0,5.7-3.5,10.1-8.7,10.1
				C983.5,224.8,980,220.4,980,214.7z M993,214.7L993,214.7c0-3.6-1.7-6.3-4.3-6.3s-4.3,2.6-4.3,6.2v0.1c0,3.6,1.7,6.2,4.3,6.2
				C991.4,220.9,993,218.2,993,214.7z"/>
		</g>
		<g class="st1">
			<path class="st3" d="M904,301.2c-2.4-0.3-4.8-1.3-6.6-2.7l2.2-3.2c1.5,1.1,2.9,1.9,4.6,2.3v-4.5c-4-1.1-6-2.6-6-5.9v-0.1
				c0-3.1,2.4-5.1,5.9-5.5V280h2.9v1.7c2,0.3,3.7,1,5.2,2l-1.9,3.3c-1.1-0.8-2.3-1.3-3.5-1.7v4.3c4.3,1.1,6.1,2.9,6.1,6v0.1
				c0,3.1-2.4,5.2-5.9,5.5v2.8H904V301.2z M904.1,289v-3.8c-1.4,0.2-1.9,0.8-1.9,1.7v0.1C902.2,287.8,902.6,288.4,904.1,289z
				 M906.7,293.8v3.9c1.3-0.2,2-0.8,2-1.8v-0.1C908.7,295,908.2,294.4,906.7,293.8z"/>
			<path class="st3" d="M915.3,298.2l3-2.8c1.3,1.5,2.7,2.4,4.7,2.4c1.6,0,2.8-0.9,2.8-2.4v-0.1c0-1.6-1.4-2.5-3.8-2.5h-1.8
				l-0.7-2.7l4.7-4.7h-7.7v-3.7h13.2v3.2l-5,4.7c2.7,0.4,5.3,1.8,5.3,5.5v0.1c0,3.7-2.7,6.4-7.1,6.4
				C919.4,301.6,917,300.2,915.3,298.2z"/>
		</g>
		<g class="st1">
			<path class="st3" d="M932.9,291.5L932.9,291.5c0-5.7,3.5-10.2,8.7-10.2c5.2,0,8.7,4.4,8.7,10.1v0.1c0,5.7-3.5,10.1-8.7,10.1
				C936.4,301.6,932.9,297.2,932.9,291.5z M945.9,291.5L945.9,291.5c0-3.6-1.7-6.3-4.3-6.3c-2.6,0-4.3,2.6-4.3,6.2v0.1
				c0,3.6,1.7,6.2,4.3,6.2C944.3,297.7,945.9,295.1,945.9,291.5z"/>
			<path class="st3" d="M952.5,296.8h4.5v4.5h-4.5V296.8z"/>
		</g>
		<g class="st1">
			<path class="st3" d="M959.6,291.5L959.6,291.5c0-5.7,3.5-10.2,8.7-10.2c5.2,0,8.7,4.4,8.7,10.1v0.1c0,5.7-3.5,10.1-8.7,10.1
				C963,301.6,959.6,297.2,959.6,291.5z M972.6,291.5L972.6,291.5c0-3.6-1.7-6.3-4.3-6.3c-2.6,0-4.3,2.6-4.3,6.2v0.1
				c0,3.6,1.7,6.2,4.3,6.2C970.9,297.7,972.6,295.1,972.6,291.5z"/>
			<path class="st3" d="M980,291.5L980,291.5c0-5.7,3.5-10.2,8.7-10.2c5.2,0,8.7,4.4,8.7,10.1v0.1c0,5.7-3.5,10.1-8.7,10.1
				C983.5,301.6,980,297.2,980,291.5z M993,291.5L993,291.5c0-3.6-1.7-6.3-4.3-6.3s-4.3,2.6-4.3,6.2v0.1c0,3.6,1.7,6.2,4.3,6.2
				C991.4,297.7,993,295.1,993,291.5z"/>
		</g>
		<g class="st1">
			<path class="st3" d="M902.2,377.6c-2.4-0.3-4.8-1.3-6.6-2.7l2.2-3.2c1.5,1.1,2.9,1.9,4.6,2.3v-4.5c-4-1.1-6-2.6-6-5.9v-0.1
				c0-3.1,2.4-5.1,5.9-5.5v-1.6h2.9v1.7c2,0.3,3.7,1,5.2,2l-1.9,3.3c-1.1-0.8-2.3-1.3-3.5-1.7v4.3c4.3,1.1,6.1,2.9,6.1,6v0.1
				c0,3.1-2.4,5.2-5.9,5.5v2.8h-2.9V377.6z M902.3,365.4v-3.8c-1.4,0.2-1.9,0.8-1.9,1.7v0.1C900.4,364.2,900.8,364.8,902.3,365.4z
				 M905,370.2v3.9c1.3-0.2,2-0.8,2-1.8v-0.1C907,371.4,906.5,370.8,905,370.2z"/>
			<path class="st3" d="M923.6,373.4H914l-0.7-3.1l10.8-12.5h3.6v12h2.6v3.5h-2.6v4.2h-4.1V373.4z M923.6,369.9v-6.1l-5.2,6.1H923.6
				z"/>
		</g>
		<g class="st1">
			<path class="st3" d="M932.9,367.9L932.9,367.9c0-5.7,3.5-10.2,8.7-10.2c5.2,0,8.7,4.4,8.7,10.1v0.1c0,5.7-3.5,10.1-8.7,10.1
				C936.4,378,932.9,373.6,932.9,367.9z M945.9,367.9L945.9,367.9c0-3.6-1.7-6.3-4.3-6.3c-2.6,0-4.3,2.6-4.3,6.2v0.1
				c0,3.6,1.7,6.2,4.3,6.2C944.3,374.1,945.9,371.5,945.9,367.9z"/>
			<path class="st3" d="M952.5,373.2h4.5v4.5h-4.5V373.2z"/>
		</g>
		<g class="st1">
			<path class="st3" d="M959.6,367.9L959.6,367.9c0-5.7,3.5-10.2,8.7-10.2c5.2,0,8.7,4.4,8.7,10.1v0.1c0,5.7-3.5,10.1-8.7,10.1
				C963,378,959.6,373.6,959.6,367.9z M972.6,367.9L972.6,367.9c0-3.6-1.7-6.3-4.3-6.3s-4.3,2.6-4.3,6.2v0.1c0,3.6,1.7,6.2,4.3,6.2
				C970.9,374.1,972.6,371.5,972.6,367.9z"/>
			<path class="st3" d="M980,367.9L980,367.9c0-5.7,3.5-10.2,8.7-10.2c5.2,0,8.7,4.4,8.7,10.1v0.1c0,5.7-3.5,10.1-8.7,10.1
				C983.5,378,980,373.6,980,367.9z M993,367.9L993,367.9c0-3.6-1.7-6.3-4.3-6.3s-4.3,2.6-4.3,6.2v0.1c0,3.6,1.7,6.2,4.3,6.2
				C991.4,374.1,993,371.5,993,367.9z"/>
		</g>
		<line class="st4" x1="430.4" y1="78.6" x2="430.4" y2="426.1"/>
		<line class="st4" x1="730.5" y1="78.6" x2="730.5" y2="426.1"/>
		<g id="lnvpps">
			<path class="st3" d="M43.5,153.1h0.3c-1.7,0-3.3-0.2-5-0.4c-1.4-0.2-2.7-0.4-4-0.8c-0.8-0.2-1.6-0.5-2.3-1
				c-0.6-0.4-1-0.9-1.2-1.6c0-0.1-0.1-0.3-0.1-0.4v-0.6c0-0.1,0-0.1,0-0.2c0.3-1.4,0.9-2.7,1.6-3.8c0.5-0.8,1.2-1.4,2.1-1.9
				c0.5-0.2,1-0.4,1.6-0.5c0.1,0,0.2-0.1,0.2-0.1c0.2-0.2,0.3-0.5,0.5-0.8c0.3-0.7,0.4-1.4,0.4-2.1c0.1-1.7,0-3.4-0.2-5.1
				c-0.1-0.4-0.1-0.9-0.2-1.3c0-1.1,0.1-2.2,0.3-3.3c0.2-1.3,0.7-2.6,1.4-3.7c0.9-1.4,2.3-2.5,3.9-2.8c0.3-0.1,0.7-0.1,1-0.2h2.5
				h0.1c1.8,0.1,3.4,1,4.5,2.5c0.7,0.9,1.2,2,1.5,3.1c0.3,1.2,0.5,2.5,0.5,3.7c0,0.3,0,0.7,0,1c-0.2,1.2-0.3,2.4-0.4,3.5
				c-0.1,1.2,0,2.4,0.1,3.5c0.1,0.6,0.3,1.2,0.6,1.7c0.1,0.2,0.4,0.4,0.6,0.4c1.2,0.2,2.4,0.9,3.1,1.9c0.7,0.9,1.3,1.9,1.6,3.1
				c0.2,0.4,0.3,0.9,0.4,1.4v0.6v0.1c-0.1,0.7-0.4,1.2-0.9,1.7c-0.3,0.2-0.6,0.4-0.9,0.6c-0.8,0.4-1.7,0.7-2.5,0.9
				c-2.1,0.5-4.2,0.8-6.3,0.9c-0.6,0-1.3,0.1-1.9,0.1c0.3,0,0.7,0,1,0 M40,135.1L40,135.1c0.2,0.8,0.6,1.5,1,2.2
				c0.5,0.9,1.3,1.7,2.2,2.3c0.9,0.6,2,0.9,3.1,0.6c0.8-0.2,1.5-0.7,2.1-1.3c0.9-0.9,1.6-2,2.1-3.2l0.2-0.6c0.2,0.1,0.4,0.1,0.5-0.1
				c0.1-0.1,0.2-0.2,0.2-0.3c0.3-0.6,0.4-1.2,0.3-1.9c0-0.2-0.1-0.3-0.2-0.5c0-0.1-0.1-0.1-0.2,0s-0.4,0.4-0.6,0.6l-0.2-0.1l-7.8-4
				c-0.1,0-0.1-0.1-0.2-0.1c-0.6-0.1-1.2,0.1-1.6,0.5c-0.4,0.3-0.7,0.8-0.9,1.3c-0.2,0.6-0.4,1.2-0.5,1.8c-0.3-0.1-0.5,0-0.6,0.3
				c0,0.1,0,0.1,0,0.2c-0.1,0.5,0,1,0.2,1.5c0.1,0.3,0.2,0.5,0.4,0.7C39.6,135.1,39.8,135.1,40,135.1L40,135.1z M49.1,139.8
				l-0.1,0.1c-0.4,0.3-0.8,0.7-1.2,0.9c-1,0.7-2.3,0.9-3.5,0.6c-1-0.3-1.9-0.8-2.6-1.5l-0.2-0.1c0,0.4-0.2,0.7-0.5,1
				c-0.3,0.3-0.6,0.5-1,0.6c0.1,0.4,0.3,0.7,0.5,0.9c2.3,2.2,5.9,2.5,8.5,0.6c0.4-0.3,0.7-0.6,1-0.9c0.2-0.2,0.3-0.4,0.3-0.6
				C49.7,141.2,49.2,140.6,49.1,139.8L49.1,139.8z"/>
			<path class="st3" d="M45.7,122.4L45.7,122.4z"/>
		</g>
		<g id="KXkdiJ">
			<path class="st3" d="M37.2,230.1c-0.8,0-1.7-0.2-2.5-0.4c-1.5-0.4-2.6-1.6-2.9-3.1c-0.1-0.3-0.1-0.6-0.1-0.9v-1.1
				c0-0.3,0-0.6,0.1-0.8c0.5-3.5,2.9-6.3,6.2-7.4c0.7-0.2,1.4-0.4,2-0.4c0,0,0,0.1,0,0.1c0,0.5,0.2,0.9,0.6,1.3
				c0.5,0.5,1.1,0.9,1.8,1.1c1.6,0.6,3.4,0.7,5.2,0.4c0.9-0.2,1.8-0.5,2.6-1.1c0.5-0.4,0.9-0.9,1.1-1.5c0-0.1,0-0.2,0-0.3
				c0.4,0.1,0.8,0.1,1.1,0.2c3.7,0.8,6.5,3.8,7.1,7.5c0,0.3,0.1,0.6,0.1,0.9v1.1c0,0.3-0.1,0.6-0.1,0.9c-0.2,1.4-1.1,2.5-2.5,3
				c-0.7,0.3-1.5,0.5-2.2,0.5"/>
			<path class="st3" d="M46.2,198.9c0.3,0,0.6,0.1,0.9,0.1c1.9,0.4,3.6,1.6,4.6,3.4c0.9,1.5,1.2,3.2,1,4.9c-0.1,1.1-0.3,2.1-0.6,3.1
				c-0.4,1.6-1.2,3-2.3,4.2c-0.8,0.9-1.7,1.5-2.8,1.8c-1.5,0.4-3.1,0.1-4.4-0.9c-1.1-0.8-2-1.9-2.6-3.2c-0.7-1.5-1.2-3.1-1.3-4.7
				c-0.1-0.6-0.1-1.2-0.1-1.7c0.1-2.9,1.8-5.4,4.5-6.5c0.6-0.3,1.3-0.4,2-0.5h0.1L46.2,198.9z M39.6,207.7v0.1
				c0.1,1.3,0.5,2.6,1,3.8c0.5,1.1,1.2,2.1,2.1,2.8c1.4,1.2,3.4,1.5,5.1,0.6c1-0.6,1.9-1.4,2.5-2.4c0.7-1.2,1.2-2.5,1.4-3.9
				c0-0.3,0.1-0.6,0.1-0.9l0,0l-0.9,0.4c0,0,0-0.1,0-0.2c0.1-0.8,0.2-1.7,0.1-2.5c0-0.5-0.1-0.9-0.3-1.4c-0.1-0.2-0.3-0.4-0.5-0.6
				c-0.1,0-0.1,0-0.2,0c-0.7,0.3-1.5,0.6-2.3,0.8c-0.7,0.2-1.4,0.3-2.1,0.2c-1.4-0.1-2.7-0.4-4-0.9c-0.2-0.1-0.4-0.1-0.5,0.1
				c-0.2,0.2-0.4,0.5-0.5,0.9c-0.2,1-0.2,1.9-0.1,2.9c0,0.2,0,0.5,0.1,0.7L39.6,207.7z"/>
		</g>
		<g id="t71s0m">
			<path class="st3" d="M31.7,302.9c0-0.5,0.1-1.1,0.2-1.6c0.2-0.8,0.4-1.5,0.6-2.3c0.1-0.4,0.4-0.7,0.7-0.9c1-0.7,2-1.2,3.2-1.6
				c1.5-0.5,2.9-0.9,4.4-1.3H41c0,0.3,0,0.5,0,0.8c-0.1,0.9,0.1,1.8,0.5,2.6c0.9,1.9,2.3,3.6,4,4.8c0.2,0.1,0.4,0.1,0.6,0
				c1.9-1.4,3.4-3.2,4.2-5.4c0.3-0.8,0.4-1.7,0.2-2.6c0-0.1,0-0.1,0-0.2c0,0,0,0,0.1,0c1.8,0.5,3.6,1.1,5.4,1.7
				c0.9,0.3,1.7,0.8,2.5,1.4c0.4,0.4,0.6,0.8,0.8,1.3c0.4,1.3,0.7,2.6,0.6,4c0,0.6,0,1.2,0,1.8h-28L31.7,302.9z"/>
			<path class="st3" d="M46.4,277c0.5,0.1,0.9,0.1,1.4,0.2c1.6,0.3,3,1.3,3.9,2.6c0.6,0.9,0.9,2,0.8,3c0,1-0.1,1.9-0.2,2.9
				c0,0.1,0,0.1,0,0.2c0.6,0,1,0.5,0.9,1.1c0,0,0,0,0,0c0.1,1-0.3,2-1,2.7c-0.1,0.1-0.2,0.2-0.2,0.3c-0.5,1.2-1.2,2.3-2,3.4
				c-0.8,1-1.9,1.8-3.2,2.1c-1.6,0.4-3.3-0.1-4.5-1.3c-1.1-1.1-2-2.3-2.6-3.7c-0.2-0.4-0.4-0.7-0.6-1c-0.6-0.8-0.9-1.8-0.8-2.8
				c0.1-0.5,0.3-0.7,0.9-0.8c-0.1-0.6-0.1-1.1-0.2-1.7c-0.1-1.1,0-2.3,0.3-3.4c0.5-1.4,1.6-2.5,2.9-3.1c0.8-0.4,1.7-0.6,2.6-0.7
				c0.1,0,0.2,0,0.3,0L46.4,277z M45.7,294.8c0.5-0.1,1-0.2,1.5-0.3c1.1-0.3,2-1.1,2.5-2.1c0.5-0.9,1-1.8,1.4-2.8
				c0.1-0.2,0.2-0.3,0.3-0.4c0.5-0.4,0.8-1.1,0.8-1.7c0-0.3,0-0.6-0.1-0.8c0-0.2-0.2-0.3-0.4-0.3c0,0,0,0,0,0
				c-0.2,0.1-0.4,0.3-0.4,0.5c0,0.2,0,0.5-0.1,0.7c-0.4,1.3-1.7,2.1-3,1.8c-0.9-0.2-1.6-1-1.8-1.9c0-0.2-0.1-0.3-0.3-0.2
				s-0.5,0-0.7,0s-0.2,0-0.3,0.2c-0.3,1.3-1.6,2.2-2.9,1.9c-1.2-0.2-2-1.3-2-2.5c0-0.3-0.2-0.5-0.4-0.6s-0.4,0.2-0.5,0.4
				c0,0.1,0,0.1,0,0.2c-0.1,0.8,0.2,1.6,0.7,2.1c0.2,0.2,0.3,0.4,0.4,0.6c0.4,1,1,2,1.6,3C42.8,294,44.2,294.7,45.7,294.8
				L45.7,294.8z M51.2,286c0-0.1,0-0.2,0.1-0.3c0-0.6,0.1-1.2,0.1-1.8c0-1-0.7-2-1.7-2.2c-1.5-0.3-3.1,0.4-3.9,1.7
				c-0.1-0.1-0.1-0.1-0.2-0.2c-0.9-1.1-2.2-1.6-3.6-1.4c-0.9,0.2-1.7,1-1.8,1.9c0,0.6,0,1.1,0.1,1.7c0,0.2,0.1,0.4,0.1,0.5
				c0,0,0.1-0.1,0.1-0.1c0.6-1.2,2.1-1.7,3.3-1.1c0.6,0.3,1,0.8,1.3,1.4c0,0.1,0.1,0.2,0.3,0.2c0,0,0,0,0,0c0.3,0,0.6,0,0.9,0
				c0.2,0,0.3,0,0.3-0.2c0.5-1.3,1.9-1.9,3.2-1.5c0,0,0,0,0.1,0C50.4,284.9,50.9,285.4,51.2,286z M50.6,286.9c0-1-0.8-1.8-1.8-1.7
				c-1,0-1.8,0.8-1.7,1.8c0,1,0.8,1.8,1.8,1.8C49.8,288.7,50.6,287.9,50.6,286.9C50.6,286.9,50.6,286.9,50.6,286.9L50.6,286.9z
				 M42.6,285.2c-1,0-1.7,0.8-1.8,1.7c0,1,0.8,1.8,1.7,1.8c1,0,1.8-0.8,1.8-1.7C44.4,286,43.6,285.2,42.6,285.2
				C42.6,285.2,42.6,285.2,42.6,285.2z"/>
		</g>
		<g id="LoYSQ1">
			<path class="st3" d="M31.7,379.2c0-0.5,0.1-1.1,0.2-1.6c0.2-0.8,0.4-1.5,0.6-2.3c0.1-0.4,0.4-0.7,0.7-0.9c1-0.7,2-1.3,3.2-1.6
				c1.5-0.5,2.9-0.9,4.4-1.3H41c0,0.3,0,0.5,0,0.8c-0.1,0.9,0.1,1.8,0.5,2.6c0.9,1.9,2.3,3.6,4,4.8c0.2,0.1,0.4,0.1,0.6,0
				c1.9-1.4,3.4-3.2,4.2-5.4c0.3-0.8,0.4-1.7,0.2-2.6c0-0.1,0-0.1,0-0.2c0,0,0,0,0.1,0c1.8,0.5,3.6,1.1,5.4,1.7
				c0.9,0.3,1.7,0.8,2.5,1.4c0.4,0.4,0.6,0.8,0.8,1.3c0.4,1.3,0.6,2.6,0.6,4c0,0.6,0,1.2,0,1.8h-28L31.7,379.2z"/>
			<path class="st3" d="M46.4,352.2c0.5,0.1,0.9,0.1,1.4,0.2c1.6,0.3,3,1.3,3.9,2.6c0.6,0.9,0.9,2,0.8,3.1c0,1-0.1,1.9-0.2,2.9
				c0,0.1,0,0.1,0,0.2c0.6,0.1,0.9,0.4,0.9,1.1c0.1,1-0.3,2-1,2.7c-0.1,0.1-0.2,0.2-0.2,0.3c-0.5,1.2-1.2,2.3-2,3.4
				c-0.8,1-1.9,1.8-3.2,2.1c-1.6,0.4-3.3-0.1-4.5-1.3c-1.1-1.1-2-2.3-2.6-3.7c-0.2-0.4-0.4-0.7-0.6-1c-0.6-0.8-0.9-1.8-0.7-2.8
				c0-0.4,0.4-0.8,0.8-0.8c-0.1-0.6-0.1-1.1-0.2-1.7c-0.1-1.1,0-2.3,0.3-3.4c0.5-1.4,1.6-2.5,2.9-3.1c0.8-0.4,1.7-0.6,2.6-0.7
				l0.2-0.1L46.4,352.2z M40.5,362.8c0-0.1-0.1-0.2-0.1-0.3c-0.1-0.2-0.3-0.5-0.4-0.7c-0.2-0.3-0.4-0.2-0.6,0
				c-0.1,0.1-0.1,0.2-0.2,0.4c-0.1,0.8,0.2,1.6,0.7,2.2c0.2,0.2,0.3,0.4,0.4,0.6c0.5,1.1,1,2.2,1.7,3.2c1.2,1.6,3.3,2.3,5.3,1.6
				c1.1-0.4,1.9-1.1,2.4-2.1c0.5-0.9,1-1.8,1.4-2.7c0.1-0.2,0.2-0.3,0.3-0.4c0.4-0.3,0.6-0.8,0.8-1.3c0.1-0.3,0.1-0.6,0.1-0.9
				c0-0.3-0.2-0.5-0.4-0.6c-0.3-0.1-0.4,0.2-0.5,0.4s-0.3,0.5-0.4,0.9c0.2-1,0.4-2.1,0.5-3.2H51c-0.8-0.1-1.6-0.1-2.5-0.2
				c-2-0.2-3.9-1.1-5.3-2.5c-0.3-0.4-0.8-0.4-1.2-0.2c-0.2,0.1-0.3,0.1-0.4,0.2c-0.6,0.4-1.1,1-1.5,1.7c-0.1,0.2-0.1,0.3-0.1,0.5
				C40.1,360.4,40.3,361.6,40.5,362.8z"/>
			<path class="st3" d="M45.1,373.8c-0.4-0.4-0.8-0.8-1.1-1.2c-0.1-0.1-0.2-0.3-0.1-0.4c0,0,0-0.1,0.1-0.1c0,0,0.1-0.1,0.1-0.1
				c0.3-0.4,0.7-0.6,1.2-0.5c0.3,0,0.6,0,0.9,0c0.5,0.1,1,0.4,1.2,0.9c0,0.1,0,0.2-0.1,0.2c-0.3,0.4-0.6,0.7-0.9,1
				c-0.2,0.2-0.2,0.3-0.1,0.5c0.4,0.9,0.7,1.8,1.1,2.7c0.1,0.1,0.1,0.3,0,0.4c-0.4,0.6-1,1.1-1.6,1.6c-0.1,0-0.2,0-0.2,0
				c-0.6-0.4-1.2-0.9-1.6-1.5c-0.1-0.1-0.1-0.3,0-0.5C44.4,375.7,44.8,374.7,45.1,373.8L45.1,373.8z"/>
		</g>
	</g>
</g>
</svg>
