<?xml version="1.0" encoding="utf-8"?>
<!-- Generator: Adobe Illustrator 23.0.3, SVG Export Plug-In . SVG Version: 6.00 Build 0)  -->
<svg version="1.1" id="Layer_1" xmlns="http://www.w3.org/2000/svg" xmlns:xlink="http://www.w3.org/1999/xlink" x="0px" y="0px"
	 viewBox="0 0 520.2 27.1" style="enable-background:new 0 0 520.2 27.1;" xml:space="preserve">
<style type="text/css">
	.st0{enable-background:new    ;}
	.st1{fill:#58595B;}
	.st2{fill:none;stroke:#A6A8AB;stroke-miterlimit:10;}
</style>
<title>Asset 34</title>
<g>
	<g id="Layer_1-2">
		<g class="st0">
			<path class="st1" d="M28.3,6.4h2.5L36,18.8h-2.8L32.1,16h-5.2l-1.1,2.8H23L28.3,6.4z M31.1,13.6l-1.6-4l-1.6,4H31.1z"/>
		</g>
		<g class="st0">
			<path class="st1" d="M36.3,14.1L36.3,14.1c0-2.7,2.1-4.9,4.9-4.9c1.8,0,2.9,0.6,3.8,1.6l-1.6,1.8c-0.6-0.6-1.2-1-2.1-1
				c-1.3,0-2.3,1.2-2.3,2.6v0c0,1.4,0.9,2.6,2.4,2.6c0.9,0,1.5-0.4,2.2-1l1.6,1.6c-0.9,1-2,1.7-3.8,1.7C38.4,19,36.3,16.8,36.3,14.1
				z"/>
			<path class="st1" d="M46.7,16.1v-4.5h-1.1V9.4h1.1V7h2.7v2.4h2.2v2.3h-2.2v4c0,0.6,0.3,0.9,0.9,0.9c0.5,0,0.9-0.1,1.3-0.3v2.1
				c-0.6,0.3-1.2,0.5-2.1,0.5C47.8,18.9,46.7,18.3,46.7,16.1z"/>
			<path class="st1" d="M53,6h2.8v2.4H53V6z M53.1,9.4h2.7v9.4h-2.7V9.4z"/>
			<path class="st1" d="M57.3,14.1L57.3,14.1c0-2.7,2.2-4.9,5.1-4.9c2.9,0,5.1,2.2,5.1,4.9v0c0,2.7-2.2,4.9-5.1,4.9
				C59.5,19,57.3,16.8,57.3,14.1z M64.8,14.1L64.8,14.1c0-1.4-1-2.6-2.5-2.6c-1.5,0-2.4,1.2-2.4,2.6v0c0,1.4,1,2.6,2.5,2.6
				C63.9,16.7,64.8,15.5,64.8,14.1z"/>
			<path class="st1" d="M68.9,9.4h2.7v1.3c0.6-0.8,1.4-1.5,2.8-1.5c2,0,3.2,1.3,3.2,3.5v6.1h-2.7v-5.2c0-1.3-0.6-1.9-1.6-1.9
				c-1,0-1.7,0.6-1.7,1.9v5.2h-2.7V9.4z"/>
		</g>
		<path class="st2" d="M10.1,0.5h79.2c5.3,0,9.6,4.3,9.6,9.6V17c0,5.3-4.3,9.6-9.6,9.6H10.1c-5.3,0-9.6-4.3-9.6-9.6v-6.9
			C0.5,4.8,4.8,0.5,10.1,0.5z"/>
		<g class="st0">
			<path class="st1" d="M119.6,12.7L119.6,12.7c0-3.5,2.6-6.4,6.4-6.4c2.3,0,3.7,0.8,4.8,1.9l-1.7,2c-0.9-0.9-1.9-1.4-3.1-1.4
				c-2.1,0-3.6,1.7-3.6,3.8v0c0,2.1,1.5,3.9,3.6,3.9c1.4,0,2.3-0.6,3.2-1.4l1.7,1.7c-1.3,1.4-2.7,2.2-5,2.2
				C122.3,19,119.6,16.2,119.6,12.7z"/>
		</g>
		<g class="st0">
			<path class="st1" d="M131.8,14.1L131.8,14.1c0-2.7,2.2-4.9,5.1-4.9c2.9,0,5.1,2.2,5.1,4.9v0c0,2.7-2.2,4.9-5.1,4.9
				C133.9,19,131.8,16.8,131.8,14.1z M139.3,14.1L139.3,14.1c0-1.4-1-2.6-2.5-2.6c-1.5,0-2.4,1.2-2.4,2.6v0c0,1.4,1,2.6,2.5,2.6
				C138.4,16.7,139.3,15.5,139.3,14.1z"/>
			<path class="st1" d="M143.3,9.4h2.7v1.3c0.6-0.8,1.4-1.5,2.8-1.5c1.2,0,2.2,0.5,2.6,1.5c0.8-1,1.8-1.5,3.1-1.5
				c2,0,3.2,1.2,3.2,3.5v6.1H155v-5.2c0-1.3-0.6-1.9-1.6-1.9c-1,0-1.6,0.6-1.6,1.9v5.2h-2.7v-5.2c0-1.3-0.6-1.9-1.6-1.9
				c-1,0-1.6,0.6-1.6,1.9v5.2h-2.7V9.4z"/>
			<path class="st1" d="M159,14.1L159,14.1c0-2.7,1.9-4.9,4.6-4.9c3.1,0,4.6,2.4,4.6,5.1c0,0.2,0,0.5,0,0.7h-6.5
				c0.3,1.2,1.1,1.8,2.3,1.8c0.9,0,1.5-0.3,2.3-1l1.5,1.3c-0.9,1.1-2.1,1.8-3.8,1.8C161.1,19,159,17,159,14.1z M165.6,13.3
				c-0.2-1.2-0.9-2-2-2c-1.1,0-1.8,0.8-2,2H165.6z"/>
			<path class="st1" d="M169.3,14.1L169.3,14.1c0-3.2,2.1-4.9,4.3-4.9c1.4,0,2.3,0.6,2.9,1.4V6h2.7v12.8h-2.7v-1.3
				c-0.6,0.9-1.5,1.5-2.9,1.5C171.3,18.9,169.3,17.2,169.3,14.1z M176.5,14.1L176.5,14.1c0-1.6-1-2.6-2.3-2.6c-1.2,0-2.3,1-2.3,2.6
				v0c0,1.6,1.1,2.6,2.3,2.6C175.5,16.7,176.5,15.6,176.5,14.1z"/>
			<path class="st1" d="M180.9,21l0.9-1.9c0.4,0.2,0.8,0.4,1.1,0.4c0.5,0,0.7-0.1,0.9-0.6l-3.7-9.4h2.8l2.1,6.4l2.1-6.4h2.8
				l-3.6,9.6c-0.7,1.9-1.5,2.6-3.1,2.6C182.3,21.6,181.5,21.4,180.9,21z"/>
		</g>
		<path class="st2" d="M114.1,0.5h79.2c5.3,0,9.6,4.3,9.6,9.6V17c0,5.3-4.3,9.6-9.6,9.6h-79.2c-5.3,0-9.6-4.3-9.6-9.6v-6.9
			C104.5,4.8,108.8,0.5,114.1,0.5z"/>
		<g class="st0">
			<path class="st1" d="M343.1,9h-3.7V6.5h10.2V9h-3.7v9.8h-2.7V9z"/>
		</g>
		<g class="st0">
			<path class="st1" d="M350.7,6h2.7v4.7c0.6-0.8,1.4-1.5,2.8-1.5c2,0,3.2,1.3,3.2,3.5v6.1h-2.7v-5.2c0-1.3-0.6-1.9-1.6-1.9
				s-1.7,0.6-1.7,1.9v5.2h-2.7V6z"/>
			<path class="st1" d="M361.2,9.4h2.7v1.9c0.5-1.3,1.4-2.1,3-2.1V12h-0.1c-1.8,0-2.9,1.1-2.9,3.3v3.5h-2.7V9.4z"/>
			<path class="st1" d="M368.3,6h2.8v2.4h-2.8V6z M368.3,9.4h2.7v9.4h-2.7V9.4z"/>
			<path class="st1" d="M373.3,6h2.7v12.8h-2.7V6z"/>
			<path class="st1" d="M378.2,6h2.7v12.8h-2.7V6z"/>
			<path class="st1" d="M382.6,14.1L382.6,14.1c0-2.7,1.9-4.9,4.6-4.9c3.1,0,4.6,2.4,4.6,5.1c0,0.2,0,0.5,0,0.7h-6.5
				c0.3,1.2,1.1,1.8,2.3,1.8c0.9,0,1.5-0.3,2.3-1l1.5,1.3c-0.9,1.1-2.1,1.8-3.8,1.8C384.7,19,382.6,17,382.6,14.1z M389.2,13.3
				c-0.2-1.2-0.9-2-2-2c-1.1,0-1.8,0.8-2,2H389.2z"/>
			<path class="st1" d="M393.4,9.4h2.7v1.9c0.5-1.3,1.4-2.1,3-2.1V12H399c-1.8,0-2.9,1.1-2.9,3.3v3.5h-2.7V9.4z"/>
		</g>
		<path class="st2" d="M327.9,0.5h79.2c5.3,0,9.6,4.3,9.6,9.6V17c0,5.3-4.3,9.6-9.6,9.6h-79.2c-5.3,0-9.6-4.3-9.6-9.6v-6.9
			C318.3,4.8,322.6,0.5,327.9,0.5z"/>
		<g class="st0">
			<path class="st1" d="M444.7,6.5h4.8c3.9,0,6.5,2.6,6.5,6.1v0c0,3.5-2.7,6.1-6.5,6.1h-4.8V6.5z M449.5,16.3c2.2,0,3.7-1.5,3.7-3.7
				v0c0-2.2-1.5-3.7-3.7-3.7h-2.1v7.4H449.5z"/>
		</g>
		<g class="st0">
			<path class="st1" d="M457.7,9.4h2.7v1.9c0.5-1.3,1.4-2.1,3-2.1V12h-0.1c-1.8,0-2.9,1.1-2.9,3.3v3.5h-2.7V9.4z"/>
		</g>
		<g class="st0">
			<path class="st1" d="M463.5,16.1L463.5,16.1c0-2.1,1.6-3,3.8-3c0.9,0,1.6,0.2,2.3,0.4v-0.2c0-1.1-0.7-1.7-2-1.7
				c-1,0-1.7,0.2-2.6,0.5l-0.7-2c1-0.5,2.1-0.8,3.6-0.8c1.5,0,2.5,0.4,3.2,1.1c0.7,0.7,1,1.7,1,3v5.5h-2.6v-1
				c-0.6,0.7-1.5,1.2-2.8,1.2C465,18.9,463.5,17.9,463.5,16.1z M469.6,15.5V15c-0.5-0.2-1.1-0.4-1.7-0.4c-1.1,0-1.8,0.5-1.8,1.3v0
				c0,0.7,0.6,1.1,1.5,1.1C468.8,17.1,469.6,16.4,469.6,15.5z"/>
			<path class="st1" d="M473.9,9.4h2.7v1.3c0.6-0.8,1.4-1.5,2.8-1.5c1.2,0,2.2,0.5,2.6,1.5c0.8-1,1.8-1.5,3.1-1.5
				c2,0,3.2,1.2,3.2,3.5v6.1h-2.7v-5.2c0-1.3-0.6-1.9-1.6-1.9s-1.6,0.6-1.6,1.9v5.2h-2.7v-5.2c0-1.3-0.6-1.9-1.6-1.9
				c-1,0-1.6,0.6-1.6,1.9v5.2h-2.7V9.4z"/>
			<path class="st1" d="M489.5,16.1L489.5,16.1c0-2.1,1.6-3,3.8-3c0.9,0,1.6,0.2,2.3,0.4v-0.2c0-1.1-0.7-1.7-2-1.7
				c-1,0-1.7,0.2-2.6,0.5l-0.7-2c1-0.5,2.1-0.8,3.6-0.8c1.5,0,2.5,0.4,3.2,1.1c0.7,0.7,1,1.7,1,3v5.5h-2.6v-1
				c-0.6,0.7-1.5,1.2-2.8,1.2C491,18.9,489.5,17.9,489.5,16.1z M495.6,15.5V15c-0.5-0.2-1.1-0.4-1.7-0.4c-1.1,0-1.8,0.5-1.8,1.3v0
				c0,0.7,0.6,1.1,1.5,1.1C494.8,17.1,495.6,16.4,495.6,15.5z"/>
		</g>
		<path class="st2" d="M430.9,0.5H510c5.3,0,9.6,4.3,9.6,9.6V17c0,5.3-4.3,9.6-9.6,9.6h-79.2c-5.3,0-9.6-4.3-9.6-9.6v-6.9
			C421.2,4.8,425.6,0.5,430.9,0.5z"/>
		<g class="st0">
			<path class="st1" d="M221.6,6.5h5.6c1.6,0,2.8,0.4,3.6,1.2c0.7,0.7,1.1,1.6,1.1,2.8v0c0,2-1.1,3.2-2.6,3.8l3,4.4H229l-2.6-3.9
				h-2.1v3.9h-2.7V6.5z M227,12.5c1.3,0,2.1-0.7,2.1-1.7v0c0-1.2-0.8-1.8-2.1-1.8h-2.7v3.5H227z"/>
		</g>
		<g class="st0">
			<path class="st1" d="M232.9,14.1L232.9,14.1c0-2.7,2.2-4.9,5.1-4.9c2.9,0,5.1,2.2,5.1,4.9v0c0,2.7-2.2,4.9-5.1,4.9
				C235.1,19,232.9,16.8,232.9,14.1z M240.4,14.1L240.4,14.1c0-1.4-1-2.6-2.5-2.6c-1.5,0-2.4,1.2-2.4,2.6v0c0,1.4,1,2.6,2.5,2.6
				C239.5,16.7,240.4,15.5,240.4,14.1z"/>
			<path class="st1" d="M244.7,9.4h2.7v1.3c0.6-0.8,1.4-1.5,2.8-1.5c1.2,0,2.2,0.5,2.6,1.5c0.8-1,1.8-1.5,3.1-1.5
				c2,0,3.2,1.2,3.2,3.5v6.1h-2.7v-5.2c0-1.3-0.6-1.9-1.6-1.9c-1,0-1.6,0.6-1.6,1.9v5.2h-2.7v-5.2c0-1.3-0.6-1.9-1.6-1.9
				c-1,0-1.6,0.6-1.6,1.9v5.2h-2.7V9.4z"/>
			<path class="st1" d="M260.4,16.1L260.4,16.1c0-2.1,1.6-3,3.8-3c0.9,0,1.6,0.2,2.3,0.4v-0.2c0-1.1-0.7-1.7-2-1.7
				c-1,0-1.7,0.2-2.6,0.5l-0.7-2c1-0.5,2.1-0.8,3.6-0.8c1.5,0,2.5,0.4,3.2,1.1c0.7,0.7,1,1.7,1,3v5.5h-2.6v-1
				c-0.6,0.7-1.5,1.2-2.8,1.2C261.8,18.9,260.4,17.9,260.4,16.1z M266.5,15.5V15c-0.5-0.2-1.1-0.4-1.7-0.4c-1.1,0-1.8,0.5-1.8,1.3v0
				c0,0.7,0.6,1.1,1.5,1.1C265.7,17.1,266.5,16.4,266.5,15.5z"/>
			<path class="st1" d="M271,9.4h2.7v1.3c0.6-0.8,1.4-1.5,2.8-1.5c2,0,3.2,1.3,3.2,3.5v6.1h-2.7v-5.2c0-1.3-0.6-1.9-1.6-1.9
				c-1,0-1.7,0.6-1.7,1.9v5.2H271V9.4z"/>
			<path class="st1" d="M282,16.1v-4.5h-1.1V9.4h1.1V7h2.7v2.4h2.2v2.3h-2.2v4c0,0.6,0.3,0.9,0.9,0.9c0.5,0,0.9-0.1,1.3-0.3v2.1
				c-0.6,0.3-1.2,0.5-2.1,0.5C283.1,18.9,282,18.3,282,16.1z"/>
			<path class="st1" d="M288.5,6h2.8v2.4h-2.8V6z M288.6,9.4h2.7v9.4h-2.7V9.4z"/>
			<path class="st1" d="M293,14.1L293,14.1c0-2.7,2.1-4.9,4.9-4.9c1.8,0,2.9,0.6,3.8,1.6l-1.6,1.8c-0.6-0.6-1.2-1-2.1-1
				c-1.3,0-2.3,1.2-2.3,2.6v0c0,1.4,0.9,2.6,2.4,2.6c0.9,0,1.5-0.4,2.2-1l1.6,1.6c-0.9,1-2,1.7-3.8,1.7C295,19,293,16.8,293,14.1z"
				/>
		</g>
		<path class="st2" d="M217.4,0.5h85.9c5.3,0,9.6,4.3,9.6,9.6V17c0,5.3-4.3,9.6-9.6,9.6h-85.9c-5.3,0-9.6-4.3-9.6-9.6v-6.9
			C207.8,4.8,212.1,0.5,217.4,0.5z"/>
	</g>
</g>
</svg>
