<svg xmlns="http://www.w3.org/2000/svg" viewBox="0 0 35 35"><defs><style>.cls-1{fill:#fff;}</style></defs><title>Asset 65</title><g id="Layer_2" data-name="Layer 2"><g id="Layer_1-2" data-name="Layer 1"><g id="_3KC9uw" data-name="3KC9uw"><path class="cls-1" d="M16.71,0h1.58a1.52,1.52,0,0,0,.21,0A17,17,0,0,1,22,.59a17.32,17.32,0,0,1,9.65,6.67,17,17,0,0,1,3.22,8.37c0,.36.07.72.1,1.08v1.58a1.33,1.33,0,0,0,0,.21,17.22,17.22,0,0,1-1.19,5.44A17.5,17.5,0,0,1,19,34.93a16.89,16.89,0,0,1-6.7-.73,17.32,17.32,0,0,1-9.91-7.92A17,17,0,0,1,.1,19.36c0-.35-.07-.71-.1-1.07V16.71c0-.23.05-.47.07-.7a16.75,16.75,0,0,1,1.17-5A17.4,17.4,0,0,1,9.11,2.14a17.15,17.15,0,0,1,6.51-2Zm5,19.14a7.9,7.9,0,0,0,1.71-1.94,9.13,9.13,0,0,0,1-7.33A7.88,7.88,0,0,0,21,5a6.43,6.43,0,0,0-5.94-.61,7.48,7.48,0,0,0-4,3.67,9.11,9.11,0,0,0-.89,5.87,8.42,8.42,0,0,0,2.88,5.16l.07.08-.14.05a12.94,12.94,0,0,0-3.26,1.58,11,11,0,0,0-5,7.61.32.32,0,0,0,.07.25,15.16,15.16,0,0,0,2.27,2.19,16.72,16.72,0,0,0,10.23,3.69A16.89,16.89,0,0,0,30.13,29a.24.24,0,0,0,.07-.18,9.87,9.87,0,0,0-1.07-3.6,11.93,11.93,0,0,0-5.85-5.45C22.79,19.53,22.27,19.35,21.75,19.14Z"/></g></g></g></svg>