<svg xmlns="http://www.w3.org/2000/svg" viewBox="0 0 598.09 55.91"><defs><style>.cls-1{fill:#fff;}</style></defs><title>Asset 45</title><g id="Layer_2" data-name="Layer 2"><g id="Layer_1-2" data-name="Layer 1"><g id="RUxREB.tif"><path class="cls-1" d="M443.38,1.89a25.23,25.23,0,1,1-30.85,17.87A25.23,25.23,0,0,1,443.38,1.89ZM428.15,15.61l.45.12c.53.15,1.07.27,1.59.45a1.39,1.39,0,0,1,1,1.91L428,29.93c-.21.78-.47.94-1.25.74l-2-.53-1.47,3.24,5.47,1.46-1.2,4.51,3,.79,1.16-4.38,2.15.57-1.16,4.38,2.67.72,1.16-4.35c1.4.11,2.74.3,4.07.31a5.53,5.53,0,0,0,4.14-1.54,7.18,7.18,0,0,0,1.81-3.36,4.52,4.52,0,0,0-2-5.41l-.6-.4.2-.07a4.92,4.92,0,0,0,3-6.58,5.88,5.88,0,0,0-2.74-2.68c-.74-.41-1.53-.73-2.34-1.11l1.2-4.52L440.56,11l-1.18,4.44-2.16-.57,1.18-4.45-2.94-.79-1.22,4.58L428.9,12.8Z"/><path class="cls-1" d="M434.21,26.33c.72.19,1.44.36,2.14.58a10.68,10.68,0,0,1,3.5,1.59A2.65,2.65,0,0,1,440.7,32a2.4,2.4,0,0,1-1.57,1.17,6.8,6.8,0,0,1-2.62.09c-.39,0-.79-.09-1.18-.18-.9-.23-1.8-.48-2.73-.73Z"/><path class="cls-1" d="M434.94,23.57l1.45-5.43A12.28,12.28,0,0,1,441,19.86a2.5,2.5,0,0,1,.68,3.4,2.54,2.54,0,0,1-2.18,1.12,8.43,8.43,0,0,1-2-.15C436.64,24.07,435.81,23.81,434.94,23.57Z"/></g><path class="cls-1" d="M573.11,1.29a25,25,0,1,0,25,25A25,25,0,0,0,573.11,1.29Zm0,41.43L562.19,27.35a2.34,2.34,0,0,1,.29.13q5.16,3,10.32,6.08a.54.54,0,0,0,.63,0l10.19-6a.85.85,0,0,1,.35-.11ZM582.73,26q-4.65,2.76-9.32,5.5a.45.45,0,0,1-.53.05q-5.25-3.12-10.5-6.2l-.24-.16,11-18.13,11,18.14Z"/><path class="cls-1" d="M530.87,21.85A25.05,25.05,0,0,0,516.62,3.27,23.45,23.45,0,0,0,504.74.9a24.9,24.9,0,0,0-20.06,11.36,23.57,23.57,0,0,0-4.18,15.12c.72,10.57,6,18.05,15.71,22.39A22.58,22.58,0,0,0,504,51.6a2.7,2.7,0,0,1,.39.08h3c1-.13,2-.21,2.93-.4A25.08,25.08,0,0,0,528.86,37a23.41,23.41,0,0,0,2.32-8.85,3,3,0,0,1,.09-.43v-3C531.14,23.8,531.05,22.82,530.87,21.85ZM518.16,39H494.64c.79-3,1.58-6,2.39-9l-3.39,1.23c.37-1.42.72-2.74,1.09-4.05,0-.12.21-.23.35-.28.83-.32,1.66-.65,2.51-.92a1,1,0,0,0,.74-.8q1.91-7.26,3.85-14.5c0-.07,0-.13.06-.21h8.83c-1,3.88-2.05,7.74-3.11,11.7l4.38-1.59c-.2.78-.37,1.46-.55,2.14a5.06,5.06,0,0,1-.62,2c-.43.46-1.27.55-1.93.8s-1.4.51-2.09.78a.66.66,0,0,0-.37.34c-.59,2.17-1.16,4.34-1.73,6.51a1.42,1.42,0,0,0,0,.23h14.63C519.16,35.25,518.66,37.11,518.16,39Z"/><path class="cls-1" d="M369.86,0a26.27,26.27,0,1,0,26.27,26.27A26.26,26.26,0,0,0,369.86,0ZM348.4,26.4l12.16-13.31a9.8,9.8,0,0,0-.23,5.08L353,26.4l7.27,8.22a9.86,9.86,0,0,0,.23,4.77c0,.16.09.31.15.47Zm29.05,14.39A8.6,8.6,0,0,1,367.73,45a8.09,8.09,0,0,1-6.11-6,9,9,0,0,1-.38-2.56,8.28,8.28,0,0,1,2.41-5.74c.6-.65,1.25-1.29,1.88-1.91l.37-.36L367.47,30l0,0c1.67,1.68,3.23,3.25,4.74,4.92a2.24,2.24,0,0,1,.6,1.56,3.17,3.17,0,0,1-1,2.2L366,32.43l-.56.69a5.45,5.45,0,0,0-1.33,3.48,5.81,5.81,0,0,0,.17,1.35,5.72,5.72,0,0,0,4.88,4.41c.23,0,.45,0,.68,0a5.77,5.77,0,0,0,5.74-5.75A5.62,5.62,0,0,0,374,32.74l-.43-.45-.26-.28-.25-.25c-.81-.83-1.62-1.65-2.42-2.48l-2.4-2.48-.56-.58s-.74-.75-1-1l-.09-.1-3-3.05A8.71,8.71,0,0,1,361.23,16a8.26,8.26,0,0,1,1-4.08,8.58,8.58,0,0,1,7.52-4.48,9.07,9.07,0,0,1,2.19.28,8.1,8.1,0,0,1,6.11,6,9,9,0,0,1,.38,2.56A8.28,8.28,0,0,1,376.07,22c-.62.68-1.31,1.35-1.92,1.94l-.33.33-1.59-1.6c-1.66-1.67-3.23-3.24-4.75-4.92a2.29,2.29,0,0,1-.6-1.56,3.17,3.17,0,0,1,1-2.2l5.83,6.3.56-.69a5.45,5.45,0,0,0,1.33-3.49,5.79,5.79,0,0,0-.17-1.34,5.71,5.71,0,0,0-4.88-4.41,5.07,5.07,0,0,0-.68,0,5.82,5.82,0,0,0-5.07,3.07A5.64,5.64,0,0,0,365.7,20l.38.4.26.28.63.63c.7.72,1.4,1.43,2.09,2.15s1.57,1.61,2.35,2.42l.61.63,1,1,.08.1,3,3a8.64,8.64,0,0,1,2.45,6.06A8.4,8.4,0,0,1,377.45,40.79Zm1.71-1.15a9.8,9.8,0,0,0,.23-5.08l7.29-8.23-7.27-8.22a9.73,9.73,0,0,0-.23-4.77l-.14-.47,12.28,13.46Z"/><path class="cls-1" d="M301.1.5a25.77,25.77,0,1,0,25.77,25.77A25.76,25.76,0,0,0,301.1.5Zm0,5.94a19.56,19.56,0,0,1,13.81,5.7h-2.79a17.7,17.7,0,0,0-22,0H287.3A19.52,19.52,0,0,1,301.1,6.44Zm10.5,5.7h-1.93a16.31,16.31,0,0,0-17.13,0H290.6a17.38,17.38,0,0,1,21,0ZM295.73,44.9a19.6,19.6,0,0,1-11.59-28.67l1.31,1.44A17.76,17.76,0,0,0,295.73,43Zm0-2.27a17.41,17.41,0,0,1-10-24.71l.78.87a16.32,16.32,0,0,0,9.26,22.69ZM297,45.71V19.79h1.65L300.47,22l.09,26.65Zm8.27,1.66-3.71,3.08V21.31l-2.43-2.75H288.13l-4.71-5.21h16.79l5,6.32Zm-3.65-34h16.6L314,18.59h-8.17Zm14.07,5.27.74-.94a17.28,17.28,0,0,1,2.15,8.37,17.48,17.48,0,0,1-12,16.57V41.46a16.33,16.33,0,0,0,9.12-22.84Zm-9.12,26.27V43a17.78,17.78,0,0,0,12.33-16.9,17.59,17.59,0,0,0-2.26-8.65l1.23-1.57a19.6,19.6,0,0,1-11.3,29.06Z"/><g id="fumKIn"><path class="cls-1" d="M168,16.9a8.6,8.6,0,0,0-8.85-8.62c-13.25,0-26.5.05-39.76,0a8.84,8.84,0,0,0-8.88,7.33,1,1,0,0,1-.11.26V40.63c.15.53.27,1.06.45,1.58A8.66,8.66,0,0,0,119,48.14h40.11a8.63,8.63,0,0,0,8.8-8.61Q168,28.22,168,16.9ZM120,19.65a2.24,2.24,0,0,1,2,1.87q.56,2.76,1.1,5.52a1.07,1.07,0,0,1,0,.24c-2-4-5.41-6-9.21-7.65C115.94,19.63,118,19.59,120,19.65Zm6,14.57a.85.85,0,0,1-1,.64c-1.25,0-2.5,0-3.81,0L118,22.6c2,.69,4.71,4.17,5.86,7.76l.29-.77c1.06-3.14,2.13-6.27,3.15-9.42a.75.75,0,0,1,.88-.62c1.18,0,2.36,0,3.69,0-.32.8-.6,1.52-.89,2.23C129.31,25.93,127.63,30.07,126,34.22Zm5.07.59c.8-5.09,1.6-10.13,2.41-15.2h4.15c-.83,5.09-1.65,10.14-2.48,15.2Zm16.45-1.75A7.9,7.9,0,0,1,141,35.28c-1.11-.13-2.2-.44-3.36-.68.27-1.24.5-2.25.73-3.32a8.79,8.79,0,0,0,4.3.84,4.57,4.57,0,0,0,1.41-.31,1.25,1.25,0,0,0,.32-2.23,9.74,9.74,0,0,0-1.4-.89c-.62-.37-1.29-.66-1.87-1.07a4.36,4.36,0,0,1,.35-7.31,9,9,0,0,1,6.94-.64,4.11,4.11,0,0,0,.6.17c.5.07.57.33.47.78-.2.9-.35,1.81-.52,2.7a9.47,9.47,0,0,0-2.1-.78,8.42,8.42,0,0,0-2.45.14,1.08,1.08,0,0,0-1,1.13,1.79,1.79,0,0,0,.66,1.11,9.55,9.55,0,0,0,1.55.91c.42.24.86.47,1.27.72C149.75,28.28,149.42,31.25,147.51,33.06Zm12,1.76c-.11,0-.27-.27-.32-.44-.13-.54-.22-1.09-.34-1.68-1.58,0-3.13,0-4.68,0-.16,0-.31.19-.46.3a.38.38,0,0,0-.09.18c-.23.54-.31,1.28-.71,1.54s-1.16.11-1.76.12h-2.25c.64-1.46,1.22-2.81,1.81-4.16,1.52-3.46,3-6.9,4.54-10.37a1,1,0,0,1,1.17-.78c1.1.07,2.22,0,3.42,0,1.06,5.1,2.1,10.13,3.18,15.28C161.75,34.84,160.6,34.86,159.46,34.82Z"/><path class="cls-1" d="M157.08,24l1.17,5.74h-3.36Z"/></g><g id="drcYIa"><path class="cls-1" d="M219.26,8.5a21.5,21.5,0,0,0-7.89,16.79c0,6.78,2.77,12.33,7.92,16.82a18.91,18.91,0,0,1-8,3.14A19.74,19.74,0,0,1,196,41.42,20.17,20.17,0,0,1,219.26,8.5Z"/><path class="cls-1" d="M221.92,42.08a21.5,21.5,0,0,0,7.89-16.79,21.53,21.53,0,0,0-7.87-16.77C227.37,4.44,238.14,3,246.27,10a20.16,20.16,0,0,1-24.35,32Z"/><path class="cls-1" d="M228.34,25.28a20.11,20.11,0,0,1-6.07,14.4c-.44.43-.91.82-1.36,1.25a.41.41,0,0,1-.64,0,20.54,20.54,0,0,1-5-6,19.82,19.82,0,0,1-2-5.62,19.56,19.56,0,0,1-.17-7,20.08,20.08,0,0,1,7.2-12.65.41.41,0,0,1,.62,0A20.11,20.11,0,0,1,227,18.09a18.41,18.41,0,0,1,1.28,6.27C228.28,24.67,228.32,25,228.34,25.28Z"/><path class="cls-1" d="M192.48,50.24l.07.48a2.22,2.22,0,0,1,3.3.22,5,5,0,0,1,.56-.47A2.16,2.16,0,0,1,199.84,52c.09,1.12,0,2.24,0,3.37a.4.4,0,0,1-.25.24c-.29,0-.58,0-1,0,0-.26,0-.47,0-.69,0-.93,0-1.85-.1-2.77a1,1,0,0,0-1.12-1,1.19,1.19,0,0,0-1.2,1c0,.85,0,1.71,0,2.56,0,.17,0,.34,0,.51s-.1.32-.33.32c-1,0-.88.12-.9-.84s0-1.68-.06-2.52a1.06,1.06,0,0,0-1-1.06,1.16,1.16,0,0,0-1.26.93c-.08.67-.07,1.34-.09,2,0,.4,0,.79,0,1.18a.42.42,0,0,1-.29.29c-.93.09-.93.08-.93-.84,0-1.37,0-2.75,0-4.13,0-.34.11-.45.44-.42S192.21,50.24,192.48,50.24Z"/><path class="cls-1" d="M248.85,50.66V48.92c0-.88,0-.87.87-.85.3,0,.39.13.39.41,0,1,0,2,0,2.94,0,1.25,0,2.5,0,3.75,0,.38-.12.52-.49.47s-.77.19-.82-.41c-1.65.77-2.84.62-3.67-.45a3,3,0,0,1,.05-3.78C246,50,247.25,49.85,248.85,50.66Zm.09,2.26a1.6,1.6,0,1,0-3.19,0,1.58,1.58,0,0,0,1.61,1.68A1.56,1.56,0,0,0,248.94,52.92Z"/><path class="cls-1" d="M205.1,50.64c.09-.14.16-.36.25-.37a4.4,4.4,0,0,1,1,0c.05,0,.11.18.11.28,0,1.59,0,3.17,0,4.76,0,.23-.09.34-.33.32h-.37c-.32,0-.56,0-.58-.47a2.54,2.54,0,0,1-2.45.47,2.58,2.58,0,0,1-1.43-1.12,3,3,0,0,1,.38-3.65A2.61,2.61,0,0,1,205.1,50.64Zm.17,2.33a1.63,1.63,0,0,0-1.59-1.75,1.65,1.65,0,0,0-1.6,1.71,1.58,1.58,0,0,0,1.6,1.68A1.55,1.55,0,0,0,205.27,53Z"/><path class="cls-1" d="M238,50.7l.09-.43h1.12V55.6h-1.12l-.09-.49a2.3,2.3,0,0,1-2,.63,2.57,2.57,0,0,1-1.8-1,3.06,3.06,0,0,1,.2-3.77C235.39,49.92,236.64,49.84,238,50.7ZM235,52.92a1.58,1.58,0,0,0,1.59,1.69,1.62,1.62,0,0,0,1.62-1.68,1.69,1.69,0,0,0-1.61-1.72A1.65,1.65,0,0,0,235,52.92Z"/><path class="cls-1" d="M223.41,53.39h-3.86a1.15,1.15,0,0,0,.87,1.18,2.2,2.2,0,0,0,1.85-.28c.25-.15.38-.16.52.12a4.5,4.5,0,0,0,.37.56,3.09,3.09,0,0,1-4.61-.54,3,3,0,0,1,1-4,2.58,2.58,0,0,1,3.9,2.21C223.42,52.86,223.41,53.08,223.41,53.39Zm-1.32-1a1.19,1.19,0,0,0-1.41-1.19,1.17,1.17,0,0,0-1.13,1.19Z"/><path class="cls-1" d="M211.64,51.48c-.64-.09-1.27-.2-1.92-.27a.66.66,0,0,0-.46.15.72.72,0,0,0-.24.45c0,.11.18.29.31.33.41.11.84.17,1.27.26a2.14,2.14,0,0,1,1.48.77,1.6,1.6,0,0,1-.77,2.31,4,4,0,0,1-3.46-.2c-.28-.14-.38-.3-.15-.57a4.1,4.1,0,0,0,.31-.48,15.13,15.13,0,0,0,1.7.43,1.91,1.91,0,0,0,.94-.13.65.65,0,0,0,.36-.48c0-.13-.22-.36-.39-.41-.59-.16-1.2-.24-1.79-.41a1.4,1.4,0,0,1-1.11-1.4,1.59,1.59,0,0,1,1.08-1.54,4.13,4.13,0,0,1,3.07.2c.26.12.31.24.16.48s-.25.43-.37.65Z"/><path class="cls-1" d="M214.13,50.25V48.66h1.22c0,.41,0,.81,0,1.21s.08.39.37.38.81,0,1.22,0c.25,0,.34.09.33.34,0,.91.06.74-.72.76h-1.17c0,.91-.05,1.8,0,2.67,0,.54.62.74,1.27.52s.53-.18.68.32.18.61-.38.74a4.41,4.41,0,0,1-1.49.12,1.5,1.5,0,0,1-1.32-1.56c0-.77,0-1.54,0-2.31v-.51h-1.06V50.25Z"/><path class="cls-1" d="M232.59,54.15c.13.21.22.39.35.56s.17.48-.17.68a3.1,3.1,0,0,1-4-.9A2.85,2.85,0,0,1,231,50.1a3.07,3.07,0,0,1,1.85.41c.22.14.36.27.14.53a1,1,0,0,0-.14.25c-.14.33-.29.41-.66.2a1.63,1.63,0,0,0-2.5.86,1.67,1.67,0,0,0,.39,1.82,1.76,1.76,0,0,0,1.84.32C232.13,54.4,232.34,54.28,232.59,54.15Z"/><path class="cls-1" d="M225.84,50.7a1.88,1.88,0,0,1,1.74-.58c.34.05.49.18.33.54a6.63,6.63,0,0,0-.25.67,4.53,4.53,0,0,0-.88-.09c-.63.08-.95.5-1,1.22s0,1.74,0,2.62c0,.56,0,.56-.55.56h-.38c-.22,0-.29-.09-.29-.3V50.53c0-.22.08-.3.3-.29h.46C225.63,50.22,225.86,50.26,225.84,50.7Z"/><path class="cls-1" d="M244.2,50.28l-.14.47c-.18.58-.19.58-.79.48A1.16,1.16,0,0,0,242,52.49c0,.91,0,1.82,0,2.74,0,.34-.1.43-.43.42-.89,0-.78.09-.78-.79,0-1.38,0-2.75,0-4.13,0-.38.09-.54.49-.49.22,0,.44,0,.68,0l.06.5A1.82,1.82,0,0,1,244.2,50.28Z"/><path class="cls-1" d="M252,55.91a.48.48,0,0,1-.47-.51c0-.37.16-.57.5-.58a.57.57,0,0,1,.59.53A.59.59,0,0,1,252,55.91Z"/><path class="cls-1" d="M252.47,37.76l-.07-.19-.66.15V37l.09,0,.3.38.31-.37h.12l0,.75Z"/><path class="cls-1" d="M251,37h.47l-.27.83Z"/></g><g id="Y3A5SD"><path class="cls-1" d="M37.9,45C35,45,35,45,36.29,42.78a26.5,26.5,0,0,1,1.35-2.32,3.7,3.7,0,0,0,.53-3C37.47,33.33,36.74,29.16,36,25c-.06-.34-.1-.68-.15-1a.89.89,0,0,1,.91-1.11H37c3.78,0,3.73-.14,4.24,3.25.24,1.6.49,3.2.79,4.79,0,.28-.12.77.39.82s.44-.37.59-.62c1.29-2.19,2.6-4.38,3.84-6.6a2.88,2.88,0,0,1,2.93-1.67,23.62,23.62,0,0,0,2.38,0c.72,0,.85.33.57.91s-.5,1-.78,1.45c-3.46,5.86-7,11.7-10.37,17.6C40.64,44.41,39.57,45.42,37.9,45Z"/><path class="cls-1" d="M93.92,18.34c2.3,0,2.37.09,1.87,2.34q-1.7,7.7-3.38,15.39c-.35,1.62-.79,2-2.45,2-2.82,0-2.84,0-2.23-2.76Q89.35,28,91,20.72C91.44,18.53,91.65,18.34,93.92,18.34Z"/><path class="cls-1" d="M79.8,36.65c.12.08.15.22.15.89C79.62,37.29,79.81,37,79.8,36.65Z"/><path class="cls-1" d="M19.34,22.19c-.5-2.18-2.42-3.6-5.27-3.89s-5.58-.15-8.37-.18c-1.08,0-1.59.63-1.82,1.62Q2.11,27.6.31,35.44C-.27,38-.26,38,2.28,38H3c1.59,0,1.93-.27,2.28-1.78.21-.94.43-1.88.64-2.81.36-1.61.65-1.84,2.3-1.87a15,15,0,0,0,7.92-1.93A7.13,7.13,0,0,0,19.34,22.19ZM13,26.48a5.52,5.52,0,0,1-3.75,1.28c-1.71,0-2-.31-1.66-1.82.21-.93.43-1.87.65-2.8A1.55,1.55,0,0,1,10,21.81a12.88,12.88,0,0,1,1.64.09c1,.15,2,.34,2.26,1.47A3,3,0,0,1,13,26.48Z"/><path class="cls-1" d="M71.6,21.94c-.64-2.37-2.56-3.19-4.75-3.5a66.51,66.51,0,0,0-8.47-.22c-1.42,0-1.8.3-2.12,1.72q-1.8,7.85-3.58,15.69c-.55,2.4-.51,2.44,1.93,2.44h.52c1.91,0,2.14-.19,2.58-2,.23-1,.5-2,.71-3a1.66,1.66,0,0,1,1.83-1.45c.76,0,1.52,0,2.27-.07,2.76-.26,5.38-.91,7.39-3A6.53,6.53,0,0,0,71.6,21.94Zm-6.11,4.55A5,5,0,0,1,62,27.79c-2.17.05-2.38-.22-2-1.9.2-.83.38-1.67.58-2.5a2.09,2.09,0,0,1,.52-1.1c.79-.72,3.78-.5,4.67.37S66.53,25.45,65.49,26.49Z"/><path class="cls-1" d="M31.48,23.05A18.18,18.18,0,0,0,24,23c-2.25.38-2.53.71-2.9,2.93-.13.77.11,1,.9.81a19.34,19.34,0,0,1,2.6-.64,8.26,8.26,0,0,1,4,.2,1.27,1.27,0,0,1,1,1.41c-.05.73-.66.59-1.1.63a35.18,35.18,0,0,0-5.21.76,7.46,7.46,0,0,0-4.33,2.4,5,5,0,0,0-.54,5.07c.95,1.63,2.48,2,4.25,1.91a9.25,9.25,0,0,0,4.85-1.89C27.31,37.9,28,38.1,29,38.06c.55,0,1.1,0,1.65,0a1.55,1.55,0,0,0,1.61-1.32c.69-3.08,1.45-6.16,2.09-9.25C34.83,25.1,33.84,23.63,31.48,23.05Zm-2.91,9.12c-.57,2.34-1.87,3.29-4.14,3.08A1.53,1.53,0,0,1,23,34a1.58,1.58,0,0,1,.61-1.73c1.19-1,2.67-1,3.77-1.19C28.84,31,28.85,31,28.57,32.17Z"/><path class="cls-1" d="M83.88,23.05A18.18,18.18,0,0,0,76.39,23c-2.24.38-2.53.73-2.87,2.94-.12.82.17,1,.9.77a14,14,0,0,1,2.7-.65,8.15,8.15,0,0,1,4,.28,1.24,1.24,0,0,1,.84,1.38c0,.64-.6.57-1,.62-1,.12-2,.18-3,.33a12.23,12.23,0,0,0-5.54,1.78,5,5,0,0,0-1.87,5.67c.64,1.68,2.51,2.57,4.83,2.36a10.86,10.86,0,0,0,4.44-1.8c.25.26,0,.61.15.89.86,1,2,.41,3,.5a1.49,1.49,0,0,0,1.7-1.31c.71-3.09,1.48-6.16,2.11-9.25C87.25,25.09,86.24,23.63,83.88,23.05ZM77.16,35.28A1.56,1.56,0,0,1,75.36,34a2,2,0,0,1,1.28-2.12,12.54,12.54,0,0,1,4-.78c.37,0,.46.16.45.51A3.58,3.58,0,0,1,77.16,35.28Z"/></g></g></g></svg>