<svg xmlns="http://www.w3.org/2000/svg" viewBox="0 0 38.4 35.36"><defs><style>.cls-1{fill:#fff;}</style></defs><title>Asset 44</title><g id="Layer_2" data-name="Layer 2"><g id="Layer_1-2" data-name="Layer 1"><g id="jwK3At"><path class="cls-1" d="M28.93,4.08C28,4.65,27,5.19,26.09,5.79a.69.69,0,0,1-.89,0,13.66,13.66,0,0,0-6.85-2.18,14,14,0,0,0-14.15,10A13.67,13.67,0,0,0,7.46,27.35a13.28,13.28,0,0,0,7.84,4.2A13.75,13.75,0,0,0,27.21,28a13.68,13.68,0,0,0,4.34-7.91,14.27,14.27,0,0,0-.09-5.37.31.31,0,0,1,.05-.27c.94-.85,1.89-1.68,2.85-2.53a17.66,17.66,0,1,1-5.43-7.86Z"/><path class="cls-1" d="M17.79,17.63c.41-.56.8-1.12,1.2-1.65A32.66,32.66,0,0,1,32.19,5.54a13.25,13.25,0,0,1,4.61-1.1,3.34,3.34,0,0,1,1,.1.65.65,0,0,1,.39,1.08,5.91,5.91,0,0,1-1,.91c-1.72,1.37-3.49,2.69-5.19,4.09A50.75,50.75,0,0,0,21.91,21.89c-.59.91-1.16,1.83-1.73,2.74a2.93,2.93,0,0,1-2.73,1.54,2.64,2.64,0,0,1-1.64-.71,4.89,4.89,0,0,1-1-1.31A55.17,55.17,0,0,0,11,18.22a34.94,34.94,0,0,0-2.27-2.73,5.63,5.63,0,0,1-.67-1,1.09,1.09,0,0,1,.18-1.35A5.28,5.28,0,0,1,9.9,11.88a2.88,2.88,0,0,1,3.13.24,13.82,13.82,0,0,1,3.34,3.44c.44.61.85,1.25,1.28,1.87Z"/></g></g></g></svg>