<svg xmlns="http://www.w3.org/2000/svg" viewBox="0 0 94.22 76.86"><defs><style>.cls-1,.cls-2{fill:#a02c72;}.cls-2{stroke:#a02c72;stroke-miterlimit:10;stroke-width:1.5px;}</style></defs><title>Asset 20</title><g id="Layer_2" data-name="Layer 2"><g id="Layer_1-2" data-name="Layer 1"><g id="hoLiep"><path class="cls-1" d="M78.15,27.23a33.87,33.87,0,0,0-2.68-6.53c-.4-.72-.84-1.43-1.3-2.12a.63.63,0,0,0-.54-.23,121,121,0,0,1-14.48,2.52,94.93,94.93,0,0,1,1.3,13.93h8l0,.15-4.58,3a1.23,1.23,0,0,1-.61.1H60.4c0,.6,0,1.14,0,1.68a.68.68,0,0,1-.39.67c-1,.55-2,1.13-2.94,1.71v-4H35.23a84.09,84.09,0,0,0,1.32,13.74c-2.11.7-4.29,1.48-6.5,2.16a72.5,72.5,0,0,1-12.54,2.75,1.74,1.74,0,0,1-2-.9,35,35,0,0,1-5.43-22.45c1.32-13,7.72-23,19.32-29.18,19.45-10.42,43.87-.79,51.19,20a.62.62,0,0,1-.18.78C79.67,25.72,79,26.44,78.15,27.23Zm-21,7.54A82.44,82.44,0,0,0,55.88,21.2a120,120,0,0,1-19.33,0C35.91,23.56,35,33.13,35.3,34.77ZM32,38.14H13.31c0,.31,0,.55,0,.8a33,33,0,0,0,5,15.14.72.72,0,0,0,.92.38q5.3-1,10.61-2c1.12-.2,2.26-.31,3.46-.47A91.82,91.82,0,0,1,32,38.14ZM13.17,34.77H31.94a93.55,93.55,0,0,1,1.31-13.88l-.37-.05A118.07,118.07,0,0,1,19,18.39c-.37-.09-.5,0-.67.31a32.87,32.87,0,0,0-4.43,11C13.61,31.37,13.43,33,13.17,34.77Zm42-16.87a1,1,0,0,0,0-.25,40.17,40.17,0,0,0-3.39-9.38A13.13,13.13,0,0,0,49,4.51a3.7,3.7,0,0,0-5.42,0,12.69,12.69,0,0,0-2.89,3.82,39.2,39.2,0,0,0-3.39,9.39,1,1,0,0,0,0,.25C39.54,18.45,53.23,18.44,55.16,17.9ZM53.09,4.06A24.65,24.65,0,0,1,56.18,10c.82,2.37,1.5,4.81,2.22,7.22.09.31.18.47.52.39.14,0,.29,0,.43,0a114.49,114.49,0,0,0,11.78-2l.78-.19A33,33,0,0,0,53.09,4.06Zm-13.87.06c-5.3.4-16.18,7.08-18.42,11.3l.09.05a112.71,112.71,0,0,0,12.62,2.14c.32,0,.42-.08.49-.38a43.74,43.74,0,0,1,3.27-9.65C37.86,6.4,38.56,5.28,39.22,4.12Z"/><path class="cls-2" d="M83.85,11.78c.64.61,1.28,1.2,1.91,1.82A1.63,1.63,0,0,1,83.49,16c-2-1.87-4-3.72-5.94-5.61a1.86,1.86,0,0,1,.6-3.1c2.51-1,5-2,7.54-3a1.64,1.64,0,1,1,1.18,3.05c-.81.33-1.64.65-2.46,1.07a8.09,8.09,0,0,1,1.09.22A25.85,25.85,0,0,1,89.33,10c3.33,1.71,4.72,5,3.92,8.76a19.87,19.87,0,0,1-3.53,7.35,58,58,0,0,1-9.84,10.33,130.35,130.35,0,0,1-22,14.92A138,138,0,0,1,30.57,62.88a69.72,69.72,0,0,1-13.1,2.69A26.82,26.82,0,0,1,7.22,65a12.53,12.53,0,0,1-2.49-1C1.4,62.13.09,58.84,1.07,54.9a20.26,20.26,0,0,1,3.24-6.67A1.63,1.63,0,0,1,7,50.09a18,18,0,0,0-2.41,4.57,11.53,11.53,0,0,0-.51,2.79,3.66,3.66,0,0,0,1.73,3.32,9.34,9.34,0,0,0,4.27,1.48,35.9,35.9,0,0,0,10.75-.48,103,103,0,0,0,25.54-8.34A141.59,141.59,0,0,0,74.61,36.54,66.14,66.14,0,0,0,85.9,25.71a20.41,20.41,0,0,0,3.75-6.35,10.53,10.53,0,0,0,.49-2.95,3.6,3.6,0,0,0-1.61-3.12A8.79,8.79,0,0,0,83.85,11.78Z"/><path class="cls-1" d="M82.59,38.46A36.32,36.32,0,0,1,23,68.36c1.32-.29,2.62-.59,3.93-.85a.86.86,0,0,1,.56.2,33.22,33.22,0,0,0,11.37,5l.51.09A29.08,29.08,0,0,1,35.52,65l3.09-1.08c.18.49.36.95.53,1.4A21.4,21.4,0,0,0,42,70.66a11.76,11.76,0,0,0,2.1,2.13,3.37,3.37,0,0,0,4.36,0,10.27,10.27,0,0,0,2.74-3.13,34.72,34.72,0,0,0,3.71-9.31c.12-.46.23-.91.36-1.44l-4.07-.26,8.24-4.23L59.17,56c1.43.19,2.82.33,4.18.58,3.4.63,6.8,1.3,10.19,2,.28,0,.48.08.66-.21a32.84,32.84,0,0,0,5.16-15.89c0-.09,0-.17,0-.32l-.52,0-.53,0ZM53,72.88A33.22,33.22,0,0,0,71.89,61.51l-.44-.13A114.07,114.07,0,0,0,59.26,59.3c-.75-.08-.75-.07-.94.7a41,41,0,0,1-3.8,10.45C54.07,71.25,53.57,72,53,72.88Z"/></g></g></g></svg>