<svg xmlns="http://www.w3.org/2000/svg" xmlns:xlink="http://www.w3.org/1999/xlink" viewBox="0 0 267.25 70.85"><defs><style>.cls-1{fill:none;}.cls-2{clip-path:url(#clip-path);}.cls-3{fill:url(#linear-gradient);}.cls-11,.cls-14,.cls-17,.cls-19,.cls-20,.cls-22,.cls-23,.cls-24,.cls-26,.cls-29,.cls-32,.cls-37,.cls-38,.cls-4,.cls-40,.cls-41,.cls-42,.cls-44,.cls-47,.cls-5,.cls-50,.cls-53,.cls-55,.cls-60,.cls-62,.cls-67,.cls-69,.cls-7,.cls-74,.cls-76,.cls-8,.cls-9{opacity:0.8;}.cls-4{fill:url(#linear-gradient-2);}.cls-5{fill:url(#radial-gradient);}.cls-6{fill:url(#linear-gradient-3);}.cls-7{fill:url(#linear-gradient-4);}.cls-8{fill:url(#linear-gradient-5);}.cls-9{fill:url(#linear-gradient-6);}.cls-10{fill:url(#linear-gradient-7);}.cls-11{fill:url(#linear-gradient-8);}.cls-12{fill:url(#radial-gradient-2);}.cls-13{fill:url(#radial-gradient-3);}.cls-14{fill:url(#linear-gradient-9);}.cls-15{fill:url(#linear-gradient-10);}.cls-16{fill:url(#radial-gradient-4);}.cls-17{fill:url(#linear-gradient-11);}.cls-18{fill:url(#linear-gradient-12);}.cls-19{fill:url(#linear-gradient-13);}.cls-20{fill:url(#radial-gradient-5);}.cls-21{fill:url(#linear-gradient-14);}.cls-22{fill:url(#linear-gradient-15);}.cls-23{fill:url(#linear-gradient-16);}.cls-24{fill:url(#linear-gradient-17);}.cls-25{fill:url(#linear-gradient-18);}.cls-26{fill:url(#linear-gradient-19);}.cls-27{fill:url(#radial-gradient-6);}.cls-28{fill:url(#radial-gradient-7);}.cls-29{fill:url(#linear-gradient-20);}.cls-30{fill:url(#linear-gradient-21);}.cls-31{fill:url(#radial-gradient-8);}.cls-32{fill:url(#linear-gradient-22);}.cls-33{fill:#fff;}.cls-34{fill:#94416f;}.cls-35{clip-path:url(#clip-path-2);}.cls-36{fill:url(#linear-gradient-23);}.cls-37{fill:url(#linear-gradient-24);}.cls-38{fill:url(#radial-gradient-9);}.cls-39{fill:url(#linear-gradient-25);}.cls-40{fill:url(#linear-gradient-26);}.cls-41{fill:url(#linear-gradient-27);}.cls-42{fill:url(#linear-gradient-28);}.cls-43{fill:url(#linear-gradient-29);}.cls-44{fill:url(#linear-gradient-30);}.cls-45{fill:url(#radial-gradient-10);}.cls-46{fill:url(#radial-gradient-11);}.cls-47{fill:url(#linear-gradient-31);}.cls-48{fill:url(#linear-gradient-32);}.cls-49{fill:url(#radial-gradient-12);}.cls-50{fill:url(#linear-gradient-33);}.cls-51{clip-path:url(#clip-path-3);}.cls-52{fill:#ee3f57;}.cls-53{fill:url(#linear-gradient-34);}.cls-54{fill:url(#linear-gradient-35);}.cls-55{fill:url(#linear-gradient-36);}.cls-56{fill:url(#radial-gradient-13);}.cls-57{fill:url(#radial-gradient-14);}.cls-58{fill:url(#radial-gradient-15);}.cls-59{clip-path:url(#clip-path-4);}.cls-60{fill:url(#linear-gradient-37);}.cls-61{fill:url(#linear-gradient-38);}.cls-62{fill:url(#linear-gradient-39);}.cls-63{fill:url(#radial-gradient-16);}.cls-64{fill:url(#radial-gradient-17);}.cls-65{fill:url(#radial-gradient-18);}.cls-66{clip-path:url(#clip-path-5);}.cls-67{fill:url(#linear-gradient-40);}.cls-68{fill:url(#linear-gradient-41);}.cls-69{fill:url(#linear-gradient-42);}.cls-70{fill:url(#radial-gradient-19);}.cls-71{fill:url(#radial-gradient-20);}.cls-72{fill:url(#radial-gradient-21);}.cls-73{clip-path:url(#clip-path-6);}.cls-74{fill:url(#linear-gradient-43);}.cls-75{fill:url(#linear-gradient-44);}.cls-76{fill:url(#linear-gradient-45);}.cls-77{fill:url(#radial-gradient-22);}.cls-78{fill:url(#radial-gradient-23);}.cls-79{fill:url(#radial-gradient-24);}</style><clipPath id="clip-path"><path class="cls-1" d="M239.19,36.3l10.95-13.72c3.27-4.28,9.63,1.19,6,5.28-3.77,4.47-7.74,9.32-11.51,14.29l12.84,16c3.46,4.72-3.47,9.26-6.86,4.6L239.06,47.88,227.67,63c-3.21,4.6-10.32-.56-6.73-4.84l12.65-16.05c-4-5-7.8-9.82-11.64-14.29-4-4.72,3.39-9.56,6.29-5.16Z"/></clipPath><linearGradient id="linear-gradient" x1="211.15" y1="42.8" x2="267.25" y2="42.8" gradientTransform="translate(197.95 -196.68) rotate(70.08)" gradientUnits="userSpaceOnUse"><stop offset="0" stop-color="#fdf390"/><stop offset="0.24" stop-color="#fdef8c"/><stop offset="0.49" stop-color="#fce381"/><stop offset="0.74" stop-color="#fbce6f"/><stop offset="0.98" stop-color="#fab256"/><stop offset="1" stop-color="#fab054"/></linearGradient><linearGradient id="linear-gradient-2" x1="211.15" y1="44.7" x2="267.25" y2="44.7" gradientUnits="userSpaceOnUse"><stop offset="0.37" stop-color="#fced09" stop-opacity="0"/><stop offset="0.37" stop-color="#fcec0a" stop-opacity="0.01"/><stop offset="0.42" stop-color="#f9cf1f" stop-opacity="0.21"/><stop offset="0.47" stop-color="#f7b531" stop-opacity="0.4"/><stop offset="0.52" stop-color="#f59d42" stop-opacity="0.56"/><stop offset="0.57" stop-color="#f48a4f" stop-opacity="0.7"/><stop offset="0.63" stop-color="#f27a5b" stop-opacity="0.81"/><stop offset="0.7" stop-color="#f16e63" stop-opacity="0.89"/><stop offset="0.77" stop-color="#f16669" stop-opacity="0.95"/><stop offset="0.86" stop-color="#f0616d" stop-opacity="0.99"/><stop offset="1" stop-color="#f05f6e"/></linearGradient><radialGradient id="radial-gradient" cx="239.49" cy="1.71" r="77.14" gradientUnits="userSpaceOnUse"><stop offset="0.37" stop-color="#7ecdf0"/><stop offset="0.51" stop-color="#71c6ed"/><stop offset="1" stop-color="#48b0e3"/></radialGradient><linearGradient id="linear-gradient-3" x1="211.15" y1="46.34" x2="267.25" y2="46.34" gradientUnits="userSpaceOnUse"><stop offset="0" stop-color="#f27b8c"/><stop offset="1" stop-color="#fab054"/></linearGradient><linearGradient id="linear-gradient-4" x1="211.15" y1="46.62" x2="267.25" y2="46.62" gradientUnits="userSpaceOnUse"><stop offset="0" stop-color="#a33e96"/><stop offset="0.09" stop-color="#ad3d8b"/><stop offset="0.24" stop-color="#c7396e"/><stop offset="0.33" stop-color="#da3659"/><stop offset="0.38" stop-color="#dd415b" stop-opacity="0.92"/><stop offset="0.61" stop-color="#ea7864" stop-opacity="0.53"/><stop offset="0.79" stop-color="#f4a06b" stop-opacity="0.24"/><stop offset="0.93" stop-color="#fab96f" stop-opacity="0.07"/><stop offset="1" stop-color="#fcc271" stop-opacity="0"/></linearGradient><linearGradient id="linear-gradient-5" x1="211.15" y1="46.61" x2="267.25" y2="46.61" gradientUnits="userSpaceOnUse"><stop offset="0" stop-color="#f05f6e"/><stop offset="1" stop-color="#f5863b"/></linearGradient><linearGradient id="linear-gradient-6" x1="211.15" y1="53.78" x2="267.25" y2="53.78" gradientUnits="userSpaceOnUse"><stop offset="0" stop-color="#f05f6e"/><stop offset="1" stop-color="#c41f4b"/></linearGradient><linearGradient id="linear-gradient-7" x1="211.32" y1="55.35" x2="267.25" y2="55.35" gradientUnits="userSpaceOnUse"><stop offset="0" stop-color="#7b5ea7" stop-opacity="0"/><stop offset="0.16" stop-color="#8a5195" stop-opacity="0.2"/><stop offset="0.46" stop-color="#a23c75" stop-opacity="0.54"/><stop offset="0.71" stop-color="#b52c5e" stop-opacity="0.79"/><stop offset="0.89" stop-color="#c02350" stop-opacity="0.94"/><stop offset="1" stop-color="#c41f4b"/></linearGradient><linearGradient id="linear-gradient-8" x1="211.15" y1="54.32" x2="267.25" y2="54.32" gradientUnits="userSpaceOnUse"><stop offset="0" stop-color="#33307e"/><stop offset="0.05" stop-color="#422e7c"/><stop offset="0.22" stop-color="#752977"/><stop offset="0.4" stop-color="#a02573"/><stop offset="0.57" stop-color="#c1216f"/><stop offset="0.73" stop-color="#d91f6d"/><stop offset="0.87" stop-color="#e71e6c"/><stop offset="1" stop-color="#ec1d6b"/></linearGradient><radialGradient id="radial-gradient-2" cx="244.07" cy="70.57" r="37.29" gradientUnits="userSpaceOnUse"><stop offset="0" stop-color="#c41f4b" stop-opacity="0"/><stop offset="0.75" stop-color="#491a3e" stop-opacity="0.29"/><stop offset="1" stop-color="#181839" stop-opacity="0.4"/></radialGradient><radialGradient id="radial-gradient-3" cx="265.72" cy="81.8" r="49.56" gradientUnits="userSpaceOnUse"><stop offset="0.34" stop-color="#a33e96" stop-opacity="0.2"/><stop offset="0.48" stop-color="#8d4197" stop-opacity="0.42"/><stop offset="0.72" stop-color="#6c4598" stop-opacity="0.73"/><stop offset="0.9" stop-color="#584899" stop-opacity="0.93"/><stop offset="1" stop-color="#504999"/></radialGradient><linearGradient id="linear-gradient-9" x1="218.98" y1="26" x2="258.93" y2="26" gradientUnits="userSpaceOnUse"><stop offset="0" stop-color="#f05f6e"/><stop offset="0.13" stop-color="#fab054"/><stop offset="0.18" stop-color="#fab359"/><stop offset="0.24" stop-color="#fbba69"/><stop offset="0.3" stop-color="#fbc683"/><stop offset="0.38" stop-color="#fcd6a7"/><stop offset="0.45" stop-color="#feebd4"/><stop offset="0.51" stop-color="#fff"/><stop offset="0.62" stop-color="#fdfbde"/><stop offset="0.71" stop-color="#fcf8c7"/><stop offset="0.8" stop-color="#fcf7c2"/><stop offset="0.99" stop-color="#fcf6bd"/></linearGradient><linearGradient id="linear-gradient-10" x1="218.81" y1="33.75" x2="266.97" y2="33.75" gradientUnits="userSpaceOnUse"><stop offset="0" stop-color="#f27b8c"/><stop offset="0.22" stop-color="#f58e78"/><stop offset="0.55" stop-color="#fab054"/><stop offset="0.77" stop-color="#d6504e"/><stop offset="0.9" stop-color="#c41f4b"/><stop offset="1" stop-color="#79287b" stop-opacity="0.9"/></linearGradient><radialGradient id="radial-gradient-4" cx="254.16" cy="82.57" r="55.53" gradientUnits="userSpaceOnUse"><stop offset="0" stop-color="#79287b"/><stop offset="0.1" stop-color="#7d297c"/><stop offset="0.2" stop-color="#892c7d"/><stop offset="0.31" stop-color="#9d3180"/><stop offset="0.41" stop-color="#b93884"/><stop offset="0.51" stop-color="#dd4189"/><stop offset="0.55" stop-color="#ed458b"/><stop offset="0.57" stop-color="#e5438a"/><stop offset="0.66" stop-color="#bf3985"/><stop offset="0.75" stop-color="#a03280"/><stop offset="0.84" stop-color="#8a2c7d"/><stop offset="0.92" stop-color="#7d297c"/><stop offset="1" stop-color="#79287b"/></radialGradient><linearGradient id="linear-gradient-11" x1="233.47" y1="18.58" x2="257.83" y2="18.58" gradientUnits="userSpaceOnUse"><stop offset="0" stop-color="#f05f6e"/><stop offset="0.09" stop-color="#f0656a" stop-opacity="0.96"/><stop offset="0.24" stop-color="#f2745f" stop-opacity="0.86"/><stop offset="0.42" stop-color="#f48c4e" stop-opacity="0.68"/><stop offset="0.64" stop-color="#f7ae36" stop-opacity="0.44"/><stop offset="0.89" stop-color="#fad917" stop-opacity="0.14"/><stop offset="1" stop-color="#fced09" stop-opacity="0"/></linearGradient><linearGradient id="linear-gradient-12" x1="171.47" y1="42.49" x2="220.89" y2="42.49" gradientTransform="translate(169.29 -156.43) rotate(70.08)" xlink:href="#linear-gradient"/><linearGradient id="linear-gradient-13" x1="171.47" y1="44.16" x2="220.89" y2="44.16" xlink:href="#linear-gradient-2"/><radialGradient id="radial-gradient-5" cx="196.44" cy="6.29" r="67.96" xlink:href="#radial-gradient"/><linearGradient id="linear-gradient-14" x1="171.47" y1="45.61" x2="220.89" y2="45.61" xlink:href="#linear-gradient-3"/><linearGradient id="linear-gradient-15" x1="171.47" y1="45.86" x2="220.89" y2="45.86" xlink:href="#linear-gradient-4"/><linearGradient id="linear-gradient-16" x1="171.47" y1="45.84" x2="220.89" y2="45.84" xlink:href="#linear-gradient-5"/><linearGradient id="linear-gradient-17" x1="171.47" y1="52.17" x2="220.89" y2="52.17" xlink:href="#linear-gradient-6"/><linearGradient id="linear-gradient-18" x1="171.62" y1="53.55" x2="220.89" y2="53.55" xlink:href="#linear-gradient-7"/><linearGradient id="linear-gradient-19" x1="171.47" y1="52.64" x2="220.89" y2="52.64" xlink:href="#linear-gradient-8"/><radialGradient id="radial-gradient-6" cx="200.47" cy="66.95" r="32.85" xlink:href="#radial-gradient-2"/><radialGradient id="radial-gradient-7" cx="219.54" cy="76.84" r="43.66" xlink:href="#radial-gradient-3"/><linearGradient id="linear-gradient-20" x1="178.37" y1="27.69" x2="213.56" y2="27.69" xlink:href="#linear-gradient-9"/><linearGradient id="linear-gradient-21" x1="178.22" y1="34.51" x2="220.64" y2="34.51" xlink:href="#linear-gradient-10"/><radialGradient id="radial-gradient-8" cx="209.36" cy="77.52" r="48.92" xlink:href="#radial-gradient-4"/><linearGradient id="linear-gradient-22" x1="191.13" y1="21.15" x2="212.6" y2="21.15" xlink:href="#linear-gradient-11"/><clipPath id="clip-path-2"><path class="cls-1" d="M162.78,41.07a10,10,0,0,0,3.48-8c0-6.45-4.49-12.08-12.78-12.08H135.71a3.74,3.74,0,0,0-3.86,3.92V60.87a3.77,3.77,0,0,0,3.86,3.92h19.86c9.48,0,14.42-5.94,14.42-13.22A10.62,10.62,0,0,0,162.78,41.07ZM140.13,28.74h13.35a4.43,4.43,0,0,1,4.43,4.36c0,3.36-1.71,5.06-4.43,5.06H140.13Zm15.44,28.34H140.13V45.88h15.44C162.9,45.88,162.9,57.08,155.57,57.08Z"/></clipPath><linearGradient id="linear-gradient-23" x1="120.45" y1="42.85" x2="174.89" y2="42.85" gradientTransform="translate(137.65 -110.59) rotate(70.08)" xlink:href="#linear-gradient"/><linearGradient id="linear-gradient-24" x1="120.45" y1="44.69" x2="174.89" y2="44.69" xlink:href="#linear-gradient-2"/><radialGradient id="radial-gradient-9" cx="147.95" cy="2.98" r="74.86" xlink:href="#radial-gradient"/><linearGradient id="linear-gradient-25" x1="120.45" y1="46.29" x2="174.89" y2="46.29" xlink:href="#linear-gradient-3"/><linearGradient id="linear-gradient-26" x1="120.45" y1="46.56" x2="174.89" y2="46.56" xlink:href="#linear-gradient-4"/><linearGradient id="linear-gradient-27" x1="120.45" y1="46.54" x2="174.89" y2="46.54" xlink:href="#linear-gradient-5"/><linearGradient id="linear-gradient-28" x1="120.45" y1="53.51" x2="174.89" y2="53.51" xlink:href="#linear-gradient-6"/><linearGradient id="linear-gradient-29" x1="120.62" y1="55.03" x2="174.88" y2="55.03" xlink:href="#linear-gradient-7"/><linearGradient id="linear-gradient-30" x1="120.45" y1="54.03" x2="174.89" y2="54.03" xlink:href="#linear-gradient-8"/><radialGradient id="radial-gradient-10" cx="152.39" cy="69.79" r="36.18" xlink:href="#radial-gradient-2"/><radialGradient id="radial-gradient-11" cx="173.4" cy="80.69" r="48.09" xlink:href="#radial-gradient-3"/><linearGradient id="linear-gradient-31" x1="128.05" y1="26.55" x2="166.81" y2="26.55" xlink:href="#linear-gradient-9"/><linearGradient id="linear-gradient-32" x1="127.88" y1="34.06" x2="174.61" y2="34.06" xlink:href="#linear-gradient-10"/><radialGradient id="radial-gradient-12" cx="162.19" cy="81.44" r="53.88" xlink:href="#radial-gradient-4"/><linearGradient id="linear-gradient-33" x1="142.11" y1="19.35" x2="165.75" y2="19.35" xlink:href="#linear-gradient-11"/><clipPath id="clip-path-3"><path class="cls-1" d="M44.22,53.22c0,6.71-4.13,11.25-14.75,11.25H15.58A2.58,2.58,0,0,1,13,61.88V27.05a2.62,2.62,0,0,1,2.58-2.64H29.13C37.5,24.41,42,28.6,42,34.8a9.22,9.22,0,0,1-5.62,8.83C40.49,45,44.22,47.94,44.22,53.22ZM28.72,29.29H18.22V41.74h9.53C35,41.74,37,38.93,37,35.2,37,31.64,34,29.29,28.72,29.29ZM39.17,53c0-4.54-3.56-6.55-10.16-6.55H18.22V59.59H29C36.82,59.59,39.17,56.89,39.17,53Z"/></clipPath><linearGradient id="linear-gradient-34" x1="0" y1="51.02" x2="54.44" y2="51.02" xlink:href="#linear-gradient-6"/><linearGradient id="linear-gradient-35" x1="0.17" y1="52.54" x2="54.43" y2="52.54" xlink:href="#linear-gradient-7"/><linearGradient id="linear-gradient-36" x1="0" y1="51.54" x2="54.44" y2="51.54" xlink:href="#linear-gradient-8"/><radialGradient id="radial-gradient-13" cx="31.94" cy="67.31" r="36.18" xlink:href="#radial-gradient-2"/><radialGradient id="radial-gradient-14" cx="52.95" cy="78.2" r="48.09" xlink:href="#radial-gradient-3"/><radialGradient id="radial-gradient-15" cx="41.74" cy="78.95" r="53.88" xlink:href="#radial-gradient-4"/><clipPath id="clip-path-4"><path class="cls-1" d="M75.56,60.39a2.61,2.61,0,0,1-1.49,2.12A17.91,17.91,0,0,1,64,65c-9.35,0-14.86-5.57-14.86-15.21,0-7.75,4.19-15.21,13.72-15.21,8.83,0,13.65,6.83,13.65,14.47a2.52,2.52,0,0,1-2.64,2.58H54.44c.57,5.16,3.84,8.49,10,8.49a15.6,15.6,0,0,0,7.75-1.78,2.11,2.11,0,0,1,1-.23A2.26,2.26,0,0,1,75.56,60.39Zm-21.12-13H71.37C71,41.45,66.55,39,62.88,39S54.78,41.45,54.44,47.42Z"/></clipPath><linearGradient id="linear-gradient-37" x1="35.68" y1="51.02" x2="90.12" y2="51.02" xlink:href="#linear-gradient-6"/><linearGradient id="linear-gradient-38" x1="35.85" y1="52.54" x2="90.12" y2="52.54" xlink:href="#linear-gradient-7"/><linearGradient id="linear-gradient-39" x1="35.68" y1="51.54" x2="90.12" y2="51.54" xlink:href="#linear-gradient-8"/><radialGradient id="radial-gradient-16" cx="67.63" cy="67.31" r="36.18" xlink:href="#radial-gradient-2"/><radialGradient id="radial-gradient-17" cx="88.63" cy="78.2" r="48.09" xlink:href="#radial-gradient-3"/><radialGradient id="radial-gradient-18" cx="77.42" cy="78.95" r="53.88" xlink:href="#radial-gradient-4"/><clipPath id="clip-path-5"><path class="cls-1" d="M103.74,56.54c0,4.65-3.73,8.5-11.08,8.5a21.05,21.05,0,0,1-10.44-2.58,2.34,2.34,0,0,1-1-1.9,2.27,2.27,0,0,1,3.27-2.06,18.21,18.21,0,0,0,7.81,1.72c4.42,0,6.37-1.49,6.37-4.08,0-4.93-17.22-2-17.22-12.45,0-5.16,3.73-9.07,11.19-9.07A24.32,24.32,0,0,1,101,36.06a2.33,2.33,0,0,1,1.66,2.18,2.3,2.3,0,0,1-2.3,2.29,2.81,2.81,0,0,1-.74-.11,21.56,21.56,0,0,0-6.54-1c-4.25,0-6.6,1.72-6.6,4C86.47,49.37,103.74,45.3,103.74,56.54Z"/></clipPath><linearGradient id="linear-gradient-40" x1="65.27" y1="51.02" x2="119.71" y2="51.02" xlink:href="#linear-gradient-6"/><linearGradient id="linear-gradient-41" x1="65.44" y1="52.54" x2="119.71" y2="52.54" xlink:href="#linear-gradient-7"/><linearGradient id="linear-gradient-42" x1="65.27" y1="51.54" x2="119.71" y2="51.54" xlink:href="#linear-gradient-8"/><radialGradient id="radial-gradient-19" cx="97.21" cy="67.31" r="36.18" xlink:href="#radial-gradient-2"/><radialGradient id="radial-gradient-20" cx="118.22" cy="78.2" r="48.09" xlink:href="#radial-gradient-3"/><radialGradient id="radial-gradient-21" cx="107.01" cy="78.95" r="53.88" xlink:href="#radial-gradient-4"/><clipPath id="clip-path-6"><path class="cls-1" d="M126.12,62a2.14,2.14,0,0,1-1.32,2A11.16,11.16,0,0,1,120,65c-2.7,0-8.38-.46-8.38-7.58V39.67h-4.07a1.06,1.06,0,0,1-1.09-1.09,1.27,1.27,0,0,1,.51-1L114.82,30a1.43,1.43,0,0,1,1-.52,1.11,1.11,0,0,1,1.1,1.15V35.2h6.48a2.24,2.24,0,1,1,0,4.47h-6.48V57c0,3.39,2.29,3.45,3.73,3.45,1.83,0,2.46-.52,3.44-.52A2.09,2.09,0,0,1,126.12,62Z"/></clipPath><linearGradient id="linear-gradient-43" x1="90.62" y1="47.02" x2="158.19" y2="47.02" xlink:href="#linear-gradient-6"/><linearGradient id="linear-gradient-44" x1="90.82" y1="48.92" x2="158.19" y2="48.92" xlink:href="#linear-gradient-7"/><linearGradient id="linear-gradient-45" x1="90.62" y1="47.67" x2="158.19" y2="47.67" xlink:href="#linear-gradient-8"/><radialGradient id="radial-gradient-22" cx="130.27" cy="67.24" r="44.91" xlink:href="#radial-gradient-2"/><radialGradient id="radial-gradient-23" cx="156.34" cy="80.76" r="59.7" xlink:href="#radial-gradient-3"/><radialGradient id="radial-gradient-24" cx="142.43" cy="81.69" r="66.89" xlink:href="#radial-gradient-4"/></defs><title>BestBox logo</title><g id="Layer_2" data-name="Layer 2"><g id="Layer_1-2" data-name="Layer 1"><g class="cls-2"><circle class="cls-3" cx="239.2" cy="42.8" r="28.05" transform="translate(117.47 253.11) rotate(-70.08)"/><path class="cls-4" d="M257.87,21.84A27.92,27.92,0,0,1,243.64,26a28,28,0,0,1-19.5-7.43l-3.91,3.54h0a28,28,0,1,0,37.63-.27Z"/><path class="cls-5" d="M257.89,21.86a29.84,29.84,0,0,1-19.33,7.07,29.87,29.87,0,0,1-18.65-6.51,28,28,0,1,0,38-.56Z"/><path class="cls-6" d="M257.89,21.86a29.84,29.84,0,0,1-19.33,7.07,29.87,29.87,0,0,1-18.65-6.51,28,28,0,1,0,38-.56Z"/><path class="cls-7" d="M264.62,30.91a29.62,29.62,0,0,1-18.21,6.62,29.72,29.72,0,0,1-26.33-15l-.17-.13a28,28,0,1,0,44.71,8.49Z"/><path class="cls-8" d="M248.66,43.74a30,30,0,0,1-28.72-21.35A28,28,0,1,0,267.25,42.3a28.52,28.52,0,0,0-.47-4.66A29.87,29.87,0,0,1,248.66,43.74Z"/><path class="cls-9" d="M266.85,38a43.2,43.2,0,0,1-30.59,9.05A43.24,43.24,0,0,1,211.8,36.75a28.45,28.45,0,0,0-.65,6.5,28.05,28.05,0,0,0,56.1-1A28.46,28.46,0,0,0,266.85,38Z"/><path class="cls-10" d="M239.68,70.82a28,28,0,0,0,27.57-27.69c0-.72,0-1.39-.05-2s-.06-.86-.1-1.28c-7.17,8.21-19.41,14.39-30.84,13.37A43.18,43.18,0,0,1,211.8,42.91a28.78,28.78,0,0,0-.48,3A28.06,28.06,0,0,0,239.68,70.82Z"/><path class="cls-11" d="M239,56.64a30,30,0,0,1-27.51-18,28.73,28.73,0,0,0-.31,4.66,28.05,28.05,0,0,0,56.1-1,28.82,28.82,0,0,0-.44-4.49A30,30,0,0,1,239,56.64Z"/><path class="cls-12" d="M216.9,59.79a30,30,0,0,0,29.73-4.14,30,30,0,0,1-35.17-17.06,28.73,28.73,0,0,0-.31,4.66A28,28,0,0,0,216.9,59.79Z"/><path class="cls-13" d="M267.25,42.3a28.82,28.82,0,0,0-.44-4.49,30.19,30.19,0,0,1-10.5,13.31A28,28,0,0,1,246,70,28.08,28.08,0,0,0,267.25,42.3Z"/><path class="cls-14" d="M239.18,30.13a31.63,31.63,0,0,0,19.75-7.29l-1-1a29.84,29.84,0,0,1-19.33,7.07,29.87,29.87,0,0,1-18.65-6.51c-.32.3-.63.61-.93.92A31.67,31.67,0,0,0,239.18,30.13Z"/><path class="cls-15" d="M266.78,37.64a30,30,0,0,1-46.84-15.25c-.39.37-.76.74-1.13,1.13A30.84,30.84,0,0,0,267,38.76C266.91,38.39,266.85,38,266.78,37.64Z"/><path class="cls-16" d="M239,56.64a30,30,0,0,1-27.51-18,24.5,24.5,0,0,0-.26,2.58,31.28,31.28,0,0,0,55.9-1.29c-.07-.7-.17-1.39-.29-2.07A30,30,0,0,1,239,56.64Z"/><path class="cls-17" d="M239.2,14.75a28.48,28.48,0,0,0-5.73.58,27.93,27.93,0,0,0,19.11,7.08,28.23,28.23,0,0,0,5.25-.58A27.91,27.91,0,0,0,239.2,14.75Z"/></g><circle class="cls-18" cx="196.18" cy="42.49" r="24.71" transform="translate(89.4 212.46) rotate(-70.08)"/><path class="cls-19" d="M212.62,24a24.61,24.61,0,0,1-12.53,3.66,24.66,24.66,0,0,1-17.17-6.54l-3.45,3.11h0A24.72,24.72,0,1,0,212.62,24Z"/><path class="cls-20" d="M212.65,24.05a26.32,26.32,0,0,1-17,6.22,26.27,26.27,0,0,1-16.43-5.74,24.71,24.71,0,1,0,33.46-.48Z"/><path class="cls-21" d="M212.65,24.05a26.32,26.32,0,0,1-17,6.22,26.27,26.27,0,0,1-16.43-5.74,24.71,24.71,0,1,0,33.46-.48Z"/><path class="cls-22" d="M218.58,32a26.21,26.21,0,0,1-39.25-7.36l-.14-.12A24.7,24.7,0,1,0,218.58,32Z"/><path class="cls-23" d="M204.51,43.31a26.42,26.42,0,0,1-25.3-18.8,24.71,24.71,0,1,0,41.68,17.54,25.33,25.33,0,0,0-.41-4.11A26.32,26.32,0,0,1,204.51,43.31Z"/><path class="cls-24" d="M220.54,38.3A38.22,38.22,0,0,1,172,37.16a25.16,25.16,0,0,0-.57,5.73,24.71,24.71,0,0,0,49.42-.84A24.31,24.31,0,0,0,220.54,38.3Z"/><path class="cls-25" d="M196.6,67.17a24.7,24.7,0,0,0,24.29-24.39c0-.63,0-1.22,0-1.72s0-.76-.09-1.14c-6.32,7.24-17.1,12.68-27.17,11.78A38.09,38.09,0,0,1,172,42.59c-.18.85-.32,1.72-.42,2.59A24.71,24.71,0,0,0,196.6,67.17Z"/><path class="cls-26" d="M196,54.68a26.43,26.43,0,0,1-24.24-15.89,25.15,25.15,0,0,0-.27,4.1,24.71,24.71,0,0,0,49.42-.84,25.54,25.54,0,0,0-.38-3.95A26.43,26.43,0,0,1,196,54.68Z"/><path class="cls-27" d="M176.54,57.46a26.42,26.42,0,0,0,26.19-3.65,26.46,26.46,0,0,1-31-15,25.15,25.15,0,0,0-.27,4.1A24.63,24.63,0,0,0,176.54,57.46Z"/><path class="cls-28" d="M220.89,42.05a25.54,25.54,0,0,0-.38-3.95,26.64,26.64,0,0,1-9.25,11.72,24.7,24.7,0,0,1-9.1,16.63A24.72,24.72,0,0,0,220.89,42.05Z"/><path class="cls-29" d="M196.16,31.33a28,28,0,0,0,17.4-6.42c-.3-.3-.6-.58-.91-.86a26.32,26.32,0,0,1-17,6.22,26.27,26.27,0,0,1-16.43-5.74c-.28.27-.56.54-.82.82A27.86,27.86,0,0,0,196.16,31.33Z"/><path class="cls-30" d="M220.48,37.94a26.43,26.43,0,0,1-41.27-13.43c-.34.32-.67.66-1,1a27.18,27.18,0,0,0,42.42,13.42C220.59,38.6,220.54,38.27,220.48,37.94Z"/><path class="cls-31" d="M196,54.68a26.43,26.43,0,0,1-24.24-15.89c-.11.74-.19,1.5-.23,2.26a27.55,27.55,0,0,0,49.25-1.13c-.06-.61-.15-1.22-.25-1.82A26.43,26.43,0,0,1,196,54.68Z"/><path class="cls-32" d="M196.18,17.77a24.72,24.72,0,0,0-5.05.52A24.61,24.61,0,0,0,208,24.53,25.25,25.25,0,0,0,212.6,24,24.61,24.61,0,0,0,196.18,17.77Z"/><path class="cls-33" d="M189.4,42.86c0-2.47,0-4.93,0-7.4s1.22-3.18,3.39-2c4.5,2.51,9,5,13.49,7.51a5.21,5.21,0,0,1,1.21.86,1.41,1.41,0,0,1,0,2.11,4.18,4.18,0,0,1-.92.69l-14,7.8a3.49,3.49,0,0,1-.74.33,1.64,1.64,0,0,1-2.31-1.53c-.11-1.34-.08-2.71-.09-4.06s0-2.89,0-4.34Z"/><path class="cls-34" d="M191.11,53.53a2.21,2.21,0,0,1-1.27-.38,2.33,2.33,0,0,1-1-1.83c-.09-1-.09-2.11-.09-3.14v-1c0-1,0-2,0-3V40.6c0-1.71,0-3.42,0-5.14,0-1.47.4-2.44,1.19-2.91s1.84-.33,3.14.39l5.33,3c2.72,1.51,5.45,3,8.16,4.54a6,6,0,0,1,1.35,1,2,2,0,0,1,0,3,4.4,4.4,0,0,1-1.06.8l-14,7.8a4.92,4.92,0,0,1-.86.39A3,3,0,0,1,191.11,53.53Zm-1.08-10v.69c0,1,0,2,0,3v1c0,1,0,2,.09,3a1.14,1.14,0,0,0,.43.9,1.24,1.24,0,0,0,1.07.08,3.37,3.37,0,0,0,.61-.29l14-7.79a3.23,3.23,0,0,0,.78-.58.78.78,0,0,0,0-1.23,4.7,4.7,0,0,0-1.06-.75L197.83,37l-5.34-3c-.85-.47-1.52-.61-1.88-.4s-.57.86-.57,1.83c0,1.71,0,3.42,0,5.13v2.89Z"/><g class="cls-35"><circle class="cls-36" cx="147.67" cy="42.85" r="27.22" transform="translate(57.08 167.09) rotate(-70.08)"/><path class="cls-37" d="M165.78,22.51a27.13,27.13,0,0,1-13.8,4,27.14,27.14,0,0,1-18.92-7.21l-3.8,3.43h0a27.22,27.22,0,1,0,36.51-.26Z"/><path class="cls-38" d="M165.81,22.54a29,29,0,0,1-18.76,6.85A29,29,0,0,1,129,23.07a27.22,27.22,0,1,0,36.86-.53Z"/><path class="cls-39" d="M165.81,22.54a29,29,0,0,1-18.76,6.85A29,29,0,0,1,129,23.07a27.22,27.22,0,1,0,36.86-.53Z"/><path class="cls-40" d="M172.34,31.31a28.73,28.73,0,0,1-17.67,6.42A28.85,28.85,0,0,1,129.11,23.2l-.16-.13a27.2,27.2,0,1,0,43.39,8.24Z"/><path class="cls-41" d="M156.85,43.76A29.11,29.11,0,0,1,129,23.05a27.19,27.19,0,1,0,45.45,14.79A29,29,0,0,1,156.85,43.76Z"/><path class="cls-42" d="M174.5,38.23A42.11,42.11,0,0,1,121.08,37a27.92,27.92,0,0,0-.63,6.31,27.22,27.22,0,0,0,54.43-.93A26.87,26.87,0,0,0,174.5,38.23Z"/><path class="cls-43" d="M148.13,70a27.21,27.21,0,0,0,26.75-26.87c0-.69,0-1.35,0-1.9s-.06-.83-.1-1.25c-7,8-18.83,14-29.92,13a41.86,41.86,0,0,1-23.74-10,26.64,26.64,0,0,0-.46,2.86A27.22,27.22,0,0,0,148.13,70Z"/><path class="cls-44" d="M147.45,56.28a29.12,29.12,0,0,1-26.7-17.51,28.06,28.06,0,0,0-.3,4.52,27.22,27.22,0,1,0,54-5.28A29.1,29.1,0,0,1,147.45,56.28Z"/><path class="cls-45" d="M126,59.34a29.16,29.16,0,0,0,28.85-4,29.13,29.13,0,0,1-34.13-16.55,28.06,28.06,0,0,0-.3,4.52A27.15,27.15,0,0,0,126,59.34Z"/><path class="cls-46" d="M174.88,42.36a27.06,27.06,0,0,0-.42-4.35,29.19,29.19,0,0,1-10.19,12.91,27.19,27.19,0,0,1-10,18.32A27.23,27.23,0,0,0,174.88,42.36Z"/><path class="cls-47" d="M147.65,30.56a30.71,30.71,0,0,0,19.16-7.08c-.33-.32-.66-.64-1-.94a29,29,0,0,1-18.76,6.85A29,29,0,0,1,129,23.07q-.47.45-.9.9A30.76,30.76,0,0,0,147.65,30.56Z"/><path class="cls-48" d="M174.43,37.84a29,29,0,0,1-17.58,5.92A29.11,29.11,0,0,1,129,23.05c-.38.35-.74.72-1.1,1.09a29.93,29.93,0,0,0,46.73,14.79C174.56,38.57,174.5,38.2,174.43,37.84Z"/><path class="cls-49" d="M147.45,56.28a29.12,29.12,0,0,1-26.7-17.51c-.12.82-.21,1.65-.25,2.5A30.35,30.35,0,0,0,174.74,40c-.07-.68-.16-1.35-.28-2A29.1,29.1,0,0,1,147.45,56.28Z"/><path class="cls-50" d="M147.67,15.63a26.75,26.75,0,0,0-5.56.57,27.16,27.16,0,0,0,18.55,6.87,27.55,27.55,0,0,0,5.09-.57A27.14,27.14,0,0,0,147.67,15.63Z"/></g><g class="cls-51"><circle class="cls-52" cx="27.22" cy="40.36" r="27.22" transform="matrix(0.34, -0.94, 0.94, 0.34, -20, 52.2)"/><path class="cls-53" d="M54.05,35.75A42.12,42.12,0,0,1,.63,34.49,27.92,27.92,0,0,0,0,40.8a27.22,27.22,0,0,0,54.43-.93A26.63,26.63,0,0,0,54.05,35.75Z"/><path class="cls-54" d="M27.68,67.55A27.21,27.21,0,0,0,54.43,40.68c0-.69,0-1.35,0-1.9s-.06-.83-.1-1.25c-7,8-18.83,14-29.92,13a41.94,41.94,0,0,1-23.74-10,27,27,0,0,0-.46,2.86A27.22,27.22,0,0,0,27.68,67.55Z"/><path class="cls-55" d="M27,53.79A29.12,29.12,0,0,1,.3,36.28,28.06,28.06,0,0,0,0,40.8a27.22,27.22,0,1,0,54-5.28A29.1,29.1,0,0,1,27,53.79Z"/><path class="cls-56" d="M5.58,56.85a29.16,29.16,0,0,0,28.85-4A29.13,29.13,0,0,1,.3,36.28,28.06,28.06,0,0,0,0,40.8,27.15,27.15,0,0,0,5.58,56.85Z"/><path class="cls-57" d="M54.43,39.87A27.17,27.17,0,0,0,54,35.52,29.19,29.19,0,0,1,43.82,48.43a27.17,27.17,0,0,1-10,18.32A27.22,27.22,0,0,0,54.43,39.87Z"/><path class="cls-58" d="M27,53.79A29.12,29.12,0,0,1,.3,36.28c-.12.82-.21,1.66-.25,2.5a30.35,30.35,0,0,0,54.24-1.25c-.07-.68-.16-1.35-.28-2A29.1,29.1,0,0,1,27,53.79Z"/></g><g class="cls-59"><circle class="cls-52" cx="62.9" cy="40.36" r="27.22" transform="translate(3.53 85.75) rotate(-70.08)"/><path class="cls-60" d="M89.73,35.75a42.11,42.11,0,0,1-53.41-1.26,26.82,26.82,0,0,0-.63,6.31,27.22,27.22,0,0,0,54.43-.93A27.92,27.92,0,0,0,89.73,35.75Z"/><path class="cls-61" d="M63.37,67.55A27.22,27.22,0,0,0,90.12,40.68c0-.69,0-1.35,0-1.9S90,38,90,37.53c-7,8-18.83,14-29.92,13a41.91,41.91,0,0,1-23.73-10,27.06,27.06,0,0,0-.47,2.86A27.22,27.22,0,0,0,63.37,67.55Z"/><path class="cls-62" d="M62.68,53.79A29.13,29.13,0,0,1,36,36.28a27.22,27.22,0,1,0,54.14,3.59,28.37,28.37,0,0,0-.42-4.35A29.11,29.11,0,0,1,62.68,53.79Z"/><path class="cls-63" d="M41.27,56.85a29.14,29.14,0,0,0,28.84-4A29.13,29.13,0,0,1,36,36.28a27.36,27.36,0,0,0,5.29,20.57Z"/><path class="cls-64" d="M90.12,39.87a28.37,28.37,0,0,0-.42-4.35A29.26,29.26,0,0,1,79.51,48.43a27.14,27.14,0,0,1-10,18.32A27.22,27.22,0,0,0,90.12,39.87Z"/><path class="cls-65" d="M62.68,53.79A29.13,29.13,0,0,1,36,36.28c-.12.82-.2,1.66-.25,2.5A30.35,30.35,0,0,0,90,37.53c-.07-.68-.17-1.35-.28-2A29.11,29.11,0,0,1,62.68,53.79Z"/></g><g class="cls-66"><circle class="cls-52" cx="92.49" cy="40.36" r="27.22" transform="translate(23.04 113.57) rotate(-70.08)"/><path class="cls-67" d="M119.32,35.75A42.12,42.12,0,0,1,65.9,34.49a27.22,27.22,0,1,0,53.81,5.38A27.92,27.92,0,0,0,119.32,35.75Z"/><path class="cls-68" d="M93,67.55a27.23,27.23,0,0,0,26.76-26.87c0-.69,0-1.35,0-1.9s-.06-.83-.1-1.25c-7,8-18.83,14-29.92,13a41.94,41.94,0,0,1-23.74-10,27,27,0,0,0-.46,2.86A27.22,27.22,0,0,0,93,67.55Z"/><path class="cls-69" d="M92.27,53.79a29.12,29.12,0,0,1-26.7-17.51,27.23,27.23,0,1,0,53.71-.76A29.1,29.1,0,0,1,92.27,53.79Z"/><path class="cls-70" d="M70.85,56.85a29.16,29.16,0,0,0,28.85-4A29.13,29.13,0,0,1,65.57,36.28a27.39,27.39,0,0,0,5.28,20.57Z"/><path class="cls-71" d="M119.71,39.87a27.17,27.17,0,0,0-.43-4.35A29.17,29.17,0,0,1,109.1,48.43a27.18,27.18,0,0,1-10,18.32A27.23,27.23,0,0,0,119.71,39.87Z"/><path class="cls-72" d="M92.27,53.79a29.12,29.12,0,0,1-26.7-17.51c-.12.82-.21,1.66-.25,2.5a30.35,30.35,0,0,0,54.24-1.25c-.07-.68-.16-1.35-.28-2A29.1,29.1,0,0,1,92.27,53.79Z"/></g><g class="cls-73"><circle class="cls-52" cx="124.41" cy="33.79" r="33.79" transform="translate(50.26 139.24) rotate(-70.08)"/><path class="cls-74" d="M157.71,28.06A52,52,0,0,1,120.87,39,52,52,0,0,1,91.4,26.5a34.28,34.28,0,0,0-.78,7.83,33.79,33.79,0,0,0,67.57-1.15A33.26,33.26,0,0,0,157.71,28.06Z"/><path class="cls-75" d="M125,67.54a33.79,33.79,0,0,0,33.21-33.35c0-.86,0-1.67-.05-2.36,0-.52-.08-1-.13-1.55-8.64,9.89-23.38,17.33-37.14,16.11A52,52,0,0,1,91.4,33.93c-.25,1.16-.44,2.34-.58,3.55A33.79,33.79,0,0,0,125,67.54Z"/><path class="cls-76" d="M124.13,50.46A36.13,36.13,0,0,1,91,28.73a34.52,34.52,0,0,0-.37,5.6,33.79,33.79,0,0,0,67.57-1.15,33.16,33.16,0,0,0-.53-5.4A36.12,36.12,0,0,1,124.13,50.46Z"/><path class="cls-77" d="M97.55,54.26a36.13,36.13,0,0,0,35.8-5,35.91,35.91,0,0,1-9.22,1.19A36.13,36.13,0,0,1,91,28.73a34.52,34.52,0,0,0-.37,5.6A33.61,33.61,0,0,0,97.55,54.26Z"/><path class="cls-78" d="M158.19,33.18a33.16,33.16,0,0,0-.53-5.4,36.25,36.25,0,0,1-12.64,16,33.71,33.71,0,0,1-12.45,22.74A33.79,33.79,0,0,0,158.19,33.18Z"/><path class="cls-79" d="M124.13,50.46A36.13,36.13,0,0,1,91,28.73c-.15,1-.26,2.05-.32,3.1A37.68,37.68,0,0,0,158,30.28c-.08-.84-.2-1.67-.35-2.5A36.12,36.12,0,0,1,124.13,50.46Z"/></g></g></g></svg>