<svg xmlns="http://www.w3.org/2000/svg" viewBox="0 0 1146.85 56.36"><defs><style>.cls-1{fill:#58595b;}.cls-2{fill:#231f20;}.cls-3{fill:#fff;}</style></defs><title>Asset 15</title><g id="Layer_2" data-name="Layer 2"><g id="Layer_1-2" data-name="Layer 1"><path class="cls-1" d="M0,31.53v-.05A10.18,10.18,0,0,1,10.22,21a10.49,10.49,0,0,1,7.88,3.21L16.54,25.9a8.8,8.8,0,0,0-6.35-2.77c-4.47,0-7.82,3.64-7.82,8.29v.06c0,4.67,3.38,8.34,7.82,8.34,2.77,0,4.59-1.07,6.53-2.92l1.5,1.47a10.53,10.53,0,0,1-8.09,3.56A10.08,10.08,0,0,1,0,31.53Z"/><path class="cls-1" d="M20.61,34.19v-.06a7.78,7.78,0,0,1,15.56-.06v.06a7.75,7.75,0,0,1-7.82,7.8A7.65,7.65,0,0,1,20.61,34.19Zm13.28,0v-.06a5.65,5.65,0,0,0-5.54-5.83,5.51,5.51,0,0,0-5.46,5.77v.06a5.6,5.6,0,0,0,5.52,5.8A5.5,5.5,0,0,0,33.89,34.19Z"/><path class="cls-1" d="M40.18,26.65H42.4v2.52a5.45,5.45,0,0,1,4.83-2.83,5.08,5.08,0,0,1,4.79,3,5.93,5.93,0,0,1,5.25-3c3.44,0,5.55,2.31,5.55,6v9.24H60.59V32.86c0-2.89-1.44-4.5-3.87-4.5C54.47,28.36,52.6,30,52.6,33v8.6H50.4V32.8c0-2.8-1.47-4.44-3.84-4.44s-4.16,2-4.16,4.7v8.52H40.18Z"/><path class="cls-1" d="M67.63,26.65h2.23v3a6.7,6.7,0,0,1,5.71-3.32c3.58,0,7.13,2.83,7.13,7.73v.06c0,4.88-3.52,7.77-7.13,7.77a6.71,6.71,0,0,1-5.71-3.18V46.2H67.63Zm12.79,7.51V34.1c0-3.52-2.42-5.77-5.25-5.77a5.57,5.57,0,0,0-5.4,5.74v.06a5.55,5.55,0,0,0,5.4,5.77C78.05,39.9,80.42,37.77,80.42,34.16Z"/><path class="cls-1" d="M85.67,37.25v-.06c0-3.2,2.6-4.88,6.38-4.88a15.39,15.39,0,0,1,4.56.64v-.46c0-2.66-1.61-4.05-4.41-4.05a10.43,10.43,0,0,0-4.53,1.07L87,27.69a12.25,12.25,0,0,1,5.43-1.27,6.61,6.61,0,0,1,4.82,1.65,5.9,5.9,0,0,1,1.56,4.39v9.12h-2.2V39.36a6.54,6.54,0,0,1-5.36,2.54C88.44,41.9,85.67,40.31,85.67,37.25Zm11-1.16V34.71a15.2,15.2,0,0,0-4.36-.64c-2.77,0-4.35,1.22-4.35,3v.05c0,1.88,1.73,3,3.75,3C94.42,40.11,96.64,38.46,96.64,36.09Z"/><path class="cls-1" d="M104.15,37.62v-9h-2.08v-2h2.08v-4.5h2.22v4.5h4.74v2h-4.74v8.72a2.21,2.21,0,0,0,2.51,2.48,4.76,4.76,0,0,0,2.17-.52v1.9a5.54,5.54,0,0,1-2.69.64C106,41.84,104.15,40.66,104.15,37.62Z"/><path class="cls-1" d="M115.09,20.94h2.54v2.45h-2.54Zm.14,5.71h2.23V41.58h-2.23Z"/><path class="cls-1" d="M124.84,38.72v2.86h-2.22V20.5h2.22v9.16a6.73,6.73,0,0,1,5.72-3.32c3.58,0,7.13,2.83,7.13,7.73v.06c0,4.88-3.52,7.77-7.13,7.77A6.74,6.74,0,0,1,124.84,38.72Zm10.57-4.56V34.1c0-3.52-2.42-5.77-5.25-5.77a5.56,5.56,0,0,0-5.4,5.74v.06a5.54,5.54,0,0,0,5.4,5.77C133,39.9,135.41,37.77,135.41,34.16Z"/><path class="cls-1" d="M142,20.5h2.22V41.58H142Z"/><path class="cls-1" d="M156,40a6.2,6.2,0,0,0,4.71-2.11l1.38,1.25a7.72,7.72,0,0,1-6.15,2.8,7.42,7.42,0,0,1-7.44-7.8c0-4.33,3-7.79,7.16-7.79,4.41,0,6.95,3.52,6.95,7.91,0,.2,0,.43,0,.78H150.71A5.21,5.21,0,0,0,156,40Zm4.36-6.75c-.26-2.72-1.82-5-4.76-5-2.57,0-4.54,2.14-4.85,5Z"/><path class="cls-1" d="M173.86,26.65h2.36l3.93,12,4-12H186l4,12,3.93-12h2.31l-5.26,15H189.1l-4-11.77-4,11.77h-2Z"/><path class="cls-1" d="M200,20.94h2.54v2.45H200Zm.14,5.71h2.23V41.58h-2.23Z"/><path class="cls-1" d="M208.35,37.62v-9h-2.08v-2h2.08v-4.5h2.22v4.5h4.74v2h-4.74v8.72a2.21,2.21,0,0,0,2.52,2.48,4.72,4.72,0,0,0,2.16-.52v1.9a5.53,5.53,0,0,1-2.68.64C210.17,41.84,208.35,40.66,208.35,37.62Z"/><path class="cls-1" d="M219.23,20.5h2.23v8.75a5.66,5.66,0,0,1,5.11-2.91c3.61,0,5.71,2.42,5.71,6v9.27h-2.22V32.86c0-2.77-1.5-4.5-4.13-4.5A4.38,4.38,0,0,0,221.46,33v8.55h-2.23Z"/><path class="cls-1" d="M245.56,26.65h2.66v3h-2.66Zm0,11.9h2.66v3h-2.66Z"/><g id="q9LYdV"><path d="M427.65,31.19c0-6.4,0-12.8,0-19.2a2.91,2.91,0,0,1,3-3c9.09,0,18.17,0,27.26,0a2.9,2.9,0,0,1,2.16.79,2.73,2.73,0,0,1,.8,2.1V50.41A3.59,3.59,0,0,1,457,54.22c-8.52,0-17,0-25.55,0a3.77,3.77,0,0,1-3.86-3.85C427.69,44,427.66,37.59,427.65,31.19ZM459,29.4V12.88c0-1.35-.49-1.85-1.82-1.85H431.42c-1.33,0-1.82.5-1.82,1.85V45.76c0,1.35.51,1.86,1.87,1.86q13,0,25.92,0c1.13,0,1.56-.42,1.56-1.55ZM444.3,52.59A1.59,1.59,0,0,0,445.83,51a1.56,1.56,0,0,0-3.12.1A1.6,1.6,0,0,0,444.3,52.59Z"/></g><path d="M521,43.86c-.09-.94-.15-1.5-.19-2a20,20,0,0,1-3.91,1.78c-3.32.71-6.39-.92-7.17-4.19a15.36,15.36,0,0,1-.11-7.1c1.24-4.87,6.47-6.22,10.32-3a5.11,5.11,0,0,0,.82.42c0-2.16.12-4.14,0-6.09-.13-1.74.62-2.28,2.14-1.93.44.11,1.07.74,1.07,1.13.07,6.49.11,13,0,19.48C523.92,44.87,522,43.06,521,43.86Zm-8.65-8.16c0,2.93,1.4,5,3.64,5.31,2.54.34,4.44-1.46,4.75-4.52.32-3.24-1.33-5.87-3.79-6C514.19,30.28,512.36,32.36,512.34,35.7Z"/><path d="M480.21,36.13c0,2.25,0,4.24,0,6.23,0,1.19-.58,1.38-1.53,1.31s-1.86.3-1.85-1.16c0-6.72,0-13.44.06-20.15a3.85,3.85,0,0,1,.3-.76c3.34.18,6.89,0,10.31.66s5,4,4.61,7.91a6.66,6.66,0,0,1-6.24,5.94C484.13,36.22,482.37,36.13,480.21,36.13Zm.14-2.84a42,42,0,0,0,4.91,0,3.93,3.93,0,0,0,3.48-4.19c0-2.21-1.23-4-3.2-4.22a47,47,0,0,0-5.19,0Z"/><path d="M494.12,32.21c0-2.24,1.49-4,4.23-4.35a13.72,13.72,0,0,1,5.21.43,4.12,4.12,0,0,1,3.07,4.12c.11,3.65,0,7.3,0,11.11h-3c-.06-.59-.11-1.16-.2-2a6.6,6.6,0,0,1-6.5,2.15,4.37,4.37,0,0,1-3.79-4.23A4.09,4.09,0,0,1,496.58,35c1.6-.36,3.28-.36,4.91-.62a9.93,9.93,0,0,0,1.94-.72c-.38-.93-.53-2.1-1.2-2.74-1.09-1.06-3.43-.7-4.56.38C496.26,32.6,496.26,32.6,494.12,32.21Zm9.09,4.18a40.52,40.52,0,0,0-5.26.79,2.49,2.49,0,0,0-1.46,1.88A2.83,2.83,0,0,0,497.93,41a3.67,3.67,0,0,0,4.12-.61A3.38,3.38,0,0,0,503.21,36.39Z"/><path d="M469.88,43.47V27.89H473c0,2.56,0,5.08,0,7.59v5.66C473,44,473,44,469.88,43.47Z"/><path d="M471.82,21.49c.49.69,1.31,1.35,1.39,2.08a1.53,1.53,0,0,1-1.89,1.75c-.7-.17-1.67-1.1-1.68-1.72s.88-1.42,1.38-2.13Z"/><g id="G8TY2B"><path d="M562.28,9.39l.42.12a3.42,3.42,0,0,1,2.87,3.21q0,16.47,0,32.94c0,1.55,0,3.09,0,4.63,0,2-1.64,3.42-3.94,3.42H544.06c-2.3,0-3.94-1.42-3.95-3.42q0-18.76,0-37.53a3.41,3.41,0,0,1,3.07-3.28l.22-.09Zm1.62,22.23h0V22.11c0-2.93,0-5.87,0-8.8a2,2,0,0,0-2.25-1.9h-2.09c-.37,0-.54.12-.57.44-.06.75-.5,1.08-1.38,1.08h-9.5c-.81,0-1.28-.36-1.31-1,0-.37-.22-.49-.63-.48h-2.09c-1.39,0-2.29.78-2.29,2v36.5c0,1.24.89,2,2.36,2h17.4c1.47,0,2.35-.75,2.35-2Z"/></g><path d="M583.31,21.6c3.08,0,6-.19,9,0a6.73,6.73,0,0,1,6.25,7.25A6.87,6.87,0,0,1,591.64,36c-1.64.07-3.29,0-5.18,0v7.36h-3.15Zm3.11,11.54c1.57,0,2.8,0,4,0,2.75,0,4.39-1.45,4.53-3.88.17-2.82-1.14-4.44-4-4.78a18.81,18.81,0,0,0-3.52-.07c-.37,0-1,.53-1,.82C586.38,27.79,586.42,30.36,586.42,33.14Z"/><path d="M604.47,29.57a5.83,5.83,0,0,1,5.22-2.09c2.59.14,4.72,1.68,4.87,4.25.23,3.81.06,7.64.06,11.58h-3.13V36.5c0-.88,0-1.77,0-2.66-.07-2.19-1.17-3.46-3.1-3.57-2.29-.14-3.92,1-4.08,3.21-.19,2.65-.11,5.31-.14,8,0,.57,0,1.15,0,1.84H601c0-.56-.11-1.13-.11-1.7,0-6.08,0-12.16,0-18.25,0-1.19.15-1.81,1.61-1.82s1.53.84,1.51,1.92c0,2,0,4,0,5.94Z"/><path d="M665,36.4H654a4,4,0,0,0,2,4.14c1.49.84,3.83.79,4.79-.45,1.14-1.48,2.46-1.28,4.27-1.14a13,13,0,0,1-1.45,2.49c-2.18,2.3-5,2.59-7.86,1.92A6,6,0,0,1,651,38.25a15.59,15.59,0,0,1,.21-6.09c1-3.55,4.28-5.21,8.3-4.62A6.67,6.67,0,0,1,665,34.16C665.05,34.8,665,35.45,665,36.4ZM661.64,34A3.64,3.64,0,0,0,658,30a3.77,3.77,0,0,0-3.83,4Z"/><path d="M632.11,35.53c0,6.41-5.26,10-10.88,7.43-3.23-1.49-4.78-5.26-3.93-9.53a6.87,6.87,0,0,1,6.82-6C629.15,27.21,632.09,30.19,632.11,35.53ZM628.89,35a4.75,4.75,0,0,0-2.64-4.59,3.92,3.92,0,0,0-4.63,1.12,7.27,7.27,0,0,0-.28,7.68,3.87,3.87,0,0,0,4.31,1.64C627.75,40.31,628.88,38.48,628.89,35Z"/><path d="M648,43.32H645V36.84c0-1,0-2,0-3-.07-2.25-1-3.4-2.86-3.55-2.23-.18-3.84.8-4.12,3a59.94,59.94,0,0,0-.21,6.71c0,1.05,0,2.11,0,3.33h-3.11V27.68h2.9l.34,2.14a5.86,5.86,0,0,1,5.57-2.34c2.36.17,4.37,1.59,4.51,3.94C648.2,35.34,648,39.29,648,43.32Z"/><path d="M576.16,27.66h3V43.3h-3Z"/><path d="M577.2,25.46c-.49-.73-1.4-1.5-1.33-2.18a2.6,2.6,0,0,1,1.8-1.68,1.52,1.52,0,0,1,1.76,1.86c-.15.73-.9,1.34-1.38,2Z"/><g id="Grim57"><path class="cls-2" d="M756.08,32.71c0,3.13,0,6.25,0,9.37,0,.48-.12.65-.62.63-.9,0-1.81,0-2.71,0-.55,0-.69-.14-.69-.69,0-4.88,0-9.76,0-14.64,0-.55-.09-.75-.7-.73-1.76.05-3.52,0-5.28,0a6,6,0,1,0,0,12c.5,0,1,0,1.51,0s.52,0,.51.46c0,1,0,2.07,0,3.1,0,.26,0,.46-.37.48-3,.14-5.84-.35-8.16-2.44A9.63,9.63,0,0,1,736.46,30a9.61,9.61,0,0,1,7.78-7.19,12.15,12.15,0,0,1,2.69-.19c2.84,0,5.67,0,8.51,0,.51,0,.66.13.66.66C756.07,26.43,756.08,29.57,756.08,32.71Z"/><path class="cls-2" d="M815.25,22.67c2.07,0,4.14-.09,6.2,0a6.57,6.57,0,0,1,6.15,4.41,6.66,6.66,0,0,1-1.42,7.38c-.34.38-.41.56,0,1a7.53,7.53,0,0,1,2,5.36c0,.61.27,1.39-.12,1.78s-1.13.09-1.72.11-1.1,0-1.64,0-.52-.14-.52-.53a10.4,10.4,0,0,0-.08-2.3,4,4,0,0,0-3.91-3.19q-5.62,0-11.27,0c-.55,0-.78-.08-.74-.7a25.6,25.6,0,0,0,0-2.77c0-.47.14-.59.59-.58h12.2a3,3,0,1,0,.18-6c-4,0-8.09,0-12.13,0-.72,0-.88-.22-.84-.88a23.25,23.25,0,0,0,0-2.64c0-.46.15-.54.56-.54h6.59Z"/><path class="cls-2" d="M789.78,42.7c-1.72,0-3.43,0-5.15,0-.43,0-.57-.12-.55-.56,0-1,0-1.93,0-2.9,0-.45.13-.59.59-.59,3.17,0,6.33,0,9.5,0a6,6,0,0,0,.05-12c-3.12,0-6.24,0-9.36,0-.67,0-.81-.19-.78-.81,0-.9,0-1.8,0-2.7,0-.37.06-.55.5-.54,3.36,0,6.73-.06,10.09.07a9.92,9.92,0,0,1,9.4,9,10.08,10.08,0,0,1-7.78,10.81,12.11,12.11,0,0,1-2.62.24Z"/><path class="cls-2" d="M869.91,22.67c1.61,0,3.21-.06,4.81,0a10,10,0,0,1,1.18,19.84,13.52,13.52,0,0,1-2.1.17c-3,0-6,0-9,0-.56,0-.71-.15-.68-.7,0-.92,0-1.84,0-2.76,0-.47.14-.59.6-.59q4.63,0,9.29,0a6,6,0,0,0,.33-12c-3.17,0-6.33,0-9.49,0-.58,0-.77-.13-.73-.72a25.6,25.6,0,0,0,0-2.77c0-.44.12-.56.55-.56,1.76,0,3.51,0,5.27,0Z"/><path class="cls-2" d="M760.13,36.86c0-1.63-.06-3.25,0-4.88a10,10,0,0,1,20,.7c0,3.15,0,6.29,0,9.43,0,.44-.1.62-.58.6-.92,0-1.84,0-2.77,0-.5,0-.67-.11-.66-.65,0-3.1,0-6.19,0-9.29a6,6,0,0,0-12-.3q0,4.8,0,9.62c0,.5-.14.64-.62.62-.92,0-1.84,0-2.77,0-.49,0-.68-.1-.67-.64,0-1.74,0-3.47,0-5.21Z"/><path class="cls-2" d="M860.13,32.73c0,3.1,0,6.2,0,9.3,0,.56-.17.71-.71.68-.89,0-1.8,0-2.7,0-.43,0-.61-.09-.61-.58q0-9.47,0-18.92c0-.49.18-.59.61-.58.9,0,1.81,0,2.7,0,.54,0,.71.12.71.69C860.12,26.45,860.13,29.59,860.13,32.73Z"/><path class="cls-2" d="M842.11,22.65a10,10,0,1,0,10,9.93A10,10,0,0,0,842.11,22.65Zm0,16a6,6,0,1,1,6-6A6,6,0,0,1,842.1,38.67Z"/></g><path d="M717.24,11.87l2.06-3.43a.82.82,0,1,0-1.41-.85l-2.18,3.62a12.21,12.21,0,0,0-8.26,0l-2.17-3.62a.83.83,0,0,0-1.42.85l2.06,3.43a12.38,12.38,0,0,0-6.71,11,.82.82,0,0,0,.82.82h23.1a.83.83,0,0,0,.83-.82A12.39,12.39,0,0,0,717.24,11.87ZM700.89,22a10.73,10.73,0,0,1,21.39,0Z"/><path d="M717.34,16.56h-1.09a.55.55,0,0,0-.54.55V18.2a.54.54,0,0,0,.54.54h1.09a.54.54,0,0,0,.54-.54V17.11A.55.55,0,0,0,717.34,16.56Z"/><path d="M706.91,16.56h-1.09a.55.55,0,0,0-.54.55V18.2a.54.54,0,0,0,.54.54h1.09a.55.55,0,0,0,.55-.54V17.11A.55.55,0,0,0,706.91,16.56Z"/><path d="M723.13,24.52H700a.82.82,0,0,0-.82.82V42a4,4,0,0,0,4,4h1v5a3.3,3.3,0,0,0,6.6,0V46h1.65v5a3.3,3.3,0,0,0,6.6,0V46h1a4,4,0,0,0,4-4V25.34A.82.82,0,0,0,723.13,24.52ZM722.31,42A2.33,2.33,0,0,1,720,44.31h-1.79a.83.83,0,0,0-.82.83v5.78a1.65,1.65,0,0,1-3.3,0V45.14a.83.83,0,0,0-.83-.83h-3.3a.83.83,0,0,0-.82.83v5.78a1.65,1.65,0,0,1-3.3,0V45.14a.83.83,0,0,0-.83-.83H703.2A2.33,2.33,0,0,1,700.86,42V26.17h21.45Z"/><path d="M727.67,24.52a2.89,2.89,0,0,0-2.89,2.89V39a2.89,2.89,0,0,0,5.78,0V27.41A2.89,2.89,0,0,0,727.67,24.52ZM728.91,39a1.24,1.24,0,1,1-2.48,0V27.41a1.24,1.24,0,1,1,2.48,0Z"/><path d="M695.49,24.52a2.88,2.88,0,0,0-2.88,2.89V39a2.89,2.89,0,1,0,5.77,0V27.41A2.89,2.89,0,0,0,695.49,24.52ZM696.73,39a1.24,1.24,0,1,1-2.47,0V27.41a1.24,1.24,0,1,1,2.47,0Z"/><path class="cls-2" d="M353.43,28.43h-7.3V24.68h18.68v3.75h-7.3V47.7h-4.08Z"/><path class="cls-2" d="M367.1,24.68h4.48l6.94,17.69,6.9-17.69h4.37l-9.56,23.18h-3.56Z"/><g id="WVMjRl"><path d="M329.27,0c1.42,1.12,1.46,2,.12,3.25-2.93,2.8-5.85,5.6-8.79,8.38a4.87,4.87,0,0,1-1.06.63l.3.41c.36,0,.71.06,1.06.06,3.76,0,7.52,0,11.27,0a4.65,4.65,0,0,1,4.91,4.85q0,14.47,0,28.93a4.69,4.69,0,0,1-4.83,4.83q-17.67,0-35.32,0a4.67,4.67,0,0,1-4.77-4.76q0-14.58,0-29.18a4.6,4.6,0,0,1,4.69-4.67c3.93,0,7.85,0,11.77,0h1.17c-1.37-1.46-2.68-2.88-4-4.28-.75-.78-1.55-1.52-2.33-2.28a1.53,1.53,0,0,1-.12-2.33,1.51,1.51,0,0,1,2.33.06c2,1.93,4,3.88,6,5.83l3.13,3c1.67-1.58,3.29-3.11,4.91-4.66l7.32-7c.39-.37.81-.7,1.22-1ZM314.62,48.15h17.15c1.64,0,2.19-.54,2.19-2.17q0-13.89,0-27.79c0-1.76-.57-2.32-2.33-2.32H297.58c-1.75,0-2.31.57-2.31,2.34V45.86c0,1.78.52,2.28,2.33,2.28Z"/><path d="M305.22,56.36c-.56-.59-1.28-1.13-.89-2.11s1.21-1.14,2.15-1.14q8.14,0,16.27,0c.94,0,1.77.15,2.16,1.14s-.33,1.52-.9,2.11Z"/></g><g id="PFZo1f"><path d="M938.82,9a22.55,22.55,0,1,1-22.54,22.55A22.52,22.52,0,0,1,938.82,9Zm-9.57,33.33c1-.17,1.53-.29,2.09-.37A45.62,45.62,0,0,1,947,42.1c.8.15,1.23,0,1.38-.86.31-1.72.72-3.43,1-5.15.18-1.27.17-2.57.25-3.84H927.77ZM949.58,30.8a32.06,32.06,0,0,0-1.38-9.52c-.07-.22-.8-.41-1.17-.35a44.09,44.09,0,0,1-12.82.5c-1.55-.17-3.1-.4-4.71-.6a32.6,32.6,0,0,0-1.48,10ZM929.93,19.4a43.75,43.75,0,0,0,17.73,0c-1.22-3.16-2.64-6-5.44-7.95a5.6,5.6,0,0,0-6.54-.19C932.65,13.14,931.22,16.15,929.93,19.4Zm.12,24.18a16,16,0,0,0,4.62,7.47,5.8,5.8,0,0,0,6.93.86c3.25-1.82,4.76-4.93,6-8.31A44,44,0,0,0,930.05,43.58Zm-2.14-23.14-5.86-1.87a21,21,0,0,0-4.39,12.16h8.7Zm21.78,0c.52,3.46,1,6.86,1.53,10.27h8.72a20.67,20.67,0,0,0-4-11.58,1.07,1.07,0,0,0-.91-.4C953.19,19.28,951.37,19.9,949.69,20.45Zm0,22.11c1.71.56,3.48,1.16,5.27,1.71a1,1,0,0,0,.86-.26,20.6,20.6,0,0,0,4.1-11.75h-8.7C950.71,35.72,950.22,39.07,949.7,42.56Zm-21.81,0-1.53-10.31h-8.71a20.85,20.85,0,0,0,4.42,12.17ZM933.56,11A21.16,21.16,0,0,0,923,17.46c1.76.53,3.33,1,4.92,1.47a1,1,0,0,0,.87-.44A21,21,0,0,1,933.56,11Zm21.05,6.45a20.69,20.69,0,0,0-9.86-6.24c1.26,2.25,2.58,4.64,4,7,.2.34.77.78,1.06.7C951.33,18.51,952.85,18,954.61,17.44ZM933.54,52a21.25,21.25,0,0,1-4.75-7.47,1,1,0,0,0-.87-.46c-1.59.42-3.16.93-4.92,1.48A21.25,21.25,0,0,0,933.54,52Zm21.07-6.45c-1.8-.55-3.36-1.06-5-1.48a1,1,0,0,0-.86.48A21.52,21.52,0,0,1,944.06,52,21.57,21.57,0,0,0,954.61,45.56Z"/><path class="cls-3" d="M954.61,45.56A21.57,21.57,0,0,1,944.06,52a21.52,21.52,0,0,0,4.74-7.45,1,1,0,0,1,.86-.48C951.25,44.5,952.81,45,954.61,45.56Z"/></g><path d="M972,23.49h3.62l4.55,14.12,4.68-14.18h2.83l4.68,14.18,4.55-14.12h3.51l-6.64,19.19H990.9L986.22,29l-4.68,13.69h-2.89Z"/><path d="M1000.25,35.41v0c0-4.12,2.91-7.49,7-7.49,4.57,0,6.89,3.59,6.89,7.73,0,.3,0,.6-.06.93h-10.56a4,4,0,0,0,4.14,3.64,5.24,5.24,0,0,0,3.89-1.71l1.93,1.71a7.25,7.25,0,0,1-5.88,2.7A7.17,7.17,0,0,1,1000.25,35.41Zm10.64-1.06c-.22-2.13-1.47-3.79-3.65-3.79-2,0-3.43,1.56-3.73,3.79Z"/><path d="M1020.09,40.31v2.23h-3.29V22.67h3.29v7.89a5.75,5.75,0,0,1,4.87-2.69c3.41,0,6.7,2.69,6.7,7.46v.05c0,4.77-3.27,7.46-6.7,7.46A5.88,5.88,0,0,1,1020.09,40.31Zm8.22-4.93v-.05c0-2.78-1.88-4.6-4.11-4.6a4.33,4.33,0,0,0-4.19,4.6v.05a4.31,4.31,0,0,0,4.19,4.6C1026.46,40,1028.31,38.21,1028.31,35.38Z"/><path d="M1042.23,23.49h8.54a6.89,6.89,0,0,1,5,1.68,4.26,4.26,0,0,1,1.28,3.16v.06a4.52,4.52,0,0,1-2.72,4.24c2.23.77,3.79,2,3.79,4.63v.06c0,3.4-2.81,5.22-7.06,5.22h-8.81Zm7.86,8c2.15,0,3.6-.85,3.6-2.59v-.05c0-1.5-1.2-2.43-3.35-2.43h-4.82v5.07Zm1,8.05c2.29,0,3.68-.89,3.68-2.61v-.05c0-1.61-1.28-2.56-3.92-2.56h-5.31v5.22Z"/><path d="M1060.82,28.17h3.29v3.24a5.1,5.1,0,0,1,5.09-3.51v3.48H1069c-2.88,0-4.9,1.88-4.9,5.69v5.47h-3.29Z"/><path d="M1070.1,35.44v-.06a7.67,7.67,0,0,1,15.33-.05v.05a7.52,7.52,0,0,1-7.7,7.49A7.44,7.44,0,0,1,1070.1,35.44Zm12,0v-.06a4.45,4.45,0,0,0-4.41-4.63,4.32,4.32,0,0,0-4.33,4.58v.05a4.45,4.45,0,0,0,4.38,4.63A4.34,4.34,0,0,0,1082.14,35.44Z"/><path d="M1086.22,28.17h3.38l2.88,9.85,3.19-9.91h2.8l3.21,9.91,2.94-9.85h3.3l-4.71,14.48h-2.94l-3.21-9.83-3.24,9.83h-2.94Z"/><path d="M1108.6,40.66l1.47-2.23a8.07,8.07,0,0,0,4.71,1.77c1.42,0,2.23-.6,2.23-1.55v-.06c0-1.11-1.52-1.49-3.21-2-2.12-.6-4.49-1.47-4.49-4.22v0c0-2.73,2.26-4.39,5.12-4.39a10,10,0,0,1,5.28,1.64l-1.31,2.34a8.29,8.29,0,0,0-4.06-1.36c-1.28,0-2,.6-2,1.44V32c0,1,1.55,1.47,3.24,2,2.1.65,4.46,1.6,4.46,4.19v.06c0,3-2.34,4.51-5.33,4.51A10.09,10.09,0,0,1,1108.6,40.66Z"/><path d="M1121.91,35.41v0c0-4.12,2.92-7.49,7-7.49,4.57,0,6.88,3.59,6.88,7.73,0,.3,0,.6,0,.93h-10.56a4,4,0,0,0,4.13,3.64,5.26,5.26,0,0,0,3.9-1.71l1.93,1.71a7.25,7.25,0,0,1-5.88,2.7A7.17,7.17,0,0,1,1121.91,35.41Zm10.65-1.06c-.22-2.13-1.47-3.79-3.65-3.79-2,0-3.43,1.56-3.73,3.79Z"/><path d="M1138.47,28.17h3.29v3.24a5.1,5.1,0,0,1,5.09-3.51v3.48h-.19c-2.89,0-4.9,1.88-4.9,5.69v5.47h-3.29Z"/></g></g></svg>