<svg xmlns="http://www.w3.org/2000/svg" viewBox="0 0 80 75.23"><defs><style>.cls-1{fill:#a02c72;}</style></defs><title>Asset 16</title><g id="Layer_2" data-name="Layer 2"><g id="Layer_1-2" data-name="Layer 1"><g id="xxK3Fz"><path class="cls-1" d="M0,71.36V20.74a1.06,1.06,0,0,0,.1-.12c.87-2.76,2.24-3.77,5.15-3.77H75.3a4.55,4.55,0,0,1,4.34,2.87c.13.34.24.68.36,1V71.36s-.09.07-.1.12c-.94,2.77-2.31,3.75-5.27,3.75H4.9a4.58,4.58,0,0,1-4.75-3.6A1.74,1.74,0,0,0,0,71.36ZM40,60.92H73.27c1.65,0,2.16-.5,2.16-2.14V23.47c0-1.56-.55-2.1-2.11-2.1H6.76c-1.67,0-2.2.53-2.2,2.19q0,17.62,0,35.23c0,1.64.5,2.14,2.15,2.14ZM52.22,71.2a3.13,3.13,0,1,0-3-3.31A3.17,3.17,0,0,0,52.22,71.2Zm9.3-3.12A3.1,3.1,0,1,0,64.63,65,3.12,3.12,0,0,0,61.52,68.08Z"/><path class="cls-1" d="M39.9,8.36c.34-.32.54-.5.74-.7l6.9-6.9A2.22,2.22,0,0,1,50,.14,2.22,2.22,0,0,1,51.48,2a2.17,2.17,0,0,1-.65,1.93C47.76,7,44.7,10,41.61,13.1a2.16,2.16,0,0,1-3.21,0q-4.63-4.59-9.22-9.22a2.21,2.21,0,0,1,0-3.21,2.22,2.22,0,0,1,3.22,0q3.4,3.38,6.79,6.79C39.43,7.74,39.64,8,39.9,8.36Z"/><path class="cls-1" d="M41.78,50.29V39.58h3.55v7.09c.36,0,.59,0,.82,0H59.74c1.65,0,2.31-.66,2.31-2.32V38c0-1.75-.66-2.42-2.39-2.42H41.8V32H60.16A5.12,5.12,0,0,1,65,34.93a6.2,6.2,0,0,1,.61,2.54c.08,2.42.06,4.84,0,7.26a5.39,5.39,0,0,1-5.48,5.61c-6,.07-12,0-18,0A2,2,0,0,1,41.78,50.29Z"/><path class="cls-1" d="M34.38,32h3.67V50.29H34.37V43.07h-13v3.37c0,1.09,0,2.18,0,3.27,0,.22-.22.61-.35.61-1.09,0-2.17,0-3.31,0V32h3.67v7.24c.35,0,.6,0,.85,0,3.8,0,7.6,0,11.4,0,.68,0,.82-.24.81-.86C34.36,36.34,34.38,34.21,34.38,32Z"/></g></g></g></svg>