<svg xmlns="http://www.w3.org/2000/svg" viewBox="0 0 99 79.38"><defs><style>.cls-1{fill:#a02c72;}</style></defs><title>Asset 17</title><g id="Layer_2" data-name="Layer 2"><g id="Layer_1-2" data-name="Layer 1"><g id="_1Kn5G9" data-name="1Kn5G9"><path class="cls-1" d="M60.28,11.26a3.9,3.9,0,0,0,3.17,3,5.64,5.64,0,0,0,3.69-.32,3.37,3.37,0,0,0,2.1-2.63C82.1,12.5,96.9,23.56,98.8,41.54A34.22,34.22,0,1,1,60.28,11.26ZM92.06,45.17A27.29,27.29,0,1,0,64.73,72.43,27.28,27.28,0,0,0,92.06,45.17Z"/><path class="cls-1" d="M13.12,41.6H23.63a2.48,2.48,0,1,1,.1,5H2.63A2.5,2.5,0,0,1,.09,44.72,2.47,2.47,0,0,1,2.4,41.61H13.12Z"/><path class="cls-1" d="M17,59.19H8a2.48,2.48,0,0,1-1.69-4.32,2.64,2.64,0,0,1,1.86-.65H20.06c2,0,4,0,5.92,0a2.47,2.47,0,0,1,2.2,3.63,2.44,2.44,0,0,1-2.28,1.33Z"/><path class="cls-1" d="M17,34c-3,0-6,0-9,0a2.47,2.47,0,0,1-1.52-4.42A2.82,2.82,0,0,1,8.23,29H22.59c1.12,0,2.23,0,3.35,0a2.48,2.48,0,1,1,0,4.95C23,34,20,34,17,34Z"/><path class="cls-1" d="M25,66.39c2.57,0,5.14,0,7.72,0A2.47,2.47,0,0,1,33,71.33H17.36a2.47,2.47,0,0,1,0-4.94C19.91,66.38,22.47,66.39,25,66.39Z"/><path class="cls-1" d="M25.08,16.78c2.5,0,5,0,7.51,0A2.48,2.48,0,0,1,33,21.71a3.77,3.77,0,0,1-.47,0h-15A2.5,2.5,0,0,1,15,20.11a2.46,2.46,0,0,1,2.28-3.32c1.68,0,3.37,0,5.06,0Z"/><path class="cls-1" d="M65,6h-5.7a2,2,0,0,1-2.24-2.23c0-.55,0-1.11,0-1.67A2,2,0,0,1,59.15,0H70.9A2,2,0,0,1,73,2.06q0,.9,0,1.8A2,2,0,0,1,70.85,6Z"/><path class="cls-1" d="M64.79,7h2.15c.54,0,.56,0,.57.55,0,1.07,0,2.14,0,3.21a1.93,1.93,0,0,1-1.64,2.09,4.32,4.32,0,0,1-2.61-.15A1.75,1.75,0,0,1,62.06,11c0-1.21,0-2.43,0-3.64,0-.31.17-.38.44-.38Z"/><path class="cls-1" d="M64.28,23.34h1.49v.55c0,5.95,0,11.9,0,17.85,0,.36.06.53.44.66A3.46,3.46,0,0,1,65,49.12a3.48,3.48,0,0,1-3.4-2.84,3.44,3.44,0,0,1,2.25-3.89c.38-.12.42-.31.42-.64V23.34Z"/><path class="cls-1" d="M70.31,42.71A3.65,3.65,0,0,0,68,40.37l5.84-5.86,2.33,2.34Z"/></g></g></g></svg>