<?xml version="1.0" encoding="utf-8"?>
<!-- Generator: Adobe Illustrator 23.0.3, SVG Export Plug-In . SVG Version: 6.00 Build 0)  -->
<svg version="1.1" id="Layer_1" xmlns="http://www.w3.org/2000/svg" xmlns:xlink="http://www.w3.org/1999/xlink" x="0px" y="0px"
	 viewBox="0 0 98.4 40" style="enable-background:new 0 0 98.4 40;" xml:space="preserve">
<style type="text/css">
	.st0{fill:#404041;}
	.st1{fill:#FFFFFF;}
	.st2{enable-background:new    ;}
</style>
<title>Asset 36</title>
<g>
	<g id="Layer_1-2">
		<path class="st0" d="M9.6,0h79.1c5.3,0,9.6,4.3,9.6,9.6v20.8c0,5.3-4.3,9.6-9.6,9.6H9.6C4.3,40,0,35.7,0,30.4V9.6
			C0,4.3,4.3,0,9.6,0z"/>
		<path class="st1" d="M36.8,26c-0.5,1.1-1.1,2.2-1.8,3.3c-1.1,1.7-2.8,3.9-4.7,3.9c-1.8,0-2.2-1.2-4.6-1.1s-2.9,1.2-4.6,1.1
			c-2,0-3.5-2-4.6-3.7c-3.2-4.9-3.5-10.6-1.6-13.6c1.2-2,3.3-3.3,5.7-3.4c2.1,0,3.4,1.2,5.2,1.2s2.7-1.2,5.2-1.2
			c2,0.1,3.9,1.1,5.2,2.7c-2.9,1.6-3.9,5.2-2.4,8.1C34.3,24.5,35.4,25.5,36.8,26z"/>
		<path class="st1" d="M28.9,10.6c1-1.2,1.5-2.8,1.3-4.4c-1.6,0.2-3.1,1-4.1,2.2c-1,1.2-1.5,2.7-1.4,4.3
			C26.4,12.6,27.9,11.8,28.9,10.6z"/>
		<g class="st2">
			<path class="st1" d="M51.1,23.7V22l6.1,0v5.3c-0.9,0.7-1.9,1.3-2.9,1.7c-1,0.4-2,0.6-3,0.6c-1.4,0-2.7-0.3-3.8-0.9
				s-2-1.5-2.6-2.6s-0.9-2.4-0.9-3.8c0-1.4,0.3-2.7,0.9-3.9s1.4-2.1,2.5-2.7s2.4-0.9,3.8-0.9c1,0,2,0.2,2.8,0.5
				c0.8,0.3,1.5,0.8,2,1.4c0.5,0.6,0.8,1.4,1.1,2.3l-1.7,0.5c-0.2-0.7-0.5-1.3-0.8-1.7c-0.3-0.4-0.8-0.8-1.4-1
				c-0.6-0.3-1.2-0.4-2-0.4c-0.9,0-1.6,0.1-2.2,0.4s-1.1,0.6-1.5,1s-0.7,0.9-0.9,1.4c-0.4,0.9-0.5,1.8-0.5,2.9
				c0,1.3,0.2,2.3,0.7,3.2s1.1,1.5,1.9,1.9s1.7,0.6,2.7,0.6c0.8,0,1.6-0.2,2.4-0.5s1.4-0.7,1.8-1v-2.7H51.1z"/>
			<path class="st1" d="M60,29.3V15h10.4v1.7h-8.5V21h7.9v1.7h-7.9v4.9h8.8v1.7H60z"/>
		</g>
		<g class="st2">
			<path class="st1" d="M76.9,29.3V16.6h-4.7V15h11.3v1.7h-4.7v12.6H76.9z"/>
		</g>
	</g>
</g>
</svg>
