<svg xmlns="http://www.w3.org/2000/svg" viewBox="0 0 60.24 51.94"><defs><style>.cls-1{fill:#a02c72;}</style></defs><title>Asset 32</title><g id="Layer_2" data-name="Layer 2"><g id="Layer_1-2" data-name="Layer 1"><g id="d06B38"><path class="cls-1" d="M30.11,51.93H5.35A5.14,5.14,0,0,1,.18,48.09,5.39,5.39,0,0,1,0,46.76Q0,26,0,5.18A5.15,5.15,0,0,1,5.18,0H55a5.15,5.15,0,0,1,5.22,5.3q0,12.65,0,25.28V46.42a5.17,5.17,0,0,1-5.52,5.51ZM57.93,8.81H2.32V43.12H57.93ZM8.69,6.67V2.17H4.14v4.5Zm47.43,0V2.17H51.55V6.68Zm-9.43-4.5H42.14V6.67h4.55Zm-23.56,0V6.67h4.55V2.16Zm9.42,0V6.65a1,1,0,0,0,.21,0c1.35,0,2.7,0,4,0,.34,0,.35-.19.35-.43V2.17ZM27.68,49.91V45.4H23.13v4.51Zm4.88-4.51v4.5h4.56V45.4ZM8.68,49.92V45.41H4.14v4.51Zm38-4.51H42.14v4.5h4.55Zm9.42,4.51V45.4H51.56v4.52ZM13.64,2.16V6.67h4.53V2.16Zm4.53,43.25H13.64v4.5h4.53Z"/><path class="cls-1" d="M30.1,37.94A12,12,0,1,1,42.18,26.05,12,12,0,0,1,30.1,37.94ZM26.73,26c0,1.7,0,3.4,0,5.09a1,1,0,0,0,.29.75,1,1,0,0,0,.79-.15c2.7-1.68,5.39-3.39,8.08-5.09.67-.42.67-.79,0-1.22-2.69-1.7-5.37-3.4-8.07-5.08a.94.94,0,0,0-.79-.14,1,1,0,0,0-.28.76C26.71,22.58,26.73,24.28,26.73,26Z"/></g></g></g></svg>