<svg xmlns="http://www.w3.org/2000/svg" viewBox="0 0 86.22 72.27"><defs><style>.cls-1{fill:#a02c72;stroke:#a02c72;stroke-miterlimit:10;stroke-width:2px;}</style></defs><title>Asset 21</title><g id="Layer_2" data-name="Layer 2"><g id="Layer_1-2" data-name="Layer 1"><g id="_0KXME9" data-name="0KXME9"><path class="cls-1" d="M1,26.06A28.74,28.74,0,0,1,6.37,14.12,33.72,33.72,0,0,1,25.53,2.33c13.24-3,25.51-1,36.19,7.83a24,24,0,0,1,8.62,15.23c-1.11-.87-2.22-1.3-2.46-2-2.94-8.91-9.31-14.44-17.8-17.49C37.14,1.23,24.59,2.27,13.32,10.55-.44,20.66,0,38.29,14,48.05c1.57,1.1,1.92,2,1.21,3.77a71.81,71.81,0,0,0-3.3,10.06c3.16-2.36,6.37-4.67,9.46-7.11A5.07,5.07,0,0,1,26,53.68a75.29,75.29,0,0,0,8.76,1c1.77.16,1.78.08,2.86,2.53-3.72-.35-7.2-.47-10.59-1.07a6.21,6.21,0,0,0-5.54,1.35c-3.6,2.9-7.36,5.6-11.11,8.32a6.51,6.51,0,0,1-2.05.55,6,6,0,0,1-.09-2.1c1.62-4.62,3.32-9.2,4.92-13.57-2.26-2.19-4.48-4.13-6.44-6.3C3.55,40.88,2,36.52,1,32Z"/><path class="cls-1" d="M85.22,49.22a15.2,15.2,0,0,1-6,9.5,1.92,1.92,0,0,0-.33,1.6c.63,2.87,1.39,5.71,2,8.59a7.5,7.5,0,0,1-.18,2.14,6.34,6.34,0,0,1-2.1-.5c-2.64-1.71-5.18-3.59-7.86-5.26a4.48,4.48,0,0,0-2.86-.6c-7.75,1.26-15.11.46-21.74-4.07-11-7.56-11-21.29,0-28.91a20.88,20.88,0,0,1,3.27-1.89,27.91,27.91,0,0,1,24-.15A20.07,20.07,0,0,1,85.22,43.75Zm-7,18.35c-.7-2.89-1.18-5.21-1.84-7.49A2.38,2.38,0,0,1,77.57,57a10.7,10.7,0,0,0,5.13-7.59,14.91,14.91,0,0,0-5.31-14.48c-8.65-7.56-24-7.36-32.3.51-4.44,4.19-6.25,9.28-4.18,15.25,1.76,5.12,5.67,8.23,10.47,10.3A26.13,26.13,0,0,0,67.05,62.4a5.78,5.78,0,0,1,5.23,1.09C74,64.9,75.94,66,78.2,67.57Z"/></g></g></g></svg>