<svg xmlns="http://www.w3.org/2000/svg" viewBox="0 0 94 59.38"><defs><style>.cls-1{fill:#a02c72;}</style></defs><title>Asset 18</title><g id="Layer_2" data-name="Layer 2"><g id="Layer_1-2" data-name="Layer 1"><g id="JoWh3a"><path class="cls-1" d="M69.38,13.89C76.23,9.5,82.59,5.36,89,1.35c1-.63,2.69-1.26,3.5-.83s1.39,2.17,1.4,3.34q.12,26,0,51.91c0,1.09-.49,2.67-1.27,3.12s-2.36,0-3.28-.61C83.62,54.7,77.94,51,72.23,47.3c-.84-.54-1.72-1-3-1.74,0,1.43,0,2.42,0,3.4-.11,6.3-4.19,10.37-10.55,10.39q-24.1.06-48.21,0C4.16,59.33.05,55.23,0,48.9Q0,29.75,0,10.59C.05,4.07,4.13,0,10.69,0Q34,0,57.34,0c8.24,0,11.79,3.52,11.93,11.81C69.28,12.32,69.32,12.82,69.38,13.89ZM34.72,54.42c7.82,0,15.65,0,23.47,0,4.27,0,6.11-1.77,6.12-5.91q0-18.82,0-37.66c0-4-1.82-5.87-5.83-5.88q-23.77,0-47.55,0C6.73,5,5,6.76,5,11q0,18.68,0,37.36c0,4.24,1.77,6,6,6C18.88,54.44,26.8,54.42,34.72,54.42Zm54.13-2.26v-45c-6.45,4.16-12.6,8.06-18.65,12.09a3.25,3.25,0,0,0-.89,2.38q-.12,8,0,16.06a3.24,3.24,0,0,0,.89,2.37C76.26,44.12,82.4,48,88.85,52.16Z"/></g><path class="cls-1" d="M17,24.86a5.62,5.62,0,0,1,5.68,5.69,5.72,5.72,0,0,1-5.79,5.61,5.64,5.64,0,0,1-5.52-5.59A5.57,5.57,0,0,1,17,24.86Z"/><path class="cls-1" d="M28.44,36.44H26.15V24.61c2.28,0,4.57-.13,6.83,0a2.74,2.74,0,0,1,2.86,2.73A3.18,3.18,0,0,1,33.53,31a4.07,4.07,0,0,1-.4.14l3.81,5.37a23.51,23.51,0,0,1-2.59,0,1.37,1.37,0,0,1-.79-.61c-.72-1-1.41-2-2.08-3.06a2.59,2.59,0,0,0-3-1.21Zm.08-9.91c-.39,3.09-.37,3.11,2.54,3a6.37,6.37,0,0,0,1-.07A1.43,1.43,0,0,0,33.41,28a1.33,1.33,0,0,0-1.36-1.42C30.9,26.47,29.74,26.53,28.52,26.53Z"/><path class="cls-1" d="M46.58,29.24v1.92c-1.39,0-2.73,0-4.06,0-2.26,0-1.92-.25-2,2,0,.43,0,.85.07,1.37h6.59v1.88H38.35V24.57H47v1.9c-1.82,0-3.6.07-5.37,0-1.13-.06-1.13.55-1.1,1.34s-.19,1.55,1.08,1.47C43.27,29.16,44.9,29.24,46.58,29.24Z"/><path class="cls-1" d="M57.26,32.16l2.11.69a4.33,4.33,0,0,1-3.75,3.77,5.23,5.23,0,0,1-5.71-2.48A7.41,7.41,0,0,1,50,26.82c1.2-2.17,3.29-2.73,5.63-2.47a4.25,4.25,0,0,1,3.78,3.41l-2.17.53.14-.37a10.9,10.9,0,0,0-2.42-1.55,2.55,2.55,0,0,0-3,1.7,6.94,6.94,0,0,0-.11,4.5A2.7,2.7,0,0,0,57,32.9C57,32.7,57.12,32.5,57.26,32.16Z"/></g></g></svg>