<svg xmlns="http://www.w3.org/2000/svg" viewBox="0 0 63.68 78.91"><defs><style>.cls-1{fill:#a02c72;}</style></defs><title>Asset 19</title><g id="Layer_2" data-name="Layer 2"><g id="Layer_1-2" data-name="Layer 1"><g id="_9QHhWX" data-name="9QHhWX"><path class="cls-1" d="M10.94,68.68a5.82,5.82,0,0,1-7.49.71C.51,67.56-.31,64.64.1,61.37c.46-3.68,3-6.26,6.22-6.61,4.06-.44,7.22,1.37,8.46,5.12a21.13,21.13,0,0,1-.06,13.65,7.87,7.87,0,0,1-9.5,5.11c-2.54-.58-4-2.33-4.69-5.58l4.1-.46a3.32,3.32,0,0,1,.23.47c.59,1.58,1.2,2.09,2.52,2.1a3,3,0,0,0,2.92-2.06c.44-1.39.66-2.84,1-4.27ZM10.8,63.1,11,63a19.32,19.32,0,0,0-1.22-3.29,2.68,2.68,0,0,0-2.95-1.35,2.8,2.8,0,0,0-2.29,2.46,11.31,11.31,0,0,0-.09,2.85c.17,2.16,1.46,3.53,3.18,3.49s2.89-1.4,3.11-3.48C10.79,63.5,10.79,63.3,10.8,63.1Z"/><path class="cls-1" d="M19,73.07c.85-.11,1.52-.22,2.19-.29s1.27-.1,2-.15c.32,1.15.74,2.23,2.08,2.5a3,3,0,0,0,3.52-2c.46-1.38.67-2.85,1-4.5a2.69,2.69,0,0,0-.68.29c-2.14,2.22-6.44,2-8.86-.85-3.77-4.41-1.56-11.91,3.93-13.17a7.41,7.41,0,0,1,8.86,4.59,20.68,20.68,0,0,1,0,14.44,7.82,7.82,0,0,1-10.51,4.34C20.33,77.25,19.37,75.42,19,73.07ZM29.34,63a5.44,5.44,0,0,0-1.52-3.85,2.72,2.72,0,0,0-4.59,1,6.85,6.85,0,0,0,.1,5.15,2.82,2.82,0,0,0,2.72,1.83,2.73,2.73,0,0,0,2.66-1.72A16.09,16.09,0,0,0,29.34,63Z"/><path class="cls-1" d="M44.63,73l3.94-.43a1.72,1.72,0,0,1,.21.4A2.5,2.5,0,0,0,51,75.16a2.75,2.75,0,0,0,3-1.68,35.66,35.66,0,0,0,1.24-4.71,16.75,16.75,0,0,1-3.6,1.48,6.67,6.67,0,0,1-7.59-6.08,12.68,12.68,0,0,1,.11-3.69,7,7,0,0,1,6.61-5.75c3.93-.19,7,1.76,8,5.44a22.37,22.37,0,0,1,0,13,7.92,7.92,0,0,1-10.3,5.28A5.72,5.72,0,0,1,44.63,73ZM54.7,63l.29-.12a22.16,22.16,0,0,0-1.47-3.42,2.46,2.46,0,0,0-2.73-1.07,2.69,2.69,0,0,0-2.18,2.15,10.3,10.3,0,0,0-.27,2.6c0,2.44,1.35,4,3.21,4S54.7,65.52,54.7,63Z"/><path class="cls-1" d="M36.6,74h4.18v4.35H36.6Z"/></g><g id="_1X1ktx" data-name="1X1ktx"><path class="cls-1" d="M32.58,0a47,47,0,0,1,5.93.43,42.53,42.53,0,0,1,11.06,3,41.84,41.84,0,0,1,10,6c1,.82,2,1.68,2.95,2.59a3.63,3.63,0,0,1,1,4,3.82,3.82,0,0,1-6.23,1.5,36.07,36.07,0,0,0-6.64-5.08,34.24,34.24,0,0,0-8.65-3.62,35.42,35.42,0,0,0-6-1,37.87,37.87,0,0,0-6.21,0,34.73,34.73,0,0,0-11.88,3A34.35,34.35,0,0,0,10,15.71c-.78.66-1.51,1.39-2.3,2a3.61,3.61,0,0,1-3.88.58,3.62,3.62,0,0,1-2.33-3.08A3.74,3.74,0,0,1,2.74,12,43,43,0,0,1,8.61,7.25a42.25,42.25,0,0,1,13.71-6A41.19,41.19,0,0,1,29,.18C30.16.09,31.37.06,32.58,0Z"/><path class="cls-1" d="M32.59,12.77a30.11,30.11,0,0,1,13.06,3,30.44,30.44,0,0,1,8.45,6,3.83,3.83,0,1,1-5.36,5.46A23.68,23.68,0,0,0,44,23.49a22.28,22.28,0,0,0-7.18-2.69,22.6,22.6,0,0,0-5.92-.33,22.09,22.09,0,0,0-7.44,1.87A23,23,0,0,0,16.5,27.1a3.87,3.87,0,0,1-3,1.18,3.82,3.82,0,0,1-3.51-3,3.74,3.74,0,0,1,1.11-3.58A30.58,30.58,0,0,1,24.19,14,29.81,29.81,0,0,1,32.59,12.77Z"/><path class="cls-1" d="M18.28,34a3.82,3.82,0,0,1,1-2.7,17.73,17.73,0,0,1,9.78-5.47A17.37,17.37,0,0,1,34,25.56a17.91,17.91,0,0,1,9.75,3.78A15.13,15.13,0,0,1,46,31.47a3.82,3.82,0,0,1-2.23,6.18,3.65,3.65,0,0,1-3.49-1.12,10.59,10.59,0,0,0-5.7-3.18,10,10,0,0,0-6.11.65,10.79,10.79,0,0,0-3.59,2.53,3.76,3.76,0,0,1-5.12.38A3.66,3.66,0,0,1,18.28,34Z"/><path class="cls-1" d="M28,43.33a4.62,4.62,0,1,1,4.61,4.61A4.65,4.65,0,0,1,28,43.33Z"/></g></g></g></svg>