<svg xmlns="http://www.w3.org/2000/svg" viewBox="0 0 56.47 58.77"><defs><style>.cls-1{fill:#a02c72;}</style></defs><title>Asset 33</title><g id="Layer_2" data-name="Layer 2"><g id="Layer_1-2" data-name="Layer 1"><g id="_8oMNxw" data-name="8oMNxw"><path class="cls-1" d="M29.31,51.47H51.37c1.57,0,2.09-.53,2.09-2.07q0-20.55,0-41.11c0-1.39-.61-2-2-2H18.78c-1.61,0-2.14.52-2.16,2.1,0,.93,0,1.86,0,2.79,0,.51-.14.76-.72.73-.73,0-1.48,0-2.33,0V5a4.84,4.84,0,0,1,5.13-5H51.35a4.78,4.78,0,0,1,5.12,5V53.89a4.71,4.71,0,0,1-4.88,4.86c-8,0-16,0-24,0h-.11A20.88,20.88,0,0,0,29,55.29,21.34,21.34,0,0,0,29.31,51.47Zm3.5,3.47A2.19,2.19,0,0,0,35,57.14,2.24,2.24,0,0,0,37.29,55a2.26,2.26,0,0,0-2.24-2.18A2.24,2.24,0,0,0,32.81,54.94Z"/><path class="cls-1" d="M0,36.64V19.53a4.79,4.79,0,0,1,5.17-5q8.06,0,16.12,0a4.8,4.8,0,0,1,5.17,5q0,17.19,0,34.38a4.76,4.76,0,0,1-4.93,4.83q-8.27.06-16.52,0a4.76,4.76,0,0,1-5-5Zm24,0c0-4.67,0-9.34,0-14,0-1.29-.39-1.68-1.69-1.68h-18c-1.31,0-1.72.4-1.72,1.65q0,14,0,28c0,1.29.42,1.69,1.77,1.69h18c1.3,0,1.72-.41,1.72-1.66ZM15.53,55.59a2.23,2.23,0,0,0-2.3-2.25,2.22,2.22,0,0,0-2.3,2.26,2.3,2.3,0,0,0,4.6,0Z"/></g></g></g></svg>