<?xml version="1.0" encoding="utf-8"?>
<!-- Generator: Adobe Illustrator 15.0.0, SVG Export Plug-In . SVG Version: 6.00 Build 0)  -->
<!DOCTYPE svg PUBLIC "-//W3C//DTD SVG 1.1//EN" "http://www.w3.org/Graphics/SVG/1.1/DTD/svg11.dtd" [
	<!ENTITY ns_extend "http://ns.adobe.com/Extensibility/1.0/">
	<!ENTITY ns_ai "http://ns.adobe.com/AdobeIllustrator/10.0/">
	<!ENTITY ns_graphs "http://ns.adobe.com/Graphs/1.0/">
	<!ENTITY ns_vars "http://ns.adobe.com/Variables/1.0/">
	<!ENTITY ns_imrep "http://ns.adobe.com/ImageReplacement/1.0/">
	<!ENTITY ns_sfw "http://ns.adobe.com/SaveForWeb/1.0/">
	<!ENTITY ns_custom "http://ns.adobe.com/GenericCustomNamespace/1.0/">
	<!ENTITY ns_adobe_xpath "http://ns.adobe.com/XPath/1.0/">
]>
<svg version="1.1" id="Layer_1" xmlns:x="&ns_extend;" xmlns:i="&ns_ai;" xmlns:graph="&ns_graphs;"
	 xmlns="http://www.w3.org/2000/svg" xmlns:xlink="http://www.w3.org/1999/xlink" x="0px" y="0px" width="50px" height="50px"
	 viewBox="0 0 50 50" enable-background="new 0 0 50 50" xml:space="preserve">
<metadata><?xpacket begin="﻿" id="W5M0MpCehiHzreSzNTczkc9d"?>
<x:xmpmeta xmlns:x="adobe:ns:meta/" x:xmptk="Adobe XMP Core 5.0-c060 61.134777, 2010/02/12-17:32:00        ">
   <rdf:RDF xmlns:rdf="http://www.w3.org/1999/02/22-rdf-syntax-ns#">
      <rdf:Description rdf:about=""
            xmlns:dc="http://purl.org/dc/elements/1.1/">
         <dc:format>image/svg+xml</dc:format>
         <dc:title>
            <rdf:Alt>
               <rdf:li xml:lang="x-default">Basic RGB</rdf:li>
            </rdf:Alt>
         </dc:title>
      </rdf:Description>
      <rdf:Description rdf:about=""
            xmlns:xmp="http://ns.adobe.com/xap/1.0/"
            xmlns:xmpGImg="http://ns.adobe.com/xap/1.0/g/img/">
         <xmp:CreatorTool>Adobe Illustrator CS5</xmp:CreatorTool>
         <xmp:CreateDate>2018-11-20T18:59:05+05:30</xmp:CreateDate>
         <xmp:ModifyDate>2018-11-20T18:59:05+05:30</xmp:ModifyDate>
         <xmp:MetadataDate>2018-11-20T18:59:05+05:30</xmp:MetadataDate>
         <xmp:Thumbnails>
            <rdf:Alt>
               <rdf:li rdf:parseType="Resource">
                  <xmpGImg:width>256</xmpGImg:width>
                  <xmpGImg:height>256</xmpGImg:height>
                  <xmpGImg:format>JPEG</xmpGImg:format>
                  <xmpGImg:image>/9j/4AAQSkZJRgABAgEASABIAAD/7QAsUGhvdG9zaG9wIDMuMAA4QklNA+0AAAAAABAASAAAAAEA&#xA;AQBIAAAAAQAB/+4ADkFkb2JlAGTAAAAAAf/bAIQABgQEBAUEBgUFBgkGBQYJCwgGBggLDAoKCwoK&#xA;DBAMDAwMDAwQDA4PEA8ODBMTFBQTExwbGxscHx8fHx8fHx8fHwEHBwcNDA0YEBAYGhURFRofHx8f&#xA;Hx8fHx8fHx8fHx8fHx8fHx8fHx8fHx8fHx8fHx8fHx8fHx8fHx8fHx8fHx8f/8AAEQgBAAEAAwER&#xA;AAIRAQMRAf/EAaIAAAAHAQEBAQEAAAAAAAAAAAQFAwIGAQAHCAkKCwEAAgIDAQEBAQEAAAAAAAAA&#xA;AQACAwQFBgcICQoLEAACAQMDAgQCBgcDBAIGAnMBAgMRBAAFIRIxQVEGE2EicYEUMpGhBxWxQiPB&#xA;UtHhMxZi8CRygvElQzRTkqKyY3PCNUQnk6OzNhdUZHTD0uIIJoMJChgZhJRFRqS0VtNVKBry4/PE&#xA;1OT0ZXWFlaW1xdXl9WZ2hpamtsbW5vY3R1dnd4eXp7fH1+f3OEhYaHiImKi4yNjo+Ck5SVlpeYmZ&#xA;qbnJ2en5KjpKWmp6ipqqusra6voRAAICAQIDBQUEBQYECAMDbQEAAhEDBCESMUEFURNhIgZxgZEy&#xA;obHwFMHR4SNCFVJicvEzJDRDghaSUyWiY7LCB3PSNeJEgxdUkwgJChgZJjZFGidkdFU38qOzwygp&#xA;0+PzhJSktMTU5PRldYWVpbXF1eX1RlZmdoaWprbG1ub2R1dnd4eXp7fH1+f3OEhYaHiImKi4yNjo&#xA;+DlJWWl5iZmpucnZ6fkqOkpaanqKmqq6ytrq+v/aAAwDAQACEQMRAD8A9U4q7FXYq7FXYq7FXYq7&#xA;FXYq7FULqGraZp0fqX11HbqenqMAT/qjqfoycMcpfSLac2ox4hc5CLEtS/NjQrclbKGW9cdG/uoz&#xA;9LVb/hczsfZszzNOnz+0GGP0Ay+wfj4MZvvzY8wzEi1igtU7EKZH+9jx/wCFzLh2bjHOy6rL7QZ5&#xA;fSIx+38fJJLrzp5qua+pqc4r/vpvS/5NhcyI6XEP4Q4GTtPUS5zPw2+5LZtR1CY1mupZD4u7N+s5&#xA;aIRHIOLLNOXORPxQ2TanYqiYdR1CE1hupYz4o7L+o5AwieYbY5px5SI+KZWvnTzVbU9PU5zT/fre&#xA;r/ycDZVLS4j/AAhysfaeojymfjv96d2P5seYYSBdRQXSdyVMb/ep4/8AC5jz7NxnlYc/F7QZ4/UI&#xA;y+z8fJk2m/mxoVwQt7DLZOerf3sY+laN/wALmJk7NmORt2uD2gwy+sGP2j8fBlun6tpmox+pY3Ud&#xA;wo6+mwJH+sOo+nMGeOUfqFO4w6jHlFwkJIrINzsVdirsVdirsVdirsVdirsVdirsVdirsVdirsVd&#xA;irsVSbXvN2h6IpF5PyuKVW1i+KU/R+z/ALIjMjDpp5OQ2cHV9o4sH1HfuHN5zrn5o65e8o7BRp8B&#xA;2qvxykf65FB9A+nNpi7PhH6vUXmdV29lntD0D7fmw+eee4laWeRpZW+1I7FmPzJ3zPAAFB0kpmRs&#xA;myp4WLsVdirsVdirsVdirsVdirsVVIJ57eVZYJGilX7MiMVYfIjfAQCKLKMzE2DRZhof5o65ZcY7&#xA;9RqEA2q3wSgf64FD9I+nMDL2fCX0+ku70vb2WG0/WPt+b0bQfN2h62oFnPxuKVa1l+GUfR+1/sSc&#xA;1ebTTx8xs9NpO0cWf6Tv3HmnOY7nOxV2KuxV2KuxV2KuxV2KuxV2KuxV2KuxVQvr6zsbZ7q8mWCC&#xA;MVaRzQf2n2yUIGRoc2vLljjjxSNAPMfM/wCaF5dF7XRQbW36G6P963+r/IPx+WbjT9ngbz3Pc8pr&#xA;u3ZT9OL0x7+v7PvYG7vI7O7F3YkszGpJPUknNiBTzxJJsrcKHYq7FXYq7FXYq7FXYq7FXYq7FXYq&#xA;7FXYquR3jdXRijqQVZTQgjoQRgItIJBsM88sfmheWpS11oG6t+guh/er/rfzj8fnmu1HZ4O8Nj3P&#xA;Q6Ht2UPTl9Ue/r+373p1jfWd9bJdWcyzwSCqyIaj+w+2aecDE0eb1eLLHJHiibBV8i2OxV2KuxV2&#xA;KuxV2KuxV2KuxV2KpP5l806boFp6103OdwfQtlPxuR+pfE5fg08shocnC1uvx6eNy59B3vGvMHmb&#xA;VNduvWvJP3ak+jbrtGg9h4+5zf4cEcYoPD6zXZNRK5HboOgSnLnDdirsVdirsVdirsVdirsVdirs&#xA;VdirsVdirsVdirsVdiqbeX/M2qaFdetZyfu2I9a3beNx7jx9xlObBHIKLmaPXZNPK4nbqOhey+Wv&#xA;NOm6/aetatwnQD17Zj8aE/rXwOaDPp5YzR5PcaLX49RG48+o7k4yhzXYq7FXYq7FXYq7FXYq7FWP&#xA;ecPOFp5ftKCkuoSg/V7ev0c3p0UfjmVptMcp/out7R7Rjpo98zyH6T5PF9S1K91K9kvLyQyzymrM&#xA;e3gAOwHYZv8AHjEBQ5PDZ88ssjKRslC5NpdirsVdirsVdirsVdirsVdirsVdirsVdirsVdirsVdi&#xA;rsVdiqK03Ur3Tb2O8s5DFPEaqw7+II7g9xkMmMTFHk3YM8sUhKJoh7R5P84WnmC0oaRahEB9Yt6/&#xA;RzSvVT+GaDU6Y4j/AEXuezu0Y6mPdMcx+keTIcxXZOxV2KuxV2KuxV2KpP5p8y2mgaabmWjzvVba&#xA;CtC7/wDNI7nL9PgOWVDk4Wv10dPj4jz6DveHalqV7qV7JeXkhlnlNWY9vAAdgOwzoseMQFDk8Dnz&#xA;yyyMpGyULk2l2KuxV2KuxV2KuxV2KuxV2KuxV2KuxV2KuxV2KuxV2KuxV2KuxV2KorTdSvdNvY7y&#xA;zkMU8RqrDv4gjuD3GQyYxMUeTdgzyxSEomiHuPlbzLaa/pouYqJOlFuYK1KP/wA0nsc53UYDilR5&#xA;PfaDXR1GPiHPqO5OMoc12KuxV2KuxVQv762sLOa8un9OCBS8jHwHh7ntkoQMjQ5lry5Y44mUuQeE&#xA;+ZfMF1ruqSXk3wx/Zt4eyRg7D5+OdJgwjHGg+fa7WS1GQyPLoO4JTlzhuxV2KuxV2KuxV2KuxV2K&#xA;uxV2KuxV2KuxV2KuxV2KuxV2KuxV2KuxV2KuxVNvLXmC60LVI7yH4o/s3EPZ4ydx8/DKc+EZI0XM&#xA;0Oslp8gkOXUd4e7WF9bX9nDeWr+pBOoeNh4Hx9x3zm5wMTR5h9BxZY5IiUeRV8i2OxV2KuxV5V+a&#xA;Hmc3V5+hbZ/9GtTW6I/am/l+Sfr+Wbrs/T0OM8y8h27ruOXhR+mPP3/s+9gObJ512KuxV2KuxV2K&#xA;uxV2KuxV2KuxV2KuxV2KuxV2KuxV2KuxV2KuxV2KuxV2KuxV2Ks+/K/zObW8/Qty/wDo10a2pP7M&#xA;38vyf9fzzW9oaexxjmHouwtdwS8KX0y5e/8Ab971XNK9e7FXYqk3m7Xl0TQ57wEfWG/dWynvI3T/&#xA;AIEVb6MyNNh8SYHRwe0dX4GIy68h73g7u7uzuSzsSWY7kk7knOkAfPSSTZW4odirsVdirsVdirsV&#xA;dirsVdirsVdirsVdirsVdirsVdirsVdirsVdirsVdirsVdiq5HdHV0JV1IKsNiCNwRiQkEg2HvHl&#xA;HXl1vQ4LwkfWF/dXKjtIvX/ghRvpzm9Th8OZHR9C7O1fj4hLryPvTnMdznYq8g/NHXPruuCwjasG&#xA;njiadDK1C5+jZfvze9n4eGHF1k8X29qvEy8A5Q+/qwvM90TsVdirsVdirsVdirsVdirsVZpoH5X6&#xA;tqVql1dzrYRSDlErKZJCCKglarSvua5r83aEYGgOJ3uk7CyZY8UjwA/EofzL+XWq6LbtdxyLe2af&#xA;3kiKVdB/MyVbb3ByeDXRyGuRatd2NkwR4geKP46MTzNdO7FXYq7FWT+XPy/1rW4BdKUtbNvsTS1q&#xA;/uijqPfbMPPrYYzXMu20XZGXOOL6Y95/Qr6/+W2taVavdxOl7bxgmUxgh1UftFD2+RyOHXwmaOxZ&#xA;6vsTLhjxD1RHdzYjmc6Z2KuxV2KuxV2KuxV2KuxV2Ks0/K7WzZa4bCRqW+oDiAeglWpQ/Tuv3Zgd&#xA;oYuKHF1i73sHVeHm4Dyn9/R6/mie0Qmr6hHp2mXV9JTjbxtJQ9yB8K/SdsnihxyEe9p1GYYscpn+&#xA;EPnueeWeeSeVuUsrF5GPdmNSfvzqAKFB82nIyJJ5lTwsXYq7FXYq7FXYq7FXYq7FU/8AIulxal5n&#xA;s4JlDQoTNIp3BEY5AEe7UzG1mQwxkh2PZWAZdREHlz+T3TOcfQGnRHRkcBkYEMp3BB2IOIKCARRf&#xA;P3mHTl03XL2yT+7glZY69eBNV/4UjOnwT44AvnOsw+FmlAcgUuy1xXYqmGgacNS1qysW+xPKqyU6&#xA;8K1b/hQcqzT4IGXc5Okw+LljDvL6BiijiiSKNQkcahUQbAKBQAZzJN7vo8YgChyC7Al4T520mLS/&#xA;Mt5bQjjASJYVHQLIA3EewJIGdHpMhnjBPN8+7U04xZ5RHLmPikWZLr3Yq7FXYq7FXYq7FXYq7FVS&#xA;CeWCeOeJuMsTB42HZlNQfvwEWKLKEjEgjmH0JpGoR6jplrfR043EayUHYkfEv0HbOXyw4JGPc+k6&#xA;fMMuOMx/EGJfmzqZt9ChsVaj3svxjxji+I/8MVzO7Nx3MnudN7QZ+HCIfzj9g/bTyTN28a7FXYq7&#xA;FXYq7FXYq7FXYq7FWXfld/ylcf8Axhl/VmD2h/dfF3XYP+Mj3F7Lmhe3dirwzz9/yl+pf66/8m1z&#xA;otH/AHUXgO1/8Zn7/wBAY/mU612Ksg8g/wDKX6b/AK7f8m2zF1n91J2XZH+Mw9/6C9zznXv3Yq8a&#xA;/NH/AJSuT/jDF+rN92f/AHXxeI7e/wAZPuDEcznSuxV2KuxV2KuxV2KuxV2KuxV63+U2pm40KaxZ&#xA;qvZS/APCOX4h/wAMGzSdpY6mD3vZez+fiwmH80/Yf22xr82L4zeYorUH4bWBQR/lyEsf+F45l9mw&#xA;rHfeXV+0GXiziP8ANj9/4DCc2DoXYq7FXYq7FXYq7FXYq7FXYqy78rv+Urj/AOMMv6swe0P7r4u6&#xA;7B/xke4vZc0L27sVeGefv+Uv1L/XX/k2udFo/wC6i8B2v/jM/f8AoDH8ynWuxVkHkH/lL9N/12/5&#xA;NtmLrP7qTsuyP8Zh7/0F7nnOvfuxV41+aP8Aylcn/GGL9Wb7s/8Auvi8R29/jJ9wYjmc6V2KuxV2&#xA;KuxV2KuxV2KuxV2Ks2/Ke+MPmKW1J+G6gYAf5cZDD/heWa/tKF477i772fy8Ocx/nR+78FI/Od0b&#xA;nzVqchNaTtH9EX7v/jXMjSxrHH3OB2nPi1Ez/Sr5bJLmQ4DsVdirsVdirsVdirsVdirsVZd+V3/K&#xA;Vx/8YZf1Zg9of3Xxd12D/jI9xey5oXt3Yq8M8/f8pfqX+uv/ACbXOi0f91F4Dtf/ABmfv/QGP5lO&#xA;tdirIPIP/KX6b/rt/wAm2zF1n91J2XZH+Mw9/wCgvc851792KvGvzR/5SuT/AIwxfqzfdn/3XxeI&#xA;7e/xk+4MRzOdK7FXYq7FXYq7FXYq7FXYq7FU68mXRtvNWmSA0rOsf0S/u/8AjbMfVRvHL3Of2ZPh&#xA;1ED/AEq+eyW6hKZr+5mPWSV3P+yYnLoCogOLmlxTJ7yUPkmp2KuxV2KuxV2KuxV2KuxV2Ksu/K7/&#xA;AJSuP/jDL+rMHtD+6+Luuwf8ZHuL2XNC9u7FXhnn7/lL9S/11/5NrnRaP+6i8B2v/jM/f+gMfzKd&#xA;a7FWQeQf+Uv03/Xb/k22Yus/upOy7I/xmHv/AEF7nnOvfuxV41+aP/KVyf8AGGL9Wb7s/wDuvi8R&#xA;29/jJ9wYjmc6V2KuxV2KuxV2KuxV2KuxV2KojT5TDf20w6xyo4/2LA5GYuJDbhlwzB7iEPkmp2Ku&#xA;xV2KuxV2KuxV2KuxV2KuxVl35Xf8pXH/AMYZf1Zg9of3Xxd12D/jI9xey5oXt3Yq8M8/f8pfqX+u&#xA;v/Jtc6LR/wB1F4Dtf/GZ+/8AQGP5lOtdirIPIP8Ayl+m/wCu3/JtsxdZ/dSdl2R/jMPf+gvc8517&#xA;92KvGvzR/wCUrk/4wxfqzfdn/wB18XiO3v8AGT7gxHM50rsVdirsVdirsVdirsVdirsVdirsVdir&#xA;sVdirsVdirsVdirsVdirsVZd+V3/AClcf/GGX9WYPaH918Xddg/4yPcXsuaF7d2KvDPP3/KX6l/r&#xA;r/ybXOi0f91F4Dtf/GZ+/wDQGP5lOtdirIPIP/KX6b/rt/ybbMXWf3UnZdkf4zD3/oL3POde/dir&#xA;xr80f+Urk/4wxfqzfdn/AN18XiO3v8ZPuDEcznSuxV2KuxV2KuxV2KuxV2KuxV2KonUojDqN1Ces&#xA;c0iH/YsRkMZuIPk2548M5DuJQ2TanYq7FXYq7FXYq7FXYq7FXYqy78rv+Urj/wCMMv6swe0P7r4u&#xA;67B/xke4vZc0L27sVeGefv8AlL9S/wBdf+Ta50Wj/uovAdr/AOMz9/6Ax/Mp1rsVZB5B/wCUv03/&#xA;AF2/5NtmLrP7qTsuyP8AGYe/9Be55zr37sVeNfmj/wApXJ/xhi/Vm+7P/uvi8R29/jJ9wYjmc6V2&#xA;KuxV2KuxV2KuxV2KuxV2KonTYjNqNrCOsk0aD/ZMBkMhqJPk24I8U4jvITLzra/VvNepx0pynMv/&#xA;ACNAk/43yrSSvFH3OV2nj4dRMed/PdJMyHAdirsVdirsVdirsVdirsVdirLvyu/5SuP/AIwy/qzB&#xA;7Q/uvi7rsH/GR7i9lzQvbuxV4Z5+/wCUv1L/AF1/5NrnRaP+6i8B2v8A4zP3/oDH8ynWuxVkHkH/&#xA;AJS/Tf8AXb/k22Yus/upOy7I/wAZh7/0F7nnOvfuxV41+aP/AClcn/GGL9Wb7s/+6+LxHb3+Mn3B&#xA;iOZzpXYq7FXYq7FXYq7FXYq7FXYqnfkq1+s+a9MjpXjOJf8AkUDJ/wAaZj6uVYpe5z+zMfFqIDzv&#xA;5bp5+bNiYfMEN0B8F1AKnxeMlT/wvHMfs2dwI7i7D2hxcOYS/nR+78BhGbB0DsVdirsVdirsVdir&#xA;sVdirsVZd+V3/KVx/wDGGX9WYPaH918Xddg/4yPcXsuaF7d2KvDPP3/KX6l/rr/ybXOi0f8AdReA&#xA;7X/xmfv/AEBj+ZTrXYqyDyD/AMpfpv8Art/ybbMXWf3UnZdkf4zD3/oL3POde/dirxr80f8AlK5P&#xA;+MMX6s33Z/8AdfF4jt7/ABk+4MRzOdK7FXYq7FXYq7FXYq7FXYq7FWb/AJTWJm8wTXRHwWsBofB5&#xA;CFH/AAvLNf2lOoAd5d/7PYuLMZfzY/f+Cyb819NNxoEV6oq9lKCx8I5fhb/huOYfZ2Sp13u09oMH&#xA;FhE/5p+w/gPIs3jxjsVdirsVdirsVdirsVdirsVZd+V3/KVx/wDGGX9WYPaH918Xddg/4yPcXsua&#xA;F7d2KvDPP3/KX6l/rr/ybXOi0f8AdReA7X/xmfv/AEBj+ZTrXYqyDyD/AMpfpv8Art/ybbMXWf3U&#xA;nZdkf4zD3/oL3POde/dirxr80f8AlK5P+MMX6s33Z/8AdfF4jt7/ABk+4MRzOdK7FXYq7FXYq7FX&#xA;Yq7FXYq7FXrv5UaabfQJb1hR72UlT4xxfCv/AA3LNH2jkuddz2fs/g4cJn/OP2D8FluqWEWoadc2&#xA;Mv2LiNoyfDkKA/Qd8wsczGQI6O5z4hkgYH+IU+erm3ltrmW3mXjNC7RyL4MpoR9+dRGQIsPm04GM&#xA;jE8wpYWDsVdirsVdirsVdirsVdiqd+TdXj0nzHaXcx4wcjHM3YJIOJJ/1a1zH1WLjxkDm5/ZuoGH&#xA;PGR5cj8XvAIIBBqDuCM5t9CWTzw28Ek8ziOGJS8jt0CgVJOEAk0GM5iIJOwD591zUTqWsXl9SguJ&#xA;WdAeoWvwg/JaZ0+GHBAR7nzjVZvFyyn3lA5Y47sVTDQNRGm61ZXzfYglVpKdeFaP/wALXKs0OOBj&#xA;3uTpM3hZYz7i+gYpY5okliYPHIoZHG4KkVBGcyRRovo8ZCQsciuwJeE+dtWi1TzLeXMJ5QAiKFh0&#xA;KxgLyHsSCRnR6TGYYwDzfPu1NQMueUhy5D4JFmS692KuxV2KuxV2KuxV2KuxVVtreW5uYreFeU0z&#xA;rHGvizGgH34JSAFlnCBlIRHMvoXS7CLT9OtrGL7FvGsYPjxFCfpO+cvkmZSJPV9JwYhjgID+EUic&#xA;g2vI/wA09DNnrKalEtLe/HxkdBMgo3/BLQ/fm87OzcUOE8w8Z29peDL4g5T+9hGbB0LsVdirsVdi&#xA;rsVdirsVdirsVZRoX5h+YNItltVMd1bIKRpOCSg8FZSpp7HMPNooTN8i7bSds5sMeHaUfNR8w+ed&#xA;d1yL6vO6wWnVreEFVYjpzJJLfqyWDSQxmxuWGs7VzZxwnaPcGO5lOsdirsVdirJ/Lnn/AFrRIBar&#xA;wurNfsQy1qn+ow3A9t8w8+ihkN8i7XRdr5cA4fqj3H9Cvr/5k61qtq9pEiWVvICJRGSXZT+yXPb5&#xA;DI4dBCBs7ls1fbeXNHhHpie7mxHM50zsVdirsVdirsVdirsVdirsVZv+Vmhm81l9SlWtvYD4Cehm&#xA;cUX/AIFan7s1/aObhhwjmXfdg6Xjy+IeUPveuZo3s3YqlHmrQo9b0WeyNPWp6ls5/ZlUfD9/Q+xy&#xA;/T5vDmC4Wv0gz4jDr097waWKSKR4pFKSRsVdT1DA0IOdIDe757KJBo81mFi7FXYq7FXYq7FXYq7F&#xA;XYq7FXYq7FXYq7FXYq7FXYq7FXYq7FXYq7FXYq7FXYq7FV8UUksiRRqXkkYKijqWJoAMBNbsoxJN&#xA;Dm958q6FHomiwWQp61PUuXH7UrD4vu6D2Gc3qM3iTJfQtBpBgxCHXr703yhzXYq7FXl35peVzBcf&#xA;py1T9zMQt4o/Zk6K/wAm6H3+ebjs/UWOA/B5Lt7QcMvGjyP1e/v+P45vPc2jzbsVdirsVdirsVdi&#xA;rsVdirsVdirsVdirsVdirsVdirsVdirsVdirsVdirsVdirsVehflb5XM9wdcuk/cwErZqR9qToz/&#xA;ACXoPf5Zq+0NRQ4B8XpOwdBxS8aXIcvf3/D7/c9RzTvWuxV2KuxVSvLS3vLWW1uEEkEylJEPcHbJ&#xA;RkYmxzYZMcZxMZbgvCvNXly50HVHtZKtbvV7WY9HT/modDnR6fOMkb6vn+v0UtPk4Ty6HySbL3Bd&#xA;irsVdirsVdirsVdirsVdirsVdirsVdirsVdirsVdirsVdirsVdirsVdiqc+VfLlzr2qJax1W3Sj3&#xA;Uw6In/NR6DKNRnGON9XO0GilqMnCOXU+T3WztLeztYrW3QRwQqEjQdgNs5yUjI2eb6BjxxhERjsA&#xA;q5Fm7FXYq7FXYqlXmTy9Z67pj2dx8Lj4reYCpjfsfl4jLsGc45WHD1ujjqMfDL4HuLw3VtKvdKv5&#xA;bK8ThNEf9iy9mU91OdFjyCcbDwOo088MzCQ3CDyxodirsVdirsVdirsVdirsVdirsVdirsVdirsV&#xA;dirsVdirsVdirsVdiqM0nSr3Vb+Kys05zSn/AGKr3Zj2UZXkyCEbLfp9PPNMQiNy9y8teXrPQtNS&#xA;zt/ic/FcTEUMj03Py8BnO585ySsvfaLRx0+Phj8T3lNcpcx2KuxV2KuxV2KuxVJPNXlWx8wWPpS0&#xA;juowTbXIG6nwPip7jMjT6g4jY5OBr9BDUQo7SHI/jo8U1bSb/Sr17O+iMUydP5WXsynuDnQY8kZi&#xA;w8JqNPPDPhmKKCyxodirsVdirsVdirsVdirsVdirsVdirsVdirsVdirsVdirsVdiqN0nSb/Vb1LO&#xA;xiMsz9f5VXuzHsBleTJGAst+n0880+GAsva/KvlWx8v2PpRUkupADc3JG7HwHgo7DOf1GoOU2eT3&#xA;eg0ENPChvI8z+Oid5jue7FXYq7FXYq7FXYq7FXYqlfmDy3pmu2f1e8T4l3hnXZ428Qf1g5dhzyxm&#xA;w4ms0WPUR4ZfA9Q8a8y+U9U0C44XK+pbOaQ3SA8G9j/K3sc32DUxyDbn3PEa3s/Jp5VLePQ9ElzI&#xA;cB2KuxV2KuxV2KuxV2KuxV2KuxV2KuxV2KuxV2KuxV2Kp15b8p6rr9xwtk4WyGk104+BPb/Kb2GY&#xA;+fUxxjfn3Ofouz8molUfp6no9l8veW9N0KzFvZp8bbzTtu8jeJPh4DNDnzyyGy9vo9Fj08eGPxPU&#xA;pplLluxV2KuxV2KuxV2KuxV2KuxV2KqV1a213bvb3MazQSCjxuKgjJRkYmxzYZMcZxMZCwXmvmj8&#xA;rJoi91oRMse5ayc/GP8AjGx+18jv8822n7QB2n83l9d2CR6sO4/m/qefzQzQStDMjRSoaPG4KsD4&#xA;EHNmCCLDzcomJoiip4WLsVdirsVdirsVdirsVdirsVdirsVdirsVVIYZp5VhhRpZXNEjQFmJ8ABg&#xA;JAFllGJkaAsvQPLH5WTSlLrXT6UexWyQ/G3/ABkYfZ+Q3+WazUdoAbQ+b0eh7BJ9WbYfzf1vSrW1&#xA;trS3S3to1hgjFEjQUAGamUjI2eb1OPHGERGIoBVyLN2KuxV2KuxV2KuxV2KuxV2KuxV2KuxV2KpX&#xA;rflnRtaj439uHcCiTr8Mi/Jh+o7Zdi1E8f0lxNVocWcesfHq871z8qdUtuUulSi9hG/pNRJR9/wt&#xA;94+WbTD2jE7S2ea1Xs/kjvjPEO7kWF3dleWcxhu4HglHVJFKn7jmwjMSFg26LJilA1IEHzUMk1ux&#xA;V2KuxV2KuxV2KuxV2KuxVXtLK8vJhDaQPPKeiRqWP3DIymIiyabMeKUzUQSfJmmh/lTqlzxl1WUW&#xA;UJ39JaPKfu+FfvPyzX5u0YjaO7vdL7P5Jb5Dwju5l6JonlnRtFj42FuEcijzt8UjfNj+obZq8uon&#xA;k+ovS6XQ4sA9A+PVNMpct2KuxV2KuxV2KuxV2KuxV2KuxV2KuxV2KuxV2KuxV2KqF5YWV7EYbyCO&#xA;4iP7Eqhh9FclGZibBpryYoTFSAI82Lal+Vvlu6Ja29Wyc9o25JX/AFX5fgRmbj7QyDnu6jP2Dgn9&#xA;Nx937WM335RavHU2V5DcKOgkDRMf+Jj8cy4dpxPMEOry+zuUfRIS+z9aR3XkDzdb15ae8ijo0TJJ&#xA;X6FJP4ZkR1uI9XX5OyNTH+C/dRS2bQdcgr62nXMdP5oZB7dxlwzQPIj5uLLSZo84SHwKGazu1JVo&#xA;JFYdQVYH9WS4h3tRxyHQuWzu2IVYJGY9AFYn9WPEO9RjkehRMOg65PT0dOuZK/ywyH27DInNAcyP&#xA;m2x0maXKEj8CmVr5A83XFOOnvGp6tKyR0+hiD+GUy1uIdXKx9kamX8Fe+gnlj+UWryUN7eQ26nqI&#xA;w0rD/iA/HMefacRyBLsMXs7lP1yEft/UybTfyt8t2pDXPq3rjtI3FK/6qcfxJzEydoZDy2dpg7Bw&#xA;Q+q5e/8AYymzsLKyiENnBHbxD9iJQo+mmYUpmRsm3b48UICogAeSvkWx2KuxV2KuxV2KuxV2KuxV&#xA;2Kv/2Q==</xmpGImg:image>
               </rdf:li>
            </rdf:Alt>
         </xmp:Thumbnails>
      </rdf:Description>
      <rdf:Description rdf:about=""
            xmlns:xmpMM="http://ns.adobe.com/xap/1.0/mm/"
            xmlns:stRef="http://ns.adobe.com/xap/1.0/sType/ResourceRef#"
            xmlns:stEvt="http://ns.adobe.com/xap/1.0/sType/ResourceEvent#">
         <xmpMM:OriginalDocumentID>uuid:9E3E5C9A8C81DB118734DB58FDDE4BA7</xmpMM:OriginalDocumentID>
         <xmpMM:DocumentID>xmp.did:A2884893C5ECE811A645BD25ACEA8D52</xmpMM:DocumentID>
         <xmpMM:InstanceID>xmp.iid:A2884893C5ECE811A645BD25ACEA8D52</xmpMM:InstanceID>
         <xmpMM:RenditionClass>proof:pdf</xmpMM:RenditionClass>
         <xmpMM:DerivedFrom rdf:parseType="Resource">
            <stRef:instanceID>xmp.iid:A1884893C5ECE811A645BD25ACEA8D52</stRef:instanceID>
            <stRef:documentID>xmp.did:A1884893C5ECE811A645BD25ACEA8D52</stRef:documentID>
            <stRef:originalDocumentID>uuid:9E3E5C9A8C81DB118734DB58FDDE4BA7</stRef:originalDocumentID>
            <stRef:renditionClass>proof:pdf</stRef:renditionClass>
         </xmpMM:DerivedFrom>
         <xmpMM:History>
            <rdf:Seq>
               <rdf:li rdf:parseType="Resource">
                  <stEvt:action>saved</stEvt:action>
                  <stEvt:instanceID>xmp.iid:F8504811B0ECE811A645BD25ACEA8D52</stEvt:instanceID>
                  <stEvt:when>2018-11-20T16:05:58+05:30</stEvt:when>
                  <stEvt:softwareAgent>Adobe Illustrator CS5</stEvt:softwareAgent>
                  <stEvt:changed>/</stEvt:changed>
               </rdf:li>
               <rdf:li rdf:parseType="Resource">
                  <stEvt:action>saved</stEvt:action>
                  <stEvt:instanceID>xmp.iid:F9504811B0ECE811A645BD25ACEA8D52</stEvt:instanceID>
                  <stEvt:when>2018-11-20T16:06:52+05:30</stEvt:when>
                  <stEvt:softwareAgent>Adobe Illustrator CS5</stEvt:softwareAgent>
                  <stEvt:changed>/</stEvt:changed>
               </rdf:li>
               <rdf:li rdf:parseType="Resource">
                  <stEvt:action>saved</stEvt:action>
                  <stEvt:instanceID>xmp.iid:FA504811B0ECE811A645BD25ACEA8D52</stEvt:instanceID>
                  <stEvt:when>2018-11-20T16:11:02+05:30</stEvt:when>
                  <stEvt:softwareAgent>Adobe Illustrator CS5</stEvt:softwareAgent>
                  <stEvt:changed>/</stEvt:changed>
               </rdf:li>
               <rdf:li rdf:parseType="Resource">
                  <stEvt:action>saved</stEvt:action>
                  <stEvt:instanceID>xmp.iid:FB504811B0ECE811A645BD25ACEA8D52</stEvt:instanceID>
                  <stEvt:when>2018-11-20T16:14:22+05:30</stEvt:when>
                  <stEvt:softwareAgent>Adobe Illustrator CS5</stEvt:softwareAgent>
                  <stEvt:changed>/</stEvt:changed>
               </rdf:li>
               <rdf:li rdf:parseType="Resource">
                  <stEvt:action>saved</stEvt:action>
                  <stEvt:instanceID>xmp.iid:FC504811B0ECE811A645BD25ACEA8D52</stEvt:instanceID>
                  <stEvt:when>2018-11-20T16:15:15+05:30</stEvt:when>
                  <stEvt:softwareAgent>Adobe Illustrator CS5</stEvt:softwareAgent>
                  <stEvt:changed>/</stEvt:changed>
               </rdf:li>
               <rdf:li rdf:parseType="Resource">
                  <stEvt:action>saved</stEvt:action>
                  <stEvt:instanceID>xmp.iid:FD504811B0ECE811A645BD25ACEA8D52</stEvt:instanceID>
                  <stEvt:when>2018-11-20T16:17:45+05:30</stEvt:when>
                  <stEvt:softwareAgent>Adobe Illustrator CS5</stEvt:softwareAgent>
                  <stEvt:changed>/</stEvt:changed>
               </rdf:li>
               <rdf:li rdf:parseType="Resource">
                  <stEvt:action>saved</stEvt:action>
                  <stEvt:instanceID>xmp.iid:FE504811B0ECE811A645BD25ACEA8D52</stEvt:instanceID>
                  <stEvt:when>2018-11-20T18:07:58+05:30</stEvt:when>
                  <stEvt:softwareAgent>Adobe Illustrator CS5</stEvt:softwareAgent>
                  <stEvt:changed>/</stEvt:changed>
               </rdf:li>
               <rdf:li rdf:parseType="Resource">
                  <stEvt:action>saved</stEvt:action>
                  <stEvt:instanceID>xmp.iid:FF504811B0ECE811A645BD25ACEA8D52</stEvt:instanceID>
                  <stEvt:when>2018-11-20T18:08:57+05:30</stEvt:when>
                  <stEvt:softwareAgent>Adobe Illustrator CS5</stEvt:softwareAgent>
                  <stEvt:changed>/</stEvt:changed>
               </rdf:li>
               <rdf:li rdf:parseType="Resource">
                  <stEvt:action>saved</stEvt:action>
                  <stEvt:instanceID>xmp.iid:00514811B0ECE811A645BD25ACEA8D52</stEvt:instanceID>
                  <stEvt:when>2018-11-20T18:09:25+05:30</stEvt:when>
                  <stEvt:softwareAgent>Adobe Illustrator CS5</stEvt:softwareAgent>
                  <stEvt:changed>/</stEvt:changed>
               </rdf:li>
               <rdf:li rdf:parseType="Resource">
                  <stEvt:action>saved</stEvt:action>
                  <stEvt:instanceID>xmp.iid:01514811B0ECE811A645BD25ACEA8D52</stEvt:instanceID>
                  <stEvt:when>2018-11-20T18:12:48+05:30</stEvt:when>
                  <stEvt:softwareAgent>Adobe Illustrator CS5</stEvt:softwareAgent>
                  <stEvt:changed>/</stEvt:changed>
               </rdf:li>
               <rdf:li rdf:parseType="Resource">
                  <stEvt:action>saved</stEvt:action>
                  <stEvt:instanceID>xmp.iid:9E884893C5ECE811A645BD25ACEA8D52</stEvt:instanceID>
                  <stEvt:when>2018-11-20T18:40:06+05:30</stEvt:when>
                  <stEvt:softwareAgent>Adobe Illustrator CS5</stEvt:softwareAgent>
                  <stEvt:changed>/</stEvt:changed>
               </rdf:li>
               <rdf:li rdf:parseType="Resource">
                  <stEvt:action>saved</stEvt:action>
                  <stEvt:instanceID>xmp.iid:9F884893C5ECE811A645BD25ACEA8D52</stEvt:instanceID>
                  <stEvt:when>2018-11-20T18:47:25+05:30</stEvt:when>
                  <stEvt:softwareAgent>Adobe Illustrator CS5</stEvt:softwareAgent>
                  <stEvt:changed>/</stEvt:changed>
               </rdf:li>
               <rdf:li rdf:parseType="Resource">
                  <stEvt:action>saved</stEvt:action>
                  <stEvt:instanceID>xmp.iid:A0884893C5ECE811A645BD25ACEA8D52</stEvt:instanceID>
                  <stEvt:when>2018-11-20T18:50:41+05:30</stEvt:when>
                  <stEvt:softwareAgent>Adobe Illustrator CS5</stEvt:softwareAgent>
                  <stEvt:changed>/</stEvt:changed>
               </rdf:li>
               <rdf:li rdf:parseType="Resource">
                  <stEvt:action>saved</stEvt:action>
                  <stEvt:instanceID>xmp.iid:A1884893C5ECE811A645BD25ACEA8D52</stEvt:instanceID>
                  <stEvt:when>2018-11-20T18:52:17+05:30</stEvt:when>
                  <stEvt:softwareAgent>Adobe Illustrator CS5</stEvt:softwareAgent>
                  <stEvt:changed>/</stEvt:changed>
               </rdf:li>
               <rdf:li rdf:parseType="Resource">
                  <stEvt:action>saved</stEvt:action>
                  <stEvt:instanceID>xmp.iid:A2884893C5ECE811A645BD25ACEA8D52</stEvt:instanceID>
                  <stEvt:when>2018-11-20T18:59:05+05:30</stEvt:when>
                  <stEvt:softwareAgent>Adobe Illustrator CS5</stEvt:softwareAgent>
                  <stEvt:changed>/</stEvt:changed>
               </rdf:li>
            </rdf:Seq>
         </xmpMM:History>
      </rdf:Description>
      <rdf:Description rdf:about=""
            xmlns:illustrator="http://ns.adobe.com/illustrator/1.0/">
         <illustrator:StartupProfile>Basic RGB</illustrator:StartupProfile>
      </rdf:Description>
      <rdf:Description rdf:about=""
            xmlns:xmpTPg="http://ns.adobe.com/xap/1.0/t/pg/"
            xmlns:stDim="http://ns.adobe.com/xap/1.0/sType/Dimensions#"
            xmlns:xmpG="http://ns.adobe.com/xap/1.0/g/">
         <xmpTPg:NPages>1</xmpTPg:NPages>
         <xmpTPg:HasVisibleTransparency>False</xmpTPg:HasVisibleTransparency>
         <xmpTPg:HasVisibleOverprint>False</xmpTPg:HasVisibleOverprint>
         <xmpTPg:MaxPageSize rdf:parseType="Resource">
            <stDim:w>50.000000</stDim:w>
            <stDim:h>50.000000</stDim:h>
            <stDim:unit>Pixels</stDim:unit>
         </xmpTPg:MaxPageSize>
         <xmpTPg:PlateNames>
            <rdf:Seq>
               <rdf:li>Cyan</rdf:li>
               <rdf:li>Magenta</rdf:li>
               <rdf:li>Yellow</rdf:li>
               <rdf:li>Black</rdf:li>
            </rdf:Seq>
         </xmpTPg:PlateNames>
         <xmpTPg:SwatchGroups>
            <rdf:Seq>
               <rdf:li rdf:parseType="Resource">
                  <xmpG:groupName>Default Swatch Group</xmpG:groupName>
                  <xmpG:groupType>0</xmpG:groupType>
               </rdf:li>
            </rdf:Seq>
         </xmpTPg:SwatchGroups>
      </rdf:Description>
      <rdf:Description rdf:about=""
            xmlns:pdf="http://ns.adobe.com/pdf/1.3/">
         <pdf:Producer>Adobe PDF library 9.90</pdf:Producer>
      </rdf:Description>
   </rdf:RDF>
</x:xmpmeta>
                                                                                                    
                                                                                                    
                                                                                                    
                                                                                                    
                                                                                                    
                                                                                                    
                                                                                                    
                                                                                                    
                                                                                                    
                                                                                                    
                                                                                                    
                                                                                                    
                                                                                                    
                                                                                                    
                                                                                                    
                                                                                                    
                                                                                                    
                                                                                                    
                                                                                                    
                                                                                                    
                           
<?xpacket end="w"?>
	</metadata>
<path display="none" fill="#2EB7D6" d="M23.662,19.661l-9.371-9.37l-2.522,2.522l9.371,9.371L23.662,19.661z M30.689,10.291
	l3.604,3.604L11.769,36.602l2.522,2.521l22.706-22.524l3.604,3.604v-9.911L30.689,10.291L30.689,10.291z M31.23,27.23l-2.522,2.521
	l5.586,5.586l-3.604,3.604h9.912v-9.91l-3.604,3.604L31.23,27.23z"/>
<path display="none" fill="#898989" d="M18.127,33.986c-2.699-2.172-4.426-5.5-4.426-9.233c0-5.519,3.779-10.144,8.887-11.462
	v-3.053c-6.761,1.373-11.85,7.35-11.85,14.515c0,4.427,1.944,8.397,5.022,11.112C18.146,38.084,19.626,35.122,18.127,33.986z
	 M35.215,13.533c-1.518-1.37-3.738,0.853-2.281,1.953c2.724,2.17,4.467,5.515,4.467,9.267c0,5.521-3.778,10.146-8.887,11.461v3.054
	c6.762-1.373,11.85-7.349,11.85-14.515C40.363,20.266,38.367,16.249,35.215,13.533z M23.897,15.85l4.821-2.887
	c0.702-0.421,0.703-1.104,0.005-1.527l-4.867-2.944c-0.699-0.424-1.265-0.104-1.261,0.714l0.026,5.925
	C22.624,15.947,23.195,16.271,23.897,15.85z M27.246,33.671l-4.866,2.944c-0.7,0.424-0.698,1.107,0.004,1.527l4.821,2.887
	c0.701,0.421,1.273,0.099,1.277-0.721l0.024-5.925C28.511,33.566,27.945,33.248,27.246,33.671z"/>
<path display="none" fill="#7F7F7F" d="M7.678,8.303v34.78l30.121-17.39L7.678,8.303z"/>
<path display="none" fill="#7F7F7F" d="M32.005,42.6H41V8.109h-8.995V42.6z"/>
<g display="none">
	<path display="inline" fill="#FFFFFF" d="M18.704,36.689V14.74l19.01,10.975L18.704,36.689z"/>
	<path display="inline" fill="#2EB7D6" d="M25,5.5C14.216,5.5,5.472,14.23,5.472,25c0,10.768,8.744,19.5,19.528,19.5
		c10.785,0,19.527-8.732,19.527-19.5C44.527,14.23,35.785,5.5,25,5.5z M19.546,32.611V16.68l14.922,7.967L19.546,32.611z"/>
</g>
<path fill="#2EB7D6" d="M25.001,1.125C11.797,1.125,1.092,11.813,1.092,25c0,13.184,10.705,23.875,23.909,23.875
	c13.204,0,23.907-10.691,23.907-23.875C48.908,11.813,38.205,1.125,25.001,1.125z M18.323,34.319V14.813"/>
<g display="none">
	<g display="inline">
		<path fill="#898989" d="M26.018,11.237l-8.655,8.058c-0.211,0.124-0.449,0.188-0.693,0.188h-5.401
			c-0.754,0-1.365,0.611-1.365,1.366v8.303c0,0.752,0.611,1.363,1.365,1.363h5.401c0.244,0,0.482,0.064,0.693,0.188l8.655,8.058
			c0.91,0.536,2.058-0.121,2.058-1.176V12.414C28.074,11.358,26.928,10.702,26.018,11.237z M33.428,17.077
			c-0.254-0.253-0.664-0.253-0.918,0c-0.254,0.255-0.254,0.664,0,0.918c4.049,4.049,4.049,10.638,0,14.687
			c-0.254,0.254-0.254,0.664,0,0.918c0.127,0.127,0.293,0.189,0.459,0.189s0.332-0.063,0.459-0.189
			C37.982,29.045,37.982,21.633,33.428,17.077z M31.131,19.024c-0.256-0.253-0.664-0.253-0.92,0c-0.252,0.254-0.252,0.664,0,0.918
			c2.789,2.789,2.789,7.328,0,10.117c-0.252,0.252-0.252,0.662,0,0.916c0.127,0.127,0.295,0.19,0.459,0.19
			c0.166,0,0.332-0.063,0.461-0.19C34.424,27.68,34.424,22.319,31.131,19.024z M35.334,13.833c-0.256-0.254-0.664-0.254-0.92,0
			c-0.252,0.254-0.252,0.663,0,0.918c2.828,2.826,4.385,6.581,4.385,10.573s-1.557,7.748-4.385,10.574
			c-0.252,0.254-0.252,0.664,0,0.916c0.127,0.129,0.295,0.191,0.459,0.191c0.166,0,0.332-0.063,0.461-0.191
			c3.07-3.069,4.764-7.149,4.764-11.49C40.098,20.985,38.404,16.904,35.334,13.833z"/>
	</g>
</g>
<g display="none">
	<g display="inline">
		<path fill="#898989" d="M26.018,11.237l-8.655,8.058c-0.211,0.124-0.449,0.188-0.693,0.188h-5.401
			c-0.754,0-1.365,0.611-1.365,1.366v8.303c0,0.752,0.611,1.363,1.365,1.363h5.401c0.244,0,0.482,0.064,0.693,0.188l8.655,8.058
			c0.91,0.536,2.058-0.121,2.058-1.176V12.414C28.074,11.358,26.928,10.702,26.018,11.237z M31.131,19.024
			c-0.256-0.253-0.664-0.253-0.92,0c-0.252,0.254-0.252,0.664,0,0.918c2.789,2.789,2.789,7.328,0,10.117
			c-0.252,0.252-0.252,0.662,0,0.916c0.127,0.127,0.295,0.19,0.459,0.19c0.166,0,0.332-0.063,0.461-0.19
			C34.424,27.68,34.424,22.319,31.131,19.024z"/>
	</g>
</g>
<rect x="23.747" y="3.361" transform="matrix(-0.5673 0.8235 -0.8235 -0.5673 59.6692 18.7957)" display="none" fill="#898989" width="2.3" height="43.427"/>
<path display="none" fill="#898989" d="M26.333,44.719c-0.604,0-1.189-0.219-1.644-0.617c-1.717-1.502-3.373-2.912-4.833-4.158
	l-0.007-0.006c-4.282-3.649-7.98-6.802-10.554-9.903C6.419,26.561,5.08,23.271,5.08,19.676c0-3.493,1.197-6.715,3.372-9.073
	c2.201-2.387,5.22-3.701,8.502-3.701c2.454,0,4.701,0.776,6.679,2.306c0.998,0.772,1.903,1.717,2.7,2.819
	c0.797-1.102,1.702-2.047,2.7-2.819c1.978-1.53,4.226-2.306,6.679-2.306c3.282,0,6.302,1.314,8.502,3.701
	c2.175,2.358,3.372,5.581,3.372,9.073c0,3.595-1.34,6.885-4.216,10.355c-2.572,3.104-6.271,6.256-10.552,9.906
	c-1.465,1.246-3.121,2.658-4.844,4.164C27.521,44.5,26.938,44.719,26.333,44.719z M16.954,9.391c-2.579,0-4.949,1.029-6.672,2.898
	C8.533,14.187,7.57,16.81,7.57,19.676c0,3.023,1.124,5.728,3.643,8.768c2.435,2.938,6.057,6.024,10.25,9.601l0.008,0.006
	c1.466,1.249,3.128,2.665,4.859,4.179c1.738-1.515,3.404-2.935,4.873-4.185c4.193-3.575,7.814-6.662,10.25-9.601
	c2.52-3.04,3.645-5.743,3.645-8.768c0-2.866-0.965-5.489-2.714-7.386c-1.724-1.869-4.093-2.898-6.672-2.898
	c-1.889,0-3.624,0.601-5.155,1.785c-1.365,1.056-2.314,2.391-2.873,3.325c-0.287,0.48-0.791,0.767-1.351,0.767
	s-1.063-0.287-1.35-0.767c-0.558-0.934-1.507-2.269-2.873-3.325C20.578,9.992,18.843,9.391,16.954,9.391z"/>
<g display="none">
	<path display="inline" fill="#898989" d="M37.863,31.268c-2.53,0-4.787,1.205-6.23,3.069l-12.087-6.752
		c0.283-0.813,0.439-1.688,0.439-2.594c0-0.914-0.157-1.782-0.449-2.604l12.078-6.743c1.435,1.873,3.7,3.088,6.239,3.088
		c4.332,0,7.867-3.526,7.867-7.866c0-4.34-3.527-7.866-7.867-7.866s-7.865,3.526-7.865,7.866c0,0.914,0.156,1.791,0.447,2.604
		l-12.068,6.742c-1.435-1.882-3.7-3.088-6.24-3.088c-4.331,0-7.866,3.527-7.866,7.867c0,4.339,3.536,7.866,7.875,7.866
		c2.539,0,4.805-1.215,6.249-3.099l12.079,6.752c-0.292,0.822-0.457,1.71-0.457,2.621c0,4.332,3.526,7.867,7.866,7.867
		s7.865-3.526,7.865-7.867C45.738,34.792,42.203,31.268,37.863,31.268z M37.863,5.476c2.979,0,5.4,2.421,5.4,5.399
		s-2.423,5.399-5.4,5.399c-2.979,0-5.398-2.421-5.398-5.399S34.895,5.476,37.863,5.476z M12.136,30.391
		c-2.979,0-5.4-2.422-5.4-5.398c0-2.979,2.421-5.4,5.4-5.4c2.979,0,5.399,2.421,5.399,5.4
		C17.536,27.969,15.105,30.391,12.136,30.391z M37.863,44.523c-2.979,0-5.398-2.42-5.398-5.398s2.421-5.398,5.398-5.398
		c2.979,0,5.4,2.42,5.4,5.398S40.842,44.523,37.863,44.523z"/>
</g>
<g display="none">
	<g display="inline">
		<g>
			<path fill="#898989" d="M12.095,13.597h25.366c1.406,0,2.545-0.253,2.545-1.652c0-1.398-1.139-1.733-2.545-1.733H12.095
				c-1.405,0-2.545,0.335-2.545,1.733C9.55,13.344,10.689,13.597,12.095,13.597z M38.01,20.58H11.991
				c-1.404,0-2.544,0.259-2.544,1.657c0,1.399,1.14,1.644,2.544,1.644H38.01c1.404,0,2.543-0.244,2.543-1.644
				C40.553,20.839,39.414,20.58,38.01,20.58z M19.326,30.805h-7.335c-1.404,0-2.544,0.395-2.544,1.793s1.14,1.68,2.544,1.68h7.335
				c1.405,0,2.544-0.28,2.544-1.68S20.731,30.805,19.326,30.805z"/>
		</g>
	</g>
	<g display="inline">
		<g>
			<path fill="#898989" d="M33.707,26.699c-1.398,0-1.732,0.49-1.732,1.094v10.902c0,0.604,0.334,1.094,1.732,1.094
				s1.652-0.488,1.652-1.094V27.793C35.359,27.189,35.105,26.699,33.707,26.699z"/>
		</g>
	</g>
	<g display="inline">
		<g>
			<path fill="#898989" d="M39.118,31.551H28.216c-0.604,0-1.094,0.254-1.094,1.654c0,1.398,0.489,1.732,1.094,1.732h10.902
				c0.604,0,1.094-0.334,1.094-1.732C40.212,31.805,39.723,31.551,39.118,31.551z"/>
		</g>
	</g>
</g>
<path display="none" fill="#898989" d="M13.797,19.377L25,30.623l11.203-11.246H13.797z"/>
<g>
	<path fill="#FFFFFF" d="M31.432,32.322c0,1.289-0.836,2.334-1.869,2.334l0,0c-1.033,0-1.869-1.045-1.869-2.334V17.74
		c0-1.289,0.836-2.333,1.869-2.333l0,0c1.033,0,1.869,1.044,1.869,2.333V32.322z"/>
	<path fill="#FFFFFF" d="M22.307,32.26c0,1.289-0.837,2.334-1.869,2.334l0,0c-1.034,0-1.869-1.045-1.869-2.334V17.677
		c0-1.289,0.835-2.333,1.869-2.333l0,0c1.032,0,1.869,1.044,1.869,2.333V32.26z"/>
</g>
</svg>
