<?xml version="1.0" encoding="iso-8859-1"?>
<!-- Generator: Adobe Illustrator 19.0.0, SVG Export Plug-In . SVG Version: 6.00 Build 0)  -->
<svg version="1.1" id="Capa_1" xmlns="http://www.w3.org/2000/svg" xmlns:xlink="http://www.w3.org/1999/xlink" x="0px" y="0px"
	 viewBox="0 0 469.333 469.333" style="enable-background:new 0 0 469.333 469.333;" xml:space="preserve" width="18" height="22">
	 <defs>
		<linearGradient id="grd1" gradientUnits="userSpaceOnUse" x1="8.933" y1="21.721" x2="8.933" y2="0.28">
			<stop offset="0" stop-color="#adadad"/>
			<stop offset="1" stop-color="#ffffff"/>
		</linearGradient>
	</defs>
	<style>
		tspan { white-space:pre }
		.shp0 { fill: url(#grd1) } 
	</style>
<g>
	<g>
		<g>
			<path id="Shape 201" class="shp0" d="M234.667,362.667c-70.72,0-128-57.28-128-128c0-21.653,5.44-41.92,14.827-59.84L90.347,143.68
				C73.813,170.133,64,201.173,64,234.667c0,94.293,76.373,170.667,170.667,170.667v64L320,384l-85.333-85.333V362.667z"/>
			<path id="Shape 201" class="shp0" d="M234.667,64V0l-85.333,85.333l85.333,85.333v-64c70.72,0,128,57.28,128,128c0,21.653-5.44,41.92-14.827,59.84
				l31.147,31.147c16.533-26.453,26.347-57.493,26.347-90.987C405.333,140.373,328.96,64,234.667,64z"/>
		</g>
	</g>
</g>
<g>
</g>
<g>
</g>
<g>
</g>
<g>
</g>
<g>
</g>
<g>
</g>
<g>
</g>
<g>
</g>
<g>
</g>
<g>
</g>
<g>
</g>
<g>
</g>
<g>
</g>
<g>
</g>
<g>
</g>
</svg>
