<svg xmlns="http://www.w3.org/2000/svg" viewBox="0 0 613 613" width="30" height="30">
	<defs>
		<linearGradient id="grd1" gradientUnits="userSpaceOnUse"  x1="306.5" y1="612.999" x2="306.5" y2="0.69">
			<stop offset="0" stop-color="#adadad"  />
			<stop offset="1" stop-color="#ffffff"  />
		</linearGradient>
	</defs>
	<style>
		tspan { white-space:pre }
		.shp0 { fill: url(#grd1) } 
	</style>
	<path id="Forma 1" class="shp0" d="M610.41 272.85C609.44 264.24 599.42 257.77 590.75 257.77C562.72 257.77 537.85 241.3 527.42 215.82C516.77 189.73 523.64 159.29 544.53 140.11C551.1 134.1 551.9 124.03 546.38 117.03C532.04 98.79 515.74 82.32 497.93 68.05C490.96 62.45 480.74 63.23 474.69 69.93C456.46 90.14 423.72 97.65 398.41 87.08C372.08 75.99 355.48 49.28 357.1 20.61C357.64 11.6 351.06 3.77 342.09 2.73C319.25 0.08 296.2 0 273.29 2.55C264.42 3.52 257.85 11.17 258.15 20.06C259.14 48.45 242.34 74.69 216.27 85.38C191.27 95.61 158.76 88.16 140.56 68.13C134.55 61.53 124.49 60.72 117.48 66.19C99.15 80.58 82.48 97.07 68.01 115.15C62.36 122.18 63.19 132.37 69.83 138.42C91.12 157.72 97.99 188.42 86.93 214.81C76.37 239.98 50.27 256.2 20.39 256.2C10.69 255.88 3.78 262.4 2.72 271.22C0.03 294.23 0 317.66 2.59 340.85C3.55 349.49 13.88 355.9 22.64 355.9C49.28 355.22 74.85 371.73 85.57 397.86C96.26 423.95 89.39 454.37 68.47 473.56C61.93 479.58 61.1 489.64 66.61 496.63C80.82 514.75 97.13 531.24 114.99 545.63C122 551.29 132.2 550.49 138.27 543.79C156.57 523.53 189.31 516.03 214.51 526.62C240.91 537.67 257.52 564.38 255.89 593.07C255.36 602.08 261.97 609.92 270.9 610.95C282.59 612.32 294.34 613 306.13 613C317.32 613 328.51 612.38 339.7 611.14C348.57 610.16 355.14 602.51 354.85 593.6C353.82 565.23 370.65 538.99 396.69 528.32C421.86 518.03 454.24 525.56 472.43 545.57C478.48 552.15 488.47 552.95 495.51 547.5C513.81 533.14 530.44 516.67 544.99 498.53C550.63 491.52 549.84 481.31 543.16 475.26C521.88 455.97 514.97 425.27 526.03 398.89C536.42 374.06 561.56 357.39 588.59 357.39L592.37 357.48C601.14 358.2 609.21 351.43 610.27 342.47C612.97 319.45 613 296.04 610.41 272.85ZM306.98 409.61C250.73 409.61 204.97 363.81 204.97 307.49C204.97 251.18 250.73 205.37 306.98 205.37C363.24 205.37 408.99 251.18 408.99 307.49C408.99 363.81 363.24 409.61 306.98 409.61Z" />
</svg>